G04 Layer_Color=32896*
%FSTAX24Y24*%
%MOIN*%
G70*
G01*
G75*
%ADD61C,0.0079*%
%ADD62C,0.0060*%
%ADD63C,0.0050*%
D61*
X047293Y02655D02*
X047707D01*
X04355Y036593D02*
Y037007D01*
X04635Y036643D02*
Y037057D01*
Y038243D02*
Y038657D01*
X04915Y037743D02*
Y038157D01*
D62*
X0475Y02075D02*
X04735D01*
X0473Y0208D01*
X04735Y02085D01*
X04745D01*
X0475Y0209D01*
X04745Y02095D01*
X0473D01*
X04715Y021D02*
Y02095D01*
X0472D01*
X0471D01*
X04715D01*
Y0208D01*
X0471Y02075D01*
X04695D02*
Y02095D01*
X0469D01*
X04685Y0209D01*
Y02075D01*
Y0209D01*
X0468Y02095D01*
X04675Y0209D01*
Y02075D01*
X04665Y021D02*
X0466Y02105D01*
X0465D01*
X04645Y021D01*
Y02095D01*
X0465Y0209D01*
X04655D01*
X0465D01*
X04645Y02085D01*
Y0208D01*
X0465Y02075D01*
X0466D01*
X04665Y0208D01*
X04615Y02075D02*
X04635D01*
X04615Y02095D01*
Y021D01*
X0462Y02105D01*
X0463D01*
X04635Y021D01*
X045551Y02095D02*
X045701D01*
X045751Y0209D01*
Y0208D01*
X045701Y02075D01*
X045551D01*
X045401D02*
X045301D01*
X045251Y0208D01*
Y0209D01*
X045301Y02095D01*
X045401D01*
X045451Y0209D01*
Y0208D01*
X045401Y02075D01*
X045151Y02065D02*
Y02095D01*
X045001D01*
X044951Y0209D01*
Y0208D01*
X045001Y02075D01*
X045151D01*
X044801Y021D02*
Y02095D01*
X044851D01*
X044751D01*
X044801D01*
Y0208D01*
X044751Y02075D01*
X044451D02*
X044551D01*
X044601Y0208D01*
Y0209D01*
X044551Y02095D01*
X044451D01*
X044401Y0209D01*
Y02085D01*
X044601D01*
X044301Y02095D02*
Y02075D01*
Y02085D01*
X044251Y0209D01*
X044201Y02095D01*
X044151D01*
X043701D02*
X043601Y02075D01*
X043501Y02095D01*
X043401Y02075D02*
X043301D01*
X043351D01*
Y02105D01*
X043401Y021D01*
X043151Y02075D02*
Y0208D01*
X043101D01*
Y02075D01*
X043151D01*
X042901Y021D02*
X042852Y02105D01*
X042752D01*
X042702Y021D01*
Y0208D01*
X042752Y02075D01*
X042852D01*
X042901Y0208D01*
Y021D01*
D63*
X04375Y0372D02*
Y03744D01*
X04363D01*
X04359Y0374D01*
Y03732D01*
X04363Y03728D01*
X04375D01*
X04367D02*
X04359Y0372D01*
X04339D02*
Y03744D01*
X04351Y03732D01*
X04335D01*
X04494Y029D02*
X04498Y02904D01*
X04506D01*
X0451Y029D01*
Y02884D01*
X04506Y0288D01*
X04498D01*
X04494Y02884D01*
X04486Y0288D02*
X04478D01*
X04482D01*
Y02904D01*
X04486Y029D01*
X04604Y035D02*
X04608Y03504D01*
X04616D01*
X0462Y035D01*
Y03484D01*
X04616Y0348D01*
X04608D01*
X04604Y03484D01*
X0458Y0348D02*
X04596D01*
X0458Y03496D01*
Y035D01*
X04584Y03504D01*
X04592D01*
X04596Y035D01*
X03909Y03625D02*
X03913Y03629D01*
X03921D01*
X03925Y03625D01*
Y03609D01*
X03921Y03605D01*
X03913D01*
X03909Y03609D01*
X03901Y03625D02*
X03897Y03629D01*
X03889D01*
X03885Y03625D01*
Y03621D01*
X03889Y03617D01*
X03893D01*
X03889D01*
X03885Y03613D01*
Y03609D01*
X03889Y03605D01*
X03897D01*
X03901Y03609D01*
X04619Y0269D02*
X04623Y02694D01*
X04631D01*
X04635Y0269D01*
Y02674D01*
X04631Y0267D01*
X04623D01*
X04619Y02674D01*
X04595Y0267D02*
X04611D01*
X04595Y02686D01*
Y0269D01*
X04599Y02694D01*
X04607D01*
X04611Y0269D01*
X04587D02*
X04583Y02694D01*
X04575D01*
X04571Y0269D01*
Y02686D01*
X04575Y02682D01*
X04579D01*
X04575D01*
X04571Y02678D01*
Y02674D01*
X04575Y0267D01*
X04583D01*
X04587Y02674D01*
X04935Y03725D02*
Y03749D01*
X04923D01*
X04919Y03745D01*
Y03737D01*
X04923Y03733D01*
X04935D01*
X04927D02*
X04919Y03725D01*
X04911Y03745D02*
X04907Y03749D01*
X04899D01*
X04895Y03745D01*
Y03741D01*
X04899Y03737D01*
X04903D01*
X04899D01*
X04895Y03733D01*
Y03729D01*
X04899Y03725D01*
X04907D01*
X04911Y03729D01*
X0465Y0389D02*
Y03914D01*
X04638D01*
X04634Y0391D01*
Y03902D01*
X04638Y03898D01*
X0465D01*
X04642D02*
X04634Y0389D01*
X0461Y03914D02*
X04618Y0391D01*
X04626Y03902D01*
Y03894D01*
X04622Y0389D01*
X04614D01*
X0461Y03894D01*
Y03898D01*
X04614Y03902D01*
X04626D01*
X0465Y03725D02*
Y03749D01*
X04638D01*
X04634Y03745D01*
Y03737D01*
X04638Y03733D01*
X0465D01*
X04642D02*
X04634Y03725D01*
X04626Y03749D02*
X0461D01*
Y03745D01*
X04626Y03729D01*
Y03725D01*
X0478Y0273D02*
Y02754D01*
X04768D01*
X04764Y0275D01*
Y02742D01*
X04768Y02738D01*
X0478D01*
X04772D02*
X04764Y0273D01*
X04756D02*
X04748D01*
X04752D01*
Y02754D01*
X04756Y0275D01*
X04736D02*
X04732Y02754D01*
X04724D01*
X0472Y0275D01*
Y02746D01*
X04724Y02742D01*
X04728D01*
X04724D01*
X0472Y02738D01*
Y02734D01*
X04724Y0273D01*
X04732D01*
X04736Y02734D01*
X05085Y03665D02*
Y03689D01*
X05073D01*
X05069Y03685D01*
Y03677D01*
X05073Y03673D01*
X05085D01*
X05077D02*
X05069Y03665D01*
X05061D02*
X05053D01*
X05057D01*
Y03689D01*
X05061Y03685D01*
X05029Y03665D02*
Y03689D01*
X05041Y03677D01*
X05025D01*
X0519Y03495D02*
Y03519D01*
X05178D01*
X05174Y03515D01*
Y03507D01*
X05178Y03503D01*
X0519D01*
X05182D02*
X05174Y03495D01*
X05166D02*
X05158D01*
X05162D01*
Y03519D01*
X05166Y03515D01*
X0513Y03519D02*
X05146D01*
Y03507D01*
X05138Y03511D01*
X05134D01*
X0513Y03507D01*
Y03499D01*
X05134Y03495D01*
X05142D01*
X05146Y03499D01*
X052Y0368D02*
Y03704D01*
X05188D01*
X05184Y037D01*
Y03692D01*
X05188Y03688D01*
X052D01*
X05192D02*
X05184Y0368D01*
X05176D02*
X05168D01*
X05172D01*
Y03704D01*
X05176Y037D01*
X0514Y03704D02*
X05148Y037D01*
X05156Y03692D01*
Y03684D01*
X05152Y0368D01*
X05144D01*
X0514Y03684D01*
Y03688D01*
X05144Y03692D01*
X05156D01*
X04885Y0367D02*
Y03694D01*
X04873D01*
X04869Y0369D01*
Y03682D01*
X04873Y03678D01*
X04885D01*
X04877D02*
X04869Y0367D01*
X04861D02*
X04853D01*
X04857D01*
Y03694D01*
X04861Y0369D01*
X04841Y03694D02*
X04825D01*
Y0369D01*
X04841Y03674D01*
Y0367D01*
M02*
