M48
;Layer_Color=9474304
;FILE_FORMAT=2:4
INCH,LZ
;TYPE=PLATED
T1F00S00C0.0120
T2F00S00C0.0180
T3F00S00C0.0276
T4F00S00C0.0340
T5F00S00C0.0354
T6F00S00C0.0360
T7F00S00C0.0390
T8F00S00C0.1260
%
T01
X04705Y0201
X04805
X04905
X05005
X04955Y0211
X04855
X04755
X04705Y0229
X047Y0239
X04835Y02395
Y02285
X0477Y0248
X05005Y0241
X05055Y0251
X05105Y0221
X05055Y0211
X04655
X04555
X04455
X04505Y0201
X04605
X04265Y02255
X04165Y02345
X0394Y0227
X03955Y0211
X04055
X04005Y0201
X03905
X03505
X03405
X03305
X03355Y0211
X03455
X03555
X03405Y0221
X03305
X03205
X03255Y0231
X03355
X03205Y0241
X03525
X0348Y02515
X03625Y02495
X03525Y0274
X05005Y0381
T02
X0469Y02515
X0483Y02665
X0472Y0278
X04575Y028969
X04445Y03045
X04405Y0308
X04335Y03085
X0438Y03025
X0421Y03015
X0419Y03115
X04125Y031
X04085Y03025
X04115Y02795
X04205Y0283
X04265Y0284
X0429Y02725
X04265Y0268
X04105Y0266
X0415Y02615
X04035Y027
X03985Y02835
X0381Y0274
X03705Y02895
X03635Y02875
X03795Y02425
X0375Y0231
X03835Y02235
X04305Y02465
X0457Y02475
X0449Y0261
X044124Y02775
X0437Y03145
X04295Y03235
X04245Y0321
X0423Y03265
Y0331
X04235Y0336
Y0342
X0427Y0345
X044Y03465
X04415Y0341
X0449Y03415
X0444Y0332
X0467Y03305
X04685Y0325
X0467Y0359
X04575Y036225
X04445Y0368
X04355Y0376
X04485Y0382
X04465Y039
X0421Y03615
X04125Y03625
X0405Y03615
X03995Y0356
X04075Y0332
X03495Y03365
X0383Y03765
X0475Y037
X0469Y03525
Y03175
X04715Y0313
X04775Y0317
X0509Y0337
X0507Y0345
X05215Y0351
X05225Y037
X0501Y03695
X05025Y03765
T03
X03935Y0258
Y0263
Y0268
T04
X03655Y0299
Y0319
T05
X0362Y02015
X0372
X0382
X04085
X04185
X04285
X04385
X0437Y04005
X0427
X04095
X03995
X03895
X03795
X03695
X03595
X03495
X03395
X0447
X0457
X0467
X0477
X0487
X0497
X0499Y03895
X0489
X0491Y0326
X0501
X0511
X0521
Y0315
X0511
X0501
X0491
T06
X0501Y0271
X05111
X05209
Y0282
X05111
X0501
Y0293
X05111
X05209
Y0304
X05111
X0501
X033488Y0301
X032488
X031498
X031488Y0291
X032488
X033488
Y02805
X032488
X031498
X031488Y02705
X032488
X033488
X033458Y026
X032448
X031468
X031488Y03115
X032488
X033488
Y032153
X032488Y03215
X031498
X03195Y0361
X03295
Y0371
Y03809
X03195Y0381
Y0371
T07
X04952Y022964
Y024736
X05208
Y022964
T08
X0516Y0208
X032
Y03975
X0516
M30
