G04 Layer_Physical_Order=4*
G04 Layer_Color=16711680*
%FSTAX24Y24*%
%MOIN*%
G70*
G01*
G75*
%ADD12R,0.0394X0.0433*%
%ADD18R,0.0374X0.0551*%
%ADD20R,0.0433X0.0618*%
%ADD21R,0.0618X0.0433*%
%ADD24R,0.0551X0.0374*%
%ADD33C,0.0100*%
%ADD34C,0.0240*%
%ADD36C,0.0070*%
%ADD40C,0.0540*%
%ADD44R,0.0591X0.0591*%
%ADD45C,0.0591*%
%ADD46O,0.0600X0.0860*%
%ADD47O,0.0650X0.0750*%
%ADD48C,0.0587*%
%ADD49C,0.0750*%
%ADD50C,0.1260*%
%ADD51O,0.0860X0.0600*%
%ADD52O,0.0787X0.0394*%
%ADD53O,0.0787X0.0394*%
%ADD54C,0.0280*%
%ADD55C,0.0380*%
%ADD56R,0.0433X0.0394*%
%ADD57C,0.0480*%
G36*
X047337Y031417D02*
X047328Y031407D01*
X04732Y031397D01*
X047313Y031386D01*
X047307Y031375D01*
X047301Y031364D01*
X047297Y031352D01*
X047294Y03134D01*
X047292Y031328D01*
X04729Y031315D01*
X04729Y031301D01*
X047151Y03144D01*
X047165Y03144D01*
X047178Y031442D01*
X04719Y031444D01*
X047202Y031447D01*
X047214Y031451D01*
X047225Y031457D01*
X047236Y031463D01*
X047247Y03147D01*
X047257Y031478D01*
X047267Y031487D01*
X047337Y031417D01*
D02*
G37*
G36*
X04381Y031539D02*
X04382Y031531D01*
X04383Y031524D01*
X043841Y031517D01*
X043852Y031512D01*
X043864Y031508D01*
X043876Y031504D01*
X043889Y031502D01*
X043901Y0315D01*
X043915Y0315D01*
Y0314D01*
X043901Y0314D01*
X043889Y031398D01*
X043876Y031396D01*
X043864Y031392D01*
X043852Y031388D01*
X043841Y031383D01*
X04383Y031376D01*
X04382Y031369D01*
X04381Y031361D01*
X0438Y031352D01*
Y031548D01*
X04381Y031539D01*
D02*
G37*
G36*
X050097Y031205D02*
X050055Y031204D01*
X049979Y031199D01*
X049945Y031194D01*
X049914Y031188D01*
X049886Y03118D01*
X049861Y031171D01*
X049839Y03116D01*
X04982Y031148D01*
X049804Y031134D01*
X049734Y031204D01*
X049748Y03122D01*
X04976Y031239D01*
X049771Y031261D01*
X04978Y031286D01*
X049788Y031314D01*
X049794Y031345D01*
X049799Y031379D01*
X049804Y031455D01*
X049805Y031497D01*
X050097Y031205D01*
D02*
G37*
G36*
X043243Y031028D02*
X043253Y03102D01*
X043264Y031013D01*
X043275Y031007D01*
X043286Y031001D01*
X043298Y030997D01*
X04331Y030994D01*
X043322Y030992D01*
X043335Y03099D01*
X043349Y03099D01*
X04321Y030851D01*
X04321Y030865D01*
X043208Y030878D01*
X043206Y03089D01*
X043203Y030902D01*
X043199Y030914D01*
X043193Y030925D01*
X043187Y030936D01*
X04318Y030947D01*
X043172Y030957D01*
X043163Y030967D01*
X043233Y031037D01*
X043243Y031028D01*
D02*
G37*
G36*
X04204Y031135D02*
X042042Y031122D01*
X042044Y03111D01*
X042047Y031098D01*
X042051Y031086D01*
X042057Y031075D01*
X042063Y031064D01*
X04207Y031053D01*
X042078Y031043D01*
X042087Y031033D01*
X042017Y030963D01*
X042007Y030972D01*
X041997Y03098D01*
X041986Y030987D01*
X041975Y030993D01*
X041964Y030999D01*
X041952Y031003D01*
X04194Y031006D01*
X041928Y031008D01*
X041915Y03101D01*
X041901Y03101D01*
X04204Y031149D01*
X04204Y031135D01*
D02*
G37*
G36*
X033794Y031535D02*
X033779Y03152D01*
X033766Y031505D01*
X033756Y031491D01*
X033748Y031478D01*
X033743Y031466D01*
X033739Y031455D01*
X033738Y031445D01*
X03374Y031436D01*
X033744Y031428D01*
X03375Y031421D01*
X033603Y031556D01*
X033611Y03155D01*
X033619Y031547D01*
X033629Y031546D01*
X033639Y031547D01*
X033651Y031551D01*
X033663Y031557D01*
X033676Y031565D01*
X03369Y031575D01*
X033705Y031588D01*
X03372Y031603D01*
X033794Y031535D01*
D02*
G37*
G36*
X047937Y031817D02*
X047928Y031807D01*
X04792Y031797D01*
X047913Y031786D01*
X047907Y031775D01*
X047901Y031764D01*
X047897Y031752D01*
X047894Y03174D01*
X047892Y031728D01*
X04789Y031715D01*
X04789Y031701D01*
X047751Y03184D01*
X047765Y03184D01*
X047778Y031842D01*
X04779Y031844D01*
X047802Y031847D01*
X047814Y031851D01*
X047825Y031857D01*
X047836Y031863D01*
X047847Y03187D01*
X047857Y031878D01*
X047867Y031887D01*
X047937Y031817D01*
D02*
G37*
G36*
X040529Y033301D02*
X040524Y033294D01*
X040515Y03325D01*
X04075D01*
Y03315D01*
X040515D01*
X040524Y033106D01*
X040577Y033027D01*
X040618Y032999D01*
X040625Y032935D01*
X039194Y031505D01*
X037028D01*
X037006Y03155D01*
X037052Y03161D01*
X03711Y03175D01*
X03713Y0319D01*
X03711Y03205D01*
X037071Y032145D01*
X037104Y032195D01*
X03915D01*
X039248Y032215D01*
X03933Y03227D01*
X040406Y033345D01*
X040505D01*
X040529Y033301D01*
D02*
G37*
G36*
X048605Y032579D02*
Y032325D01*
X048602Y032315D01*
X048603Y03231D01*
X048602Y032306D01*
X048605Y032292D01*
Y032105D01*
X048644D01*
X048647Y032045D01*
X048606Y031995D01*
X048605D01*
Y031808D01*
X048602Y031794D01*
X048603Y03179D01*
X048602Y031785D01*
X048605Y031775D01*
Y031205D01*
X047531D01*
X047487Y031255D01*
X04749Y03128D01*
X04753Y03132D01*
X047584Y031401D01*
X047661Y031369D01*
X04775Y031357D01*
X047839Y031369D01*
X047921Y031403D01*
X047992Y031458D01*
X048047Y031529D01*
X048081Y031611D01*
X04809Y03168D01*
X04833Y03192D01*
X048386Y032002D01*
X048405Y0321D01*
Y032444D01*
X048559Y032598D01*
X048605Y032579D01*
D02*
G37*
G36*
X051466Y031796D02*
X051452Y03178D01*
X05144Y031761D01*
X051429Y031739D01*
X05142Y031714D01*
X051412Y031686D01*
X051406Y031655D01*
X051401Y031621D01*
X051396Y031545D01*
X051395Y031503D01*
X051103Y031795D01*
X051145Y031796D01*
X051221Y031801D01*
X051255Y031806D01*
X051286Y031812D01*
X051314Y03182D01*
X051339Y031829D01*
X051361Y03184D01*
X05138Y031852D01*
X051396Y031866D01*
X051466Y031796D01*
D02*
G37*
G36*
X033764Y03034D02*
X033768Y030332D01*
X033775Y030324D01*
X033783Y030318D01*
X033794Y030312D01*
X033807Y030308D01*
X033822Y030304D01*
X033839Y030302D01*
X033858Y0303D01*
X033879Y0303D01*
X033888Y0302D01*
X033868Y030199D01*
X03385Y030198D01*
X033834Y030196D01*
X03382Y030192D01*
X033809Y030187D01*
X0338Y030182D01*
X033793Y030175D01*
X033789Y030168D01*
X033787Y030159D01*
X033787Y03015D01*
X033761Y030349D01*
X033764Y03034D01*
D02*
G37*
G36*
X0437Y030152D02*
X04369Y030161D01*
X04368Y030169D01*
X04367Y030176D01*
X043659Y030183D01*
X043648Y030188D01*
X043636Y030192D01*
X043624Y030196D01*
X043611Y030198D01*
X043599Y0302D01*
X043585Y0302D01*
Y0303D01*
X043599Y0303D01*
X043611Y030302D01*
X043624Y030304D01*
X043636Y030308D01*
X043648Y030312D01*
X043659Y030317D01*
X04367Y030324D01*
X04368Y030331D01*
X04369Y030339D01*
X0437Y030348D01*
Y030152D01*
D02*
G37*
G36*
X040939Y03014D02*
X040931Y03013D01*
X040924Y03012D01*
X040917Y030109D01*
X040912Y030098D01*
X040908Y030086D01*
X040904Y030074D01*
X040902Y030062D01*
X0409Y030049D01*
X0409Y030035D01*
X0408D01*
X0408Y030049D01*
X040798Y030062D01*
X040796Y030074D01*
X040792Y030086D01*
X040788Y030098D01*
X040783Y030109D01*
X040776Y03012D01*
X040769Y03013D01*
X040761Y03014D01*
X040752Y03015D01*
X040948D01*
X040939Y03014D01*
D02*
G37*
G36*
X052385Y030209D02*
X05238Y030183D01*
X052375Y030148D01*
X052368Y030048D01*
X052366Y029955D01*
X052391Y029475D01*
X051789D01*
X051795Y029491D01*
X0518Y029517D01*
X051805Y029552D01*
X051812Y029652D01*
X051814Y029745D01*
X051789Y030225D01*
X052391D01*
X052385Y030209D01*
D02*
G37*
G36*
X049641Y030085D02*
X049726Y029976D01*
X049835Y029891D01*
X049875Y029875D01*
Y029825D01*
X049835Y029809D01*
X049726Y029724D01*
X049641Y029615D01*
X049617Y029555D01*
X047356D01*
X046812Y030099D01*
X046831Y030145D01*
X049617D01*
X049641Y030085D01*
D02*
G37*
G36*
X04416Y030889D02*
X04417Y030881D01*
X04418Y030874D01*
X044191Y030867D01*
X044202Y030862D01*
X044214Y030858D01*
X044226Y030854D01*
X044239Y030852D01*
X044251Y03085D01*
X044265Y03085D01*
Y03075D01*
X044251Y03075D01*
X044239Y030748D01*
X044226Y030746D01*
X044214Y030742D01*
X044202Y030738D01*
X044191Y030733D01*
X04418Y030726D01*
X04417Y030719D01*
X04416Y030711D01*
X04415Y030702D01*
Y030898D01*
X04416Y030889D01*
D02*
G37*
G36*
X04139Y030985D02*
X041392Y030972D01*
X041394Y03096D01*
X041397Y030948D01*
X041401Y030936D01*
X041407Y030925D01*
X041413Y030914D01*
X04142Y030903D01*
X041428Y030893D01*
X041437Y030883D01*
X041367Y030813D01*
X041357Y030822D01*
X041347Y03083D01*
X041336Y030837D01*
X041325Y030843D01*
X041314Y030849D01*
X041302Y030853D01*
X04129Y030856D01*
X041278Y030858D01*
X041265Y03086D01*
X041251Y03086D01*
X04139Y030999D01*
X04139Y030985D01*
D02*
G37*
G36*
X05237Y031153D02*
X052391Y030575D01*
X051789D01*
X051797Y030594D01*
X051804Y030623D01*
X05181Y030661D01*
X05182Y030765D01*
X051828Y030989D01*
X05183Y031184D01*
X05237Y031153D01*
D02*
G37*
G36*
X049781Y0303D02*
X04978Y03031D01*
X049777Y030318D01*
X049771Y030326D01*
X049764Y030332D01*
X049754Y030338D01*
X049743Y030342D01*
X049729Y030346D01*
X049713Y030348D01*
X049695Y03035D01*
X049675Y03035D01*
Y03045D01*
X049695Y03045D01*
X049713Y030452D01*
X049729Y030454D01*
X049743Y030458D01*
X049754Y030462D01*
X049764Y030468D01*
X049771Y030474D01*
X049777Y030482D01*
X04978Y03049D01*
X049781Y0305D01*
Y0303D01*
D02*
G37*
G36*
X036029Y032145D02*
X03599Y03205D01*
X03597Y0319D01*
X03599Y03175D01*
X036048Y03161D01*
X036094Y03155D01*
X036072Y031505D01*
X0352D01*
X035102Y031486D01*
X03502Y03143D01*
X034094Y030505D01*
X033907D01*
X033844Y030587D01*
X033827Y0306D01*
Y03065D01*
X033844Y030663D01*
X033925Y030768D01*
X033975Y030889D01*
X033992Y03102D01*
Y03128D01*
X033975Y031411D01*
X03397Y031422D01*
X034743Y032195D01*
X035996D01*
X036029Y032145D01*
D02*
G37*
G36*
X046593Y033228D02*
X046603Y03322D01*
X046614Y033213D01*
X046625Y033207D01*
X046636Y033201D01*
X046648Y033197D01*
X04666Y033194D01*
X046672Y033192D01*
X046685Y03319D01*
X046699Y03319D01*
X04656Y033051D01*
X04656Y033065D01*
X046558Y033078D01*
X046556Y03309D01*
X046553Y033102D01*
X046549Y033114D01*
X046543Y033125D01*
X046537Y033136D01*
X04653Y033147D01*
X046522Y033157D01*
X046513Y033167D01*
X046583Y033237D01*
X046593Y033228D01*
D02*
G37*
G36*
X04225Y033502D02*
X04224Y033511D01*
X04223Y033519D01*
X04222Y033526D01*
X042209Y033533D01*
X042198Y033538D01*
X042186Y033542D01*
X042174Y033546D01*
X042161Y033548D01*
X042149Y03355D01*
X042135Y03355D01*
Y03365D01*
X042149Y03365D01*
X042161Y033652D01*
X042174Y033654D01*
X042186Y033658D01*
X042198Y033662D01*
X042209Y033667D01*
X04222Y033674D01*
X04223Y033681D01*
X04224Y033689D01*
X04225Y033698D01*
Y033502D01*
D02*
G37*
G36*
X04454Y033185D02*
X044542Y033172D01*
X044544Y03316D01*
X044547Y033148D01*
X044551Y033136D01*
X044557Y033125D01*
X044563Y033114D01*
X04457Y033103D01*
X044578Y033093D01*
X044587Y033083D01*
X044517Y033013D01*
X044507Y033022D01*
X044497Y03303D01*
X044486Y033037D01*
X044475Y033043D01*
X044464Y033049D01*
X044452Y033053D01*
X04444Y033056D01*
X044428Y033058D01*
X044415Y03306D01*
X044401Y03306D01*
X04454Y033199D01*
X04454Y033185D01*
D02*
G37*
G36*
X042196Y032825D02*
X042206Y032817D01*
X042216Y032809D01*
X042226Y032803D01*
X042235Y032797D01*
X042245Y032793D01*
X042254Y03279D01*
X042263Y032789D01*
X042272Y032788D01*
X04228Y032789D01*
X042161Y03267D01*
X042162Y032678D01*
X042161Y032687D01*
X04216Y032696D01*
X042157Y032705D01*
X042153Y032715D01*
X042147Y032724D01*
X042141Y032734D01*
X042133Y032744D01*
X042125Y032754D01*
X042115Y032765D01*
X042185Y032835D01*
X042196Y032825D01*
D02*
G37*
G36*
X0422Y033002D02*
X04219Y033011D01*
X04218Y033019D01*
X04217Y033026D01*
X042159Y033033D01*
X042148Y033038D01*
X042136Y033042D01*
X042124Y033046D01*
X042112Y033048D01*
X042099Y03305D01*
X042085Y03305D01*
Y03315D01*
X042099Y03315D01*
X042112Y033152D01*
X042124Y033154D01*
X042136Y033158D01*
X042148Y033162D01*
X042159Y033167D01*
X04217Y033174D01*
X04218Y033181D01*
X04219Y033189D01*
X0422Y033198D01*
Y033002D01*
D02*
G37*
G36*
X05245Y034815D02*
Y032987D01*
X0524Y032962D01*
X052337Y033011D01*
X052223Y033058D01*
X0521Y033074D01*
X051977Y033058D01*
X051905Y033028D01*
X051855Y033061D01*
Y0334D01*
X051835Y033498D01*
X05178Y03358D01*
X05148Y03388D01*
X051398Y033935D01*
X0513Y033955D01*
X051126D01*
X051071Y033997D01*
X050989Y034031D01*
X0509Y034043D01*
X050811Y034031D01*
X050729Y033997D01*
X050658Y033942D01*
X050603Y033871D01*
X050569Y033789D01*
X050557Y0337D01*
X050569Y033611D01*
X050603Y033529D01*
X050658Y033458D01*
X050729Y033403D01*
X050811Y033369D01*
X0509Y033357D01*
X050989Y033369D01*
X051071Y033403D01*
X051126Y033445D01*
X051194D01*
X051345Y033294D01*
Y03308D01*
X051304Y033052D01*
X051229Y033083D01*
X0511Y0331D01*
X050971Y033083D01*
X05085Y033033D01*
X050747Y032953D01*
X050667Y03285D01*
X050627Y032752D01*
X050573D01*
X050533Y03285D01*
X050453Y032953D01*
X05035Y033033D01*
X050229Y033083D01*
X0501Y0331D01*
X049971Y033083D01*
X04985Y033033D01*
X049747Y032953D01*
X049667Y03285D01*
X049645Y032796D01*
X049595Y032806D01*
Y033095D01*
X049121D01*
X049102Y033141D01*
X050338Y034377D01*
X050387Y034368D01*
X050403Y034329D01*
X050458Y034258D01*
X050529Y034203D01*
X050611Y034169D01*
X0507Y034157D01*
X050789Y034169D01*
X050871Y034203D01*
X050878Y034208D01*
X050928Y034183D01*
Y034153D01*
X052272D01*
Y034606D01*
X05233Y034664D01*
X052386Y034747D01*
X0524Y034819D01*
X05245Y034815D01*
D02*
G37*
G36*
X0431Y034395D02*
X043774D01*
X043829Y034353D01*
X043857Y034341D01*
X04387Y034293D01*
X043853Y034271D01*
X043819Y034189D01*
X043807Y0341D01*
X043819Y034011D01*
X043853Y033929D01*
X043908Y033858D01*
X043979Y033803D01*
X044061Y033769D01*
X04415Y033757D01*
X044239Y033769D01*
X044321Y033803D01*
X044392Y033858D01*
X044447Y033929D01*
X044481Y034011D01*
X044493Y0341D01*
X044481Y034189D01*
X044447Y034271D01*
X044446Y034273D01*
X044483Y034306D01*
X044567Y034223D01*
X044557Y03415D01*
X044569Y034061D01*
X044603Y033979D01*
X044658Y033908D01*
X044729Y033853D01*
X044811Y033819D01*
X0449Y033807D01*
X044989Y033819D01*
X045071Y033853D01*
X045142Y033908D01*
X045197Y033979D01*
X045231Y034061D01*
X045235Y034091D01*
X045283Y034107D01*
X04636Y03303D01*
X046369Y032961D01*
X046403Y032879D01*
X046458Y032808D01*
X046529Y032753D01*
X046557Y032741D01*
X04657Y032693D01*
X046553Y032671D01*
X046519Y032589D01*
X046507Y0325D01*
X046519Y032411D01*
X046553Y032329D01*
X046608Y032258D01*
X046679Y032203D01*
X046694Y032142D01*
X046665Y032098D01*
X046645Y032D01*
Y031976D01*
X046603Y031921D01*
X046569Y031839D01*
X046557Y03175D01*
X046569Y031661D01*
X046603Y031579D01*
X046658Y031508D01*
X046729Y031453D01*
X046787Y031429D01*
X046819Y031389D01*
X046807Y0313D01*
X04681Y031276D01*
X046773Y031232D01*
X046729Y031231D01*
X04474Y03322D01*
X044731Y033289D01*
X044697Y033371D01*
X044642Y033442D01*
X044571Y033497D01*
X044489Y033531D01*
X0444Y033543D01*
X044311Y033531D01*
X044229Y033497D01*
X044158Y033442D01*
X044103Y033371D01*
X044069Y033289D01*
X044057Y0332D01*
X044069Y033111D01*
X044103Y033029D01*
X044158Y032958D01*
X044229Y032903D01*
X044311Y032869D01*
X04438Y03286D01*
X044585Y032655D01*
X044564Y032605D01*
X043176D01*
X043121Y032647D01*
X043039Y032681D01*
X04295Y032693D01*
X042861Y032681D01*
X042779Y032647D01*
X042708Y032592D01*
X042681Y032558D01*
X042633Y032578D01*
X042643Y03265D01*
X042631Y032739D01*
X042597Y032821D01*
X042556Y032875D01*
X042597Y032929D01*
X042631Y033011D01*
X042643Y0331D01*
X042631Y033189D01*
X042597Y033271D01*
X042554Y033328D01*
X042592Y033358D01*
X042647Y033429D01*
X042681Y033511D01*
X042693Y0336D01*
X042681Y033689D01*
X042647Y033771D01*
X042592Y033842D01*
X042559Y033868D01*
Y033932D01*
X042592Y033958D01*
X042647Y034029D01*
X042681Y034111D01*
X042688Y034159D01*
X0427Y034157D01*
X042789Y034169D01*
X042871Y034203D01*
X042942Y034258D01*
X042997Y034329D01*
X04303Y034409D01*
X0431Y034395D01*
D02*
G37*
G36*
X04225Y034102D02*
X04224Y034111D01*
X04223Y034119D01*
X04222Y034126D01*
X042209Y034133D01*
X042198Y034138D01*
X042186Y034142D01*
X042174Y034146D01*
X042161Y034148D01*
X042149Y03415D01*
X042135Y03415D01*
Y03425D01*
X042149Y03425D01*
X042161Y034252D01*
X042174Y034254D01*
X042186Y034258D01*
X042198Y034262D01*
X042209Y034267D01*
X04222Y034274D01*
X04223Y034281D01*
X04224Y034289D01*
X04225Y034298D01*
Y034102D01*
D02*
G37*
G36*
X05101Y033789D02*
X05102Y033781D01*
X05103Y033774D01*
X051041Y033767D01*
X051052Y033762D01*
X051064Y033758D01*
X051076Y033754D01*
X051089Y033752D01*
X051101Y03375D01*
X051115Y03375D01*
Y03365D01*
X051101Y03365D01*
X051089Y033648D01*
X051076Y033646D01*
X051064Y033642D01*
X051052Y033638D01*
X051041Y033633D01*
X05103Y033626D01*
X05102Y033619D01*
X05101Y033611D01*
X051Y033602D01*
Y033798D01*
X05101Y033789D01*
D02*
G37*
G36*
X049793Y036784D02*
X049806Y036775D01*
X049858Y036708D01*
X049903Y036672D01*
Y035933D01*
Y035422D01*
X049995D01*
Y035106D01*
X048901Y034012D01*
X048855Y034031D01*
Y035322D01*
X048997D01*
Y035833D01*
Y036104D01*
X049048Y036114D01*
X04913Y03617D01*
X049752Y036792D01*
X049793Y036784D01*
D02*
G37*
G36*
X042003Y032479D02*
X042058Y032408D01*
X042129Y032353D01*
X042157Y032341D01*
X04217Y032293D01*
X042153Y032271D01*
X042119Y032189D01*
X042107Y0321D01*
X042113Y032055D01*
X042069Y032005D01*
X04095D01*
X040933Y032001D01*
X040908Y032048D01*
X041406Y032545D01*
X041975D01*
X042003Y032479D01*
D02*
G37*
G36*
X04256Y032189D02*
X04257Y032181D01*
X04258Y032174D01*
X042591Y032167D01*
X042602Y032162D01*
X042614Y032158D01*
X042626Y032154D01*
X042639Y032152D01*
X042651Y03215D01*
X042665Y03215D01*
Y03205D01*
X042651Y03205D01*
X042639Y032048D01*
X042626Y032046D01*
X042614Y032042D01*
X042602Y032038D01*
X042591Y032033D01*
X04258Y032026D01*
X04257Y032019D01*
X04256Y032011D01*
X04255Y032002D01*
Y032198D01*
X04256Y032189D01*
D02*
G37*
G36*
X04695Y031951D02*
X046952Y031939D01*
X046954Y031926D01*
X046958Y031914D01*
X046962Y031902D01*
X046967Y031891D01*
X046974Y03188D01*
X046981Y03187D01*
X046989Y03186D01*
X046998Y03185D01*
X046802D01*
X046811Y03186D01*
X046819Y03187D01*
X046826Y03188D01*
X046833Y031891D01*
X046838Y031902D01*
X046842Y031914D01*
X046846Y031926D01*
X046848Y031939D01*
X04685Y031951D01*
X04685Y031965D01*
X04695D01*
X04695Y031951D01*
D02*
G37*
G36*
X044438Y031751D02*
X044419Y031705D01*
X043926D01*
X043871Y031747D01*
X043789Y031781D01*
X0437Y031793D01*
X043611Y031781D01*
X043529Y031747D01*
X043458Y031692D01*
X043403Y031621D01*
X043369Y031539D01*
X043357Y03145D01*
X043369Y031361D01*
X043403Y031279D01*
X043433Y031239D01*
X04341Y031195D01*
X043367Y031194D01*
X042762Y031799D01*
X042781Y031845D01*
X044344D01*
X044438Y031751D01*
D02*
G37*
G36*
X049384Y032301D02*
X049375Y032287D01*
X049366Y032263D01*
X049359Y032229D01*
X049354Y032186D01*
X049346Y032089D01*
X049359Y031871D01*
X049366Y031837D01*
X049375Y031813D01*
X049384Y031799D01*
X049394Y031794D01*
X048806D01*
X048816Y031799D01*
X048825Y031813D01*
X048833Y031837D01*
X048841Y031871D01*
X048846Y031914D01*
X048854Y032011D01*
X048841Y032229D01*
X048833Y032263D01*
X048825Y032287D01*
X048816Y032301D01*
X048806Y032306D01*
X049394D01*
X049384Y032301D01*
D02*
G37*
G36*
X033845Y032439D02*
X033829Y032423D01*
X033805Y032392D01*
X033795Y032378D01*
X033788Y032365D01*
X033783Y032352D01*
X03378Y03234D01*
X03378Y032329D01*
X033781Y032318D01*
X033784Y032309D01*
X033693Y032499D01*
X033698Y032491D01*
X033705Y032485D01*
X033712Y032482D01*
X033721Y032482D01*
X033731Y032484D01*
X033742Y032488D01*
X033754Y032496D01*
X033767Y032506D01*
X033782Y032518D01*
X033798Y032533D01*
X033845Y032439D01*
D02*
G37*
G36*
X047045Y032524D02*
X047035Y032514D01*
X046995Y032468D01*
X046989Y032459D01*
X046979Y032444D01*
X046975Y032436D01*
X046922Y03262D01*
X046932Y032615D01*
X046941Y032612D01*
X046951Y03261D01*
X046961Y03261D01*
X046971Y032611D01*
X046981Y032614D01*
X046991Y032619D01*
X047001Y032625D01*
X047012Y032633D01*
X047022Y032643D01*
X047045Y032524D01*
D02*
G37*
G36*
X04306Y032439D02*
X04307Y032431D01*
X04308Y032424D01*
X043091Y032417D01*
X043102Y032412D01*
X043114Y032408D01*
X043126Y032404D01*
X043138Y032402D01*
X043151Y0324D01*
X043165Y0324D01*
Y0323D01*
X043151Y0323D01*
X043138Y032298D01*
X043126Y032296D01*
X043114Y032292D01*
X043102Y032288D01*
X043091Y032283D01*
X04308Y032276D01*
X04307Y032269D01*
X04306Y032261D01*
X04305Y032252D01*
Y032448D01*
X04306Y032439D01*
D02*
G37*
G36*
X033477Y032243D02*
X033482Y032234D01*
X033488Y032227D01*
X033497Y032221D01*
X033508Y032215D01*
X03352Y032211D01*
X033535Y032207D01*
X033552Y032205D01*
X033571Y032203D01*
X033593Y032203D01*
X033602Y032103D01*
X033581Y032102D01*
X033563Y032101D01*
X033547Y032098D01*
X033534Y032095D01*
X033523Y03209D01*
X033514Y032085D01*
X033507Y032078D01*
X033503Y032071D01*
X0335Y032062D01*
X033501Y032053D01*
X033475Y032252D01*
X033477Y032243D01*
D02*
G37*
G36*
X050667Y03235D02*
X050747Y032247D01*
X05085Y032167D01*
X050971Y032117D01*
X0511Y0321D01*
X051229Y032117D01*
X051263Y032132D01*
X051316Y032099D01*
X051318Y032079D01*
X051255Y032016D01*
X05125Y032014D01*
X051237Y03201D01*
X05122Y032007D01*
X0512Y032004D01*
X051138Y031999D01*
X051103Y031999D01*
X0511Y032D01*
X050971Y031983D01*
X05085Y031933D01*
X050747Y031853D01*
X050667Y03175D01*
X050627Y031652D01*
X050573D01*
X050533Y03175D01*
X050453Y031853D01*
X05035Y031933D01*
X050229Y031983D01*
X0501Y032D01*
X049971Y031983D01*
X04985Y031933D01*
X049747Y031853D01*
X049667Y03175D01*
X049645Y031696D01*
X049595Y031706D01*
Y031775D01*
X049598Y031785D01*
X049597Y03179D01*
X049598Y031794D01*
X049595Y031808D01*
Y031995D01*
X049556D01*
X049553Y032055D01*
X049594Y032105D01*
X049595D01*
Y032292D01*
X049598Y032306D01*
X049597Y03231D01*
X049598Y032315D01*
X049595Y032325D01*
Y032394D01*
X049645Y032404D01*
X049667Y03235D01*
X049747Y032247D01*
X04985Y032167D01*
X049971Y032117D01*
X0501Y0321D01*
X050229Y032117D01*
X05035Y032167D01*
X050453Y032247D01*
X050533Y03235D01*
X050573Y032448D01*
X050627D01*
X050667Y03235D01*
D02*
G37*
G36*
X051399Y030199D02*
X051389Y030166D01*
X05138Y030126D01*
X051372Y030079D01*
X05136Y029965D01*
X051355Y029882D01*
X051372Y029621D01*
X05138Y029574D01*
X051389Y029534D01*
X051399Y029501D01*
X051411Y029475D01*
X050809D01*
X050821Y029501D01*
X050831Y029534D01*
X05084Y029574D01*
X050848Y029621D01*
X05086Y029735D01*
X050865Y029818D01*
X050848Y030079D01*
X05084Y030126D01*
X050831Y030166D01*
X050821Y030199D01*
X050809Y030225D01*
X051411D01*
X051399Y030199D01*
D02*
G37*
G36*
X047774Y027015D02*
X047777Y027006D01*
X047782Y026999D01*
X047789Y026992D01*
X047798Y026987D01*
X04781Y026982D01*
X047823Y026979D01*
X047838Y026976D01*
X047855Y026975D01*
X047874Y026974D01*
Y026874D01*
X047855Y026874D01*
X047838Y026872D01*
X047823Y02687D01*
X04781Y026866D01*
X047798Y026862D01*
X047789Y026856D01*
X047782Y02685D01*
X047777Y026842D01*
X047774Y026834D01*
X047773Y026824D01*
Y027024D01*
X047774Y027015D01*
D02*
G37*
G36*
X039804Y026933D02*
X039787Y026916D01*
X039761Y026884D01*
X039752Y02687D01*
X039744Y026856D01*
X039739Y026844D01*
X039737Y026832D01*
X039736Y026821D01*
X039738Y026811D01*
X039743Y026802D01*
X039634Y026974D01*
X03964Y026967D01*
X039647Y026962D01*
X039655Y02696D01*
X039665Y026961D01*
X039676Y026964D01*
X039688Y02697D01*
X039701Y026978D01*
X039715Y026989D01*
X039731Y027002D01*
X039747Y027018D01*
X039804Y026933D01*
D02*
G37*
G36*
X040908Y027708D02*
X040979Y027653D01*
X041061Y027619D01*
X04115Y027607D01*
X041239Y027619D01*
X041254Y027625D01*
X041295Y027597D01*
Y026904D01*
X041245Y026879D01*
X041221Y026897D01*
X041139Y026931D01*
X04105Y026943D01*
X040961Y026931D01*
X040879Y026897D01*
X040808Y026842D01*
X040753Y026771D01*
X040719Y026689D01*
X040707Y0266D01*
X040719Y026511D01*
X040753Y026429D01*
X040808Y026358D01*
X040879Y026303D01*
X040961Y026269D01*
X04105Y026257D01*
X041126Y026267D01*
X041146Y026254D01*
X041154Y026246D01*
X041167Y026226D01*
X041157Y02615D01*
X041169Y026061D01*
X041203Y025979D01*
X041258Y025908D01*
X041329Y025853D01*
X041411Y025819D01*
X0415Y025807D01*
X041589Y025819D01*
X041671Y025853D01*
X041742Y025908D01*
X041797Y025979D01*
X041831Y026061D01*
X041835Y026091D01*
X041883Y026107D01*
X042458Y025532D01*
X04254Y025477D01*
X042638Y025457D01*
X045541D01*
Y025296D01*
X046538D01*
X046574Y025252D01*
X046569Y025239D01*
X046557Y02515D01*
X046569Y025061D01*
X046603Y024979D01*
X046658Y024908D01*
X046729Y024853D01*
X046811Y024819D01*
X0469Y024807D01*
X046989Y024819D01*
X047071Y024853D01*
X047142Y024908D01*
X047197Y024979D01*
X047231Y025061D01*
X047243Y02515D01*
X047231Y025239D01*
X047197Y025321D01*
X047147Y025386D01*
X047152Y025416D01*
X047162Y02544D01*
X047235Y02547D01*
X047302Y025522D01*
X047451Y025671D01*
X047456Y025674D01*
X047498Y025714D01*
X047533Y025745D01*
X047564Y02577D01*
X047589Y025787D01*
X047593Y025789D01*
X047645D01*
X047652Y025787D01*
X04766Y025789D01*
X047761D01*
X047774Y025786D01*
X047788Y025789D01*
X047955D01*
X048959Y024785D01*
X048961Y024781D01*
X048978Y024763D01*
X048989Y02475D01*
X048999Y024738D01*
X049006Y024726D01*
X049013Y024716D01*
X049017Y024706D01*
X049021Y024697D01*
X049024Y024689D01*
X049026Y024681D01*
X049028Y024665D01*
X049034Y02465D01*
X04904Y024607D01*
X04909Y024487D01*
X049169Y024384D01*
X049272Y024305D01*
X049392Y024255D01*
X04952Y024238D01*
X049649Y024255D01*
X049769Y024305D01*
X049872Y024384D01*
X049951Y024487D01*
X050001Y024607D01*
X050018Y024736D01*
X050001Y024865D01*
X049951Y024985D01*
X049872Y025088D01*
X049769Y025167D01*
X049649Y025216D01*
X04952Y025233D01*
X049475Y025227D01*
X049459Y025229D01*
X049446Y025228D01*
X049445Y025228D01*
X049444Y025228D01*
X049442Y025228D01*
X049439Y025229D01*
X049435Y025232D01*
X049428Y025235D01*
X049419Y025241D01*
X049409Y02525D01*
X049393Y025265D01*
X049389Y025268D01*
X048384Y026273D01*
X048403Y026325D01*
X048471Y026353D01*
X048542Y026408D01*
X048597Y026479D01*
X048631Y026561D01*
X048643Y02665D01*
X048631Y026739D01*
X048608Y026795D01*
X048639Y026845D01*
X049617D01*
X049641Y026785D01*
X049726Y026676D01*
X049835Y026591D01*
X049963Y026539D01*
X0501Y02652D01*
X050237Y026539D01*
X050365Y026591D01*
X050474Y026676D01*
X050559Y026785D01*
X05058Y026837D01*
X05063D01*
X050651Y026785D01*
X050736Y026676D01*
X050845Y026591D01*
X050973Y026539D01*
X05111Y02652D01*
X051247Y026539D01*
X051375Y026591D01*
X051484Y026676D01*
X051569Y026785D01*
X051613Y026893D01*
X051667D01*
X051679Y026863D01*
X051755Y026765D01*
X051853Y026689D01*
X051872Y026682D01*
X051876Y026679D01*
X051979Y026636D01*
X05204Y026628D01*
Y0271D01*
X05214D01*
Y026628D01*
X052201Y026636D01*
X052304Y026679D01*
X052308Y026682D01*
X052327Y026689D01*
X0524Y026745D01*
X05245Y026721D01*
Y025136D01*
X0524Y025112D01*
X052328Y025167D01*
X052208Y025216D01*
X05208Y025233D01*
X051951Y025216D01*
X051831Y025167D01*
X051728Y025088D01*
X051649Y024985D01*
X051599Y024865D01*
X051582Y024736D01*
X051599Y024607D01*
X051649Y024487D01*
X051728Y024384D01*
X051831Y024305D01*
X051951Y024255D01*
X05208Y024238D01*
X052208Y024255D01*
X052328Y024305D01*
X0524Y02436D01*
X05245Y024335D01*
Y023365D01*
X0524Y02334D01*
X052328Y023395D01*
X052208Y023445D01*
X05208Y023462D01*
X051951Y023445D01*
X051831Y023395D01*
X051728Y023316D01*
X051649Y023213D01*
X051599Y023093D01*
X051582Y022964D01*
X051599Y022835D01*
X051649Y022715D01*
X051728Y022612D01*
X051831Y022533D01*
X051951Y022484D01*
X05208Y022467D01*
X052208Y022484D01*
X052328Y022533D01*
X0524Y022588D01*
X05245Y022564D01*
Y021029D01*
X0524Y021022D01*
X052371Y021119D01*
X052293Y021263D01*
X05219Y02139D01*
X052063Y021493D01*
X051919Y021571D01*
X051763Y021618D01*
X0516Y021634D01*
X051437Y021618D01*
X051281Y021571D01*
X051137Y021493D01*
X05101Y02139D01*
X050907Y021263D01*
X050839Y021136D01*
X050786Y021144D01*
X050776Y021194D01*
X050723Y021273D01*
X050644Y021326D01*
X0506Y021335D01*
Y0211D01*
Y020865D01*
X050644Y020874D01*
X050723Y020927D01*
X050729Y020936D01*
X050778Y020919D01*
X050766Y0208D01*
X050782Y020637D01*
X050829Y020481D01*
X050907Y020337D01*
X05101Y02021D01*
X051137Y020107D01*
X051281Y020029D01*
X051437Y019982D01*
X0516Y019966D01*
X051763Y019982D01*
X051919Y020029D01*
X052063Y020107D01*
X05219Y02021D01*
X052293Y020337D01*
X052371Y020481D01*
X0524Y020578D01*
X05245Y020571D01*
Y019805D01*
X044345D01*
Y020645D01*
X043355D01*
Y020356D01*
X043305Y020346D01*
X043283Y0204D01*
X043203Y020503D01*
X043201Y020505D01*
X043176Y02053D01*
X043135Y020577D01*
X043123Y020593D01*
X043114Y020608D01*
X043107Y020619D01*
X043105Y020624D01*
Y02095D01*
X043085Y021048D01*
X04303Y02113D01*
X038555Y025606D01*
Y026744D01*
X038716Y026906D01*
X038764Y026883D01*
X038753Y0268D01*
X038767Y026696D01*
X038807Y0266D01*
X038845Y02655D01*
X038807Y0265D01*
X038767Y026404D01*
X038753Y0263D01*
X038767Y026196D01*
X038807Y0261D01*
X03887Y026017D01*
X038918Y025981D01*
X038894Y02595D01*
X038864Y025877D01*
X03886Y02585D01*
X03984D01*
X039836Y025877D01*
X039806Y02595D01*
X039782Y025981D01*
X03983Y026017D01*
X039894Y0261D01*
X039933Y026196D01*
X039947Y0263D01*
X039933Y026404D01*
X039894Y0265D01*
X039855Y02655D01*
X039894Y0266D01*
X039933Y026696D01*
X039941Y026757D01*
X039942Y026758D01*
X039942Y026758D01*
X039945Y026785D01*
X040075Y026915D01*
X040129Y026898D01*
X040177Y026827D01*
X040256Y026774D01*
X0403Y026765D01*
Y027D01*
X04035D01*
Y02705D01*
X040585D01*
X040576Y027094D01*
X040523Y027173D01*
X040452Y027221D01*
X040435Y027275D01*
X04087Y02771D01*
X040908Y027708D01*
D02*
G37*
G36*
X0461Y026634D02*
X046103Y026606D01*
X046106Y026595D01*
X046109Y026586D01*
X046112Y026578D01*
X046117Y026572D01*
X046122Y026568D01*
X046128Y026565D01*
X046135Y026564D01*
X045965D01*
X045972Y026565D01*
X045978Y026568D01*
X045983Y026572D01*
X045988Y026578D01*
X045991Y026586D01*
X045994Y026595D01*
X045997Y026606D01*
X045999Y026619D01*
X046Y026634D01*
X046Y02665D01*
X0461D01*
X0461Y026634D01*
D02*
G37*
G36*
X048232Y026839D02*
X048242Y026831D01*
X048252Y026823D01*
X048262Y026816D01*
X048273Y02681D01*
X048285Y026804D01*
X048296Y026798D01*
X048309Y026794D01*
X048321Y026789D01*
X048334Y026786D01*
X048165Y026687D01*
X048168Y026699D01*
X048169Y026711D01*
X048169Y026722D01*
X048168Y026734D01*
X048165Y026745D01*
X048161Y026756D01*
X048156Y026767D01*
X048149Y026777D01*
X048141Y026787D01*
X048132Y026797D01*
X048222Y026848D01*
X048232Y026839D01*
D02*
G37*
G36*
X051399Y027999D02*
X051389Y027966D01*
X05138Y027926D01*
X051372Y027879D01*
X05136Y027765D01*
X051355Y027682D01*
X051372Y027421D01*
X05138Y027374D01*
X051389Y027334D01*
X051399Y027301D01*
X051411Y027275D01*
X050809D01*
X050821Y027301D01*
X050831Y027334D01*
X05084Y027374D01*
X050848Y027421D01*
X05086Y027535D01*
X050865Y027618D01*
X050848Y027879D01*
X05084Y027926D01*
X050831Y027966D01*
X050821Y027999D01*
X050809Y028025D01*
X051411D01*
X051399Y027999D01*
D02*
G37*
G36*
X052385Y028009D02*
X05238Y027983D01*
X052375Y027948D01*
X052368Y027848D01*
X052366Y027755D01*
X052391Y027275D01*
X051789D01*
X051795Y027291D01*
X0518Y027317D01*
X051805Y027352D01*
X051812Y027452D01*
X051814Y027545D01*
X051789Y028025D01*
X052391D01*
X052385Y028009D01*
D02*
G37*
G36*
X038099Y02726D02*
X038085Y02726D01*
X038072Y027258D01*
X03806Y027256D01*
X038048Y027253D01*
X038036Y027249D01*
X038025Y027243D01*
X038014Y027237D01*
X038003Y02723D01*
X037993Y027222D01*
X037983Y027213D01*
X037913Y027283D01*
X037922Y027293D01*
X03793Y027303D01*
X037937Y027314D01*
X037943Y027325D01*
X037949Y027336D01*
X037953Y027348D01*
X037956Y02736D01*
X037958Y027372D01*
X03796Y027385D01*
X03796Y027399D01*
X038099Y02726D01*
D02*
G37*
G36*
X049781Y027D02*
X04978Y02701D01*
X049777Y027018D01*
X049771Y027026D01*
X049764Y027032D01*
X049754Y027038D01*
X049743Y027042D01*
X049729Y027046D01*
X049713Y027048D01*
X049695Y02705D01*
X049675Y02705D01*
Y02715D01*
X049695Y02715D01*
X049713Y027152D01*
X049729Y027154D01*
X049743Y027158D01*
X049754Y027162D01*
X049764Y027168D01*
X049771Y027174D01*
X049777Y027182D01*
X04978Y02719D01*
X049781Y0272D01*
Y027D01*
D02*
G37*
G36*
X033764Y02729D02*
X033768Y027282D01*
X033775Y027274D01*
X033783Y027268D01*
X033794Y027262D01*
X033807Y027258D01*
X033822Y027254D01*
X033839Y027252D01*
X033858Y02725D01*
X033879Y02725D01*
X033888Y02715D01*
X033868Y02715D01*
X03385Y027148D01*
X033834Y027146D01*
X03382Y027142D01*
X033809Y027137D01*
X0338Y027132D01*
X033793Y027125D01*
X033789Y027118D01*
X033787Y027109D01*
X033787Y0271D01*
X033761Y027299D01*
X033764Y02729D01*
D02*
G37*
G36*
X042902Y020597D02*
X042906Y020575D01*
X042914Y020551D01*
X042925Y020527D01*
X042939Y020502D01*
X042956Y020476D01*
X042977Y020449D01*
X043027Y020391D01*
X043057Y020361D01*
X042643D01*
X042673Y020391D01*
X042723Y020449D01*
X042744Y020476D01*
X042761Y020502D01*
X042775Y020527D01*
X042786Y020551D01*
X042794Y020575D01*
X042798Y020597D01*
X0428Y020618D01*
X0429D01*
X042902Y020597D01*
D02*
G37*
G36*
X041902D02*
X041906Y020575D01*
X041914Y020551D01*
X041925Y020527D01*
X041939Y020502D01*
X041956Y020476D01*
X041977Y020449D01*
X042027Y020391D01*
X042057Y020361D01*
X041643D01*
X041673Y020391D01*
X041723Y020449D01*
X041744Y020476D01*
X041761Y020502D01*
X041775Y020527D01*
X041786Y020551D01*
X041794Y020575D01*
X041798Y020597D01*
X0418Y020618D01*
X0419D01*
X041902Y020597D01*
D02*
G37*
G36*
X037525Y020425D02*
X037511Y02041D01*
X0375Y020394D01*
X037491Y020377D01*
X037484Y020358D01*
X037479Y020339D01*
X037476Y020318D01*
X037476Y020296D01*
X037477Y020273D01*
X03748Y020249D01*
X037486Y020223D01*
X037273Y020436D01*
X037299Y02043D01*
X037323Y020427D01*
X037346Y020426D01*
X037368Y020426D01*
X037389Y020429D01*
X037408Y020434D01*
X037427Y020441D01*
X037444Y02045D01*
X03746Y020461D01*
X037475Y020475D01*
X037525Y020425D01*
D02*
G37*
G36*
X037586Y022988D02*
X037566Y022963D01*
X037558Y022951D01*
X037551Y022939D01*
X037545Y022927D01*
X037541Y022915D01*
X037538Y022904D01*
X037536Y022892D01*
X037535Y02288D01*
X037465D01*
X037464Y022892D01*
X037462Y022904D01*
X037459Y022915D01*
X037455Y022927D01*
X037449Y022939D01*
X037442Y022951D01*
X037434Y022963D01*
X037425Y022975D01*
X037414Y022988D01*
X037402Y023D01*
X037598D01*
X037586Y022988D01*
D02*
G37*
G36*
X049275Y025096D02*
X049297Y025078D01*
X049319Y025063D01*
X049341Y02505D01*
X049363Y02504D01*
X049386Y025032D01*
X049408Y025027D01*
X049431Y025024D01*
X049454Y025024D01*
X049478Y025026D01*
X049229Y024699D01*
X049226Y024722D01*
X04922Y024745D01*
X049212Y024768D01*
X049203Y02479D01*
X049192Y024813D01*
X049179Y024835D01*
X049164Y024857D01*
X049148Y024878D01*
X049129Y0249D01*
X049109Y024921D01*
X049253Y025116D01*
X049275Y025096D01*
D02*
G37*
G36*
X047777Y026349D02*
X047784Y026338D01*
X047796Y026328D01*
X047813Y02632D01*
X047834Y026312D01*
X047861Y026307D01*
X047892Y026302D01*
X047928Y026299D01*
X048014Y026296D01*
Y026056D01*
X047969Y026055D01*
X047892Y02605D01*
X047861Y026045D01*
X047834Y02604D01*
X047813Y026032D01*
X047796Y026024D01*
X047784Y026014D01*
X047777Y026003D01*
X047774Y02599D01*
Y026362D01*
X047777Y026349D01*
D02*
G37*
G36*
X047654Y025991D02*
X047631Y026001D01*
X047606Y026004D01*
X047578Y026002D01*
X047548Y025994D01*
X047516Y02598D01*
X04748Y02596D01*
X047443Y025934D01*
X047402Y025902D01*
X04736Y025864D01*
X047314Y02582D01*
X047056Y025902D01*
X047108Y025955D01*
X047188Y026049D01*
X047216Y026089D01*
X047237Y026125D01*
X04725Y026157D01*
X047256Y026184D01*
X047254Y026208D01*
X047244Y026226D01*
X047227Y026241D01*
X047654Y025991D01*
D02*
G37*
G36*
X045743Y025763D02*
X045745Y025763D01*
X045882Y025771D01*
X045906Y025775D01*
X045927Y025779D01*
X045943Y025785D01*
X045956Y02579D01*
X045965Y025797D01*
Y025627D01*
X045956Y025634D01*
X045943Y02564D01*
X045927Y025645D01*
X045906Y02565D01*
X045882Y025653D01*
X045821Y025659D01*
X045745Y025662D01*
X045743Y025662D01*
Y025612D01*
X045742Y025622D01*
X045739Y02563D01*
X045734Y025638D01*
X045727Y025644D01*
X045718Y02565D01*
X045707Y025654D01*
X045694Y025658D01*
X045679Y02566D01*
X045661Y025662D01*
X045642Y025662D01*
Y025762D01*
X045661Y025763D01*
X045679Y025764D01*
X045694Y025767D01*
X045707Y02577D01*
X045718Y025775D01*
X045727Y02578D01*
X045734Y025787D01*
X045739Y025794D01*
X045742Y025803D01*
X045743Y025812D01*
Y025763D01*
D02*
G37*
G36*
X03812Y02532D02*
X042595Y020844D01*
Y020624D01*
X042593Y020619D01*
X042586Y020608D01*
X042577Y020593D01*
X042565Y020577D01*
X042523Y02053D01*
X042499Y020505D01*
X042497Y020503D01*
X042417Y0204D01*
X042377Y020302D01*
X042323D01*
X042283Y0204D01*
X042203Y020503D01*
X042201Y020505D01*
X042176Y02053D01*
X042135Y020577D01*
X042123Y020593D01*
X042114Y020608D01*
X042107Y020619D01*
X042105Y020624D01*
Y021D01*
X042085Y021098D01*
X04203Y02118D01*
X038055Y025156D01*
Y025327D01*
X038105Y025342D01*
X03812Y02532D01*
D02*
G37*
G36*
X04636Y025917D02*
X046367Y025907D01*
X046379Y025898D01*
X046396Y025891D01*
X046418Y025884D01*
X046444Y025879D01*
X046475Y025875D01*
X046552Y025871D01*
X046598Y02587D01*
Y02563D01*
X046552Y025629D01*
X046511Y025625D01*
X046475Y025619D01*
X046444Y025611D01*
X046417Y0256D01*
X046395Y025587D01*
X046379Y025571D01*
X046366Y025553D01*
X046359Y025533D01*
X046357Y02551D01*
X046358Y025928D01*
X04636Y025917D01*
D02*
G37*
G36*
X0427Y028601D02*
X042702Y028589D01*
X042704Y028576D01*
X042708Y028564D01*
X042712Y028552D01*
X042717Y028541D01*
X042724Y02853D01*
X042731Y02852D01*
X042739Y02851D01*
X042748Y0285D01*
X042552D01*
X042561Y02851D01*
X042569Y02852D01*
X042576Y02853D01*
X042583Y028541D01*
X042588Y028552D01*
X042592Y028564D01*
X042596Y028576D01*
X042598Y028589D01*
X0426Y028601D01*
X0426Y028615D01*
X0427D01*
X0427Y028601D01*
D02*
G37*
G36*
X045666Y029155D02*
X045676Y029147D01*
X045687Y029139D01*
X045698Y029132D01*
X045709Y029126D01*
X04572Y029121D01*
X045732Y029116D01*
X045745Y029112D01*
X045758Y029109D01*
X045771Y029107D01*
X045612Y028992D01*
X045614Y029005D01*
X045614Y029017D01*
X045613Y029029D01*
X045611Y029041D01*
X045608Y029053D01*
X045604Y029064D01*
X045598Y029075D01*
X045591Y029085D01*
X045583Y029095D01*
X045574Y029105D01*
X045657Y029164D01*
X045666Y029155D01*
D02*
G37*
G36*
X033794Y028435D02*
X033779Y02842D01*
X033766Y028405D01*
X033756Y028391D01*
X033748Y028378D01*
X033743Y028366D01*
X033739Y028355D01*
X033738Y028345D01*
X03374Y028336D01*
X033744Y028328D01*
X03375Y028321D01*
X033603Y028456D01*
X033611Y02845D01*
X033619Y028447D01*
X033629Y028446D01*
X033639Y028447D01*
X033651Y028451D01*
X033663Y028457D01*
X033676Y028465D01*
X03369Y028475D01*
X033705Y028488D01*
X03372Y028503D01*
X033794Y028435D01*
D02*
G37*
G36*
X052385Y029109D02*
X05238Y029083D01*
X052375Y029048D01*
X052368Y028948D01*
X052366Y028855D01*
X052391Y028375D01*
X051789D01*
X051795Y028391D01*
X0518Y028417D01*
X051805Y028452D01*
X051812Y028552D01*
X051814Y028645D01*
X051789Y029125D01*
X052391D01*
X052385Y029109D01*
D02*
G37*
G36*
X0421Y028501D02*
X042102Y028489D01*
X042104Y028476D01*
X042108Y028464D01*
X042112Y028452D01*
X042117Y028441D01*
X042124Y02843D01*
X042131Y02842D01*
X042139Y02841D01*
X042148Y0284D01*
X041952D01*
X041961Y02841D01*
X041969Y02842D01*
X041976Y02843D01*
X041983Y028441D01*
X041988Y028452D01*
X041992Y028464D01*
X041996Y028476D01*
X041998Y028489D01*
X042Y028501D01*
X042Y028515D01*
X0421D01*
X0421Y028501D01*
D02*
G37*
G36*
X039738Y030399D02*
X037894Y028555D01*
X036568D01*
X036542Y028605D01*
X036576Y028656D01*
X036585Y0287D01*
X036115D01*
X036124Y028656D01*
X036158Y028605D01*
X036132Y028555D01*
X034588D01*
X03449Y028535D01*
X034408Y02848D01*
X034138Y02821D01*
X034086Y028229D01*
X034082Y028269D01*
X034074Y028296D01*
X034069Y028324D01*
X034063Y028334D01*
X034059Y028345D01*
X034042Y028367D01*
X034031Y028383D01*
X036093Y030445D01*
X036241D01*
X036251Y030395D01*
X03614Y03031D01*
X036048Y03019D01*
X03599Y03005D01*
X03597Y0299D01*
X03599Y02975D01*
X036048Y02961D01*
X03614Y02949D01*
X03626Y029398D01*
X0364Y02934D01*
X03655Y02932D01*
X0367Y02934D01*
X03684Y029398D01*
X03696Y02949D01*
X037052Y02961D01*
X03711Y02975D01*
X03713Y0299D01*
X03711Y03005D01*
X037052Y03019D01*
X03696Y03031D01*
X036849Y030395D01*
X036859Y030445D01*
X039719D01*
X039738Y030399D01*
D02*
G37*
G36*
X033819Y029448D02*
X033804Y029432D01*
X033791Y029417D01*
X03378Y029403D01*
X033772Y02939D01*
X033766Y029378D01*
X033762Y029366D01*
X03376Y029355D01*
X033761Y029346D01*
X033764Y029337D01*
X033769Y029328D01*
X033643Y029484D01*
X03365Y029478D01*
X033658Y029474D01*
X033667Y029472D01*
X033676Y029472D01*
X033687Y029475D01*
X033699Y029481D01*
X033711Y029488D01*
X033725Y029498D01*
X03374Y029511D01*
X033755Y029526D01*
X033819Y029448D01*
D02*
G37*
G36*
X049781Y0292D02*
X04978Y02921D01*
X049777Y029218D01*
X049771Y029226D01*
X049764Y029232D01*
X049754Y029238D01*
X049743Y029242D01*
X049729Y029246D01*
X049713Y029248D01*
X049695Y029249D01*
X049675Y02925D01*
Y02935D01*
X049695Y029351D01*
X049713Y029352D01*
X049729Y029354D01*
X049743Y029358D01*
X049754Y029362D01*
X049764Y029368D01*
X049771Y029374D01*
X049777Y029382D01*
X04978Y02939D01*
X049781Y0294D01*
Y0292D01*
D02*
G37*
G36*
X035626Y030699D02*
X034038Y029111D01*
X033992Y02913D01*
Y02923D01*
X03398Y02932D01*
X035406Y030745D01*
X035607D01*
X035626Y030699D01*
D02*
G37*
G36*
X045466Y029412D02*
X045468Y029398D01*
X045472Y029384D01*
X045477Y02937D01*
X045483Y029355D01*
X045491Y029341D01*
X0455Y029327D01*
X045511Y029313D01*
X045523Y029299D01*
X045536Y029285D01*
Y029143D01*
X045523Y029156D01*
X045483Y029191D01*
X045477Y029195D01*
X045472Y029197D01*
X045468Y029197D01*
X045466Y029196D01*
X045465Y029192D01*
Y029426D01*
X045466Y029412D01*
D02*
G37*
G36*
X040554Y030423D02*
X040553Y030421D01*
X040519Y030339D01*
X040507Y03025D01*
X040519Y030161D01*
X040553Y030079D01*
X040595Y030024D01*
Y028156D01*
X039629Y027189D01*
X039547Y0272D01*
X039153D01*
X039071Y027189D01*
X039047Y027237D01*
X039821Y028011D01*
X03985Y028007D01*
X039939Y028019D01*
X040021Y028053D01*
X040092Y028108D01*
X040147Y028179D01*
X040181Y028261D01*
X040193Y02835D01*
X040181Y028439D01*
X040147Y028521D01*
X040092Y028592D01*
X040021Y028647D01*
X039939Y028681D01*
X03985Y028693D01*
X039761Y028681D01*
X039679Y028647D01*
X039608Y028592D01*
X039553Y028521D01*
X039523Y028449D01*
X039518Y028438D01*
X039515Y028431D01*
X039515Y028428D01*
X039514Y028426D01*
X039513Y028424D01*
X039512Y028423D01*
X039512Y028423D01*
X038491Y027402D01*
X03844Y027421D01*
X038431Y027489D01*
X038397Y027571D01*
X038342Y027642D01*
X038271Y027697D01*
X038189Y027731D01*
X0381Y027743D01*
X038011Y027731D01*
X037929Y027697D01*
X037858Y027642D01*
X037803Y027571D01*
X037769Y027489D01*
X03776Y02742D01*
X03762Y02728D01*
X037564Y027198D01*
X037545Y0271D01*
Y02505D01*
X037564Y024952D01*
X03762Y02487D01*
X037862Y024627D01*
X037845Y024574D01*
X037779Y024547D01*
X037708Y024492D01*
X037653Y024421D01*
X037619Y024339D01*
X037607Y02425D01*
X037619Y024161D01*
X037653Y024079D01*
X037708Y024008D01*
X037779Y023953D01*
X037861Y023919D01*
X03795Y023907D01*
X038039Y023919D01*
X038121Y023953D01*
X038192Y024008D01*
X038247Y024079D01*
X038274Y024144D01*
X038327Y024162D01*
X039523Y022967D01*
X039494Y022926D01*
X03945Y022935D01*
Y02275D01*
X039635D01*
X039626Y022794D01*
X039667Y022823D01*
X041595Y020894D01*
Y020624D01*
X041593Y020619D01*
X041586Y020608D01*
X041577Y020593D01*
X041565Y020577D01*
X041523Y02053D01*
X041499Y020505D01*
X041497Y020503D01*
X041417Y0204D01*
X041367Y020279D01*
X04135Y02015D01*
X041367Y020021D01*
X041417Y0199D01*
X041456Y01985D01*
X041434Y019805D01*
X041127D01*
X041111Y019852D01*
X041132Y019868D01*
X041195Y019951D01*
X041235Y020047D01*
X041242Y0201D01*
X04085D01*
X040458D01*
X040465Y020047D01*
X040505Y019951D01*
X040568Y019868D01*
X040589Y019852D01*
X040573Y019805D01*
X038695D01*
Y020645D01*
X03774D01*
Y022853D01*
X037744Y022858D01*
X037752Y02287D01*
X037797Y022929D01*
X037831Y023011D01*
X037843Y0231D01*
X037831Y023189D01*
X037797Y023271D01*
X037742Y023342D01*
X037671Y023397D01*
X037589Y023431D01*
X0375Y023443D01*
X037411Y023431D01*
X037329Y023397D01*
X037258Y023342D01*
X037203Y023271D01*
X037169Y023189D01*
X037157Y0231D01*
X037169Y023011D01*
X037203Y022929D01*
X037248Y02287D01*
X037256Y022858D01*
X03726Y022853D01*
Y02068D01*
X037223Y020647D01*
X0372Y02065D01*
X037071Y020633D01*
X03695Y020583D01*
X036847Y020503D01*
X036767Y0204D01*
X036727Y020302D01*
X036673D01*
X036633Y0204D01*
X036553Y020503D01*
X03645Y020583D01*
X036329Y020633D01*
X0362Y02065D01*
X036071Y020633D01*
X03595Y020583D01*
X035847Y020503D01*
X035767Y0204D01*
X035717Y020279D01*
X0357Y02015D01*
X035717Y020021D01*
X035767Y0199D01*
X035806Y01985D01*
X035784Y019805D01*
X031055D01*
Y025713D01*
X031105Y025725D01*
X031165Y025647D01*
X031254Y025579D01*
X031357Y025536D01*
X031418Y025528D01*
Y026D01*
X031518D01*
Y025528D01*
X031579Y025536D01*
X031682Y025579D01*
X031771Y025647D01*
X031839Y025736D01*
X031882Y025839D01*
X031882Y025841D01*
X031933D01*
X031936Y025813D01*
X031989Y025685D01*
X032073Y025576D01*
X032183Y025491D01*
X032311Y025439D01*
X032448Y02542D01*
X032585Y025439D01*
X032713Y025491D01*
X032822Y025576D01*
X032906Y025685D01*
X032928Y025737D01*
X032978D01*
X032999Y025685D01*
X033083Y025576D01*
X033193Y025491D01*
X033321Y025439D01*
X033458Y02542D01*
X033595Y025439D01*
X033723Y025491D01*
X033832Y025576D01*
X033916Y025685D01*
X033969Y025813D01*
X033987Y02595D01*
Y02605D01*
X033969Y026187D01*
X033916Y026315D01*
X033832Y026424D01*
X03378Y026464D01*
Y026514D01*
X033844Y026563D01*
X033925Y026668D01*
X033975Y026789D01*
X033992Y02692D01*
Y026977D01*
X034009Y02699D01*
X034036Y027009D01*
X03404Y027015D01*
X034045Y02702D01*
X034061Y027049D01*
X034078Y027077D01*
X03408Y027083D01*
X034083Y02709D01*
X034086Y027122D01*
X034092Y027155D01*
X03409Y027162D01*
X034091Y027169D01*
X034082Y027269D01*
X034074Y027296D01*
X034069Y027324D01*
X034063Y027334D01*
X034059Y027345D01*
X034042Y027367D01*
X034031Y027383D01*
X034693Y028045D01*
X038D01*
X038098Y028064D01*
X03818Y02812D01*
X040517Y030456D01*
X040554Y030423D01*
D02*
G37*
G36*
X04332Y03007D02*
X043402Y030015D01*
X0435Y029995D01*
X043574D01*
X043629Y029953D01*
X043711Y029919D01*
X0438Y029907D01*
X043889Y029919D01*
X043971Y029953D01*
X044042Y030008D01*
X044097Y030079D01*
X044131Y030161D01*
X044138Y030215D01*
X044191Y030229D01*
X044208Y030208D01*
X044279Y030153D01*
X044361Y030119D01*
X04445Y030107D01*
X044539Y030119D01*
X044621Y030153D01*
X044692Y030208D01*
X044747Y030279D01*
X044781Y030361D01*
X044785Y030391D01*
X044833Y030407D01*
X045184Y030055D01*
X045165Y030009D01*
X044833D01*
Y029909D01*
X044662D01*
Y0295D01*
Y029091D01*
X044833D01*
Y028991D01*
X045361D01*
X045407Y028969D01*
X045419Y02888D01*
X045453Y028797D01*
X045508Y028726D01*
X045579Y028672D01*
X045661Y028637D01*
X04575Y028626D01*
X045839Y028637D01*
X045921Y028672D01*
X045992Y028726D01*
X046047Y028797D01*
X046081Y02888D01*
X046093Y028969D01*
X046081Y029057D01*
X04606Y029109D01*
X046102Y029137D01*
X04715Y02809D01*
X047135Y028042D01*
X047102Y028036D01*
X04705Y028001D01*
X047024Y027995D01*
X046987Y027989D01*
X046985Y027988D01*
X046982Y027987D01*
X046951Y027966D01*
X04692Y027947D01*
X046918Y027944D01*
X046916Y027943D01*
X046895Y027912D01*
X046874Y027882D01*
X046873Y027879D01*
X046872Y027877D01*
X046864Y02784D01*
X04686Y02782D01*
X04587Y02683D01*
X045814Y026748D01*
X045802Y026685D01*
X045793Y026667D01*
X045641D01*
Y0264D01*
X046459D01*
Y026667D01*
X046459Y026667D01*
X046459D01*
X046473Y026712D01*
X046978Y027218D01*
X047024Y027199D01*
Y026537D01*
Y02623D01*
X047024Y026223D01*
X047024Y026221D01*
Y026171D01*
X046957Y026092D01*
X046938Y026073D01*
X046606D01*
X0466Y026074D01*
X04656Y026074D01*
X046559Y026074D01*
Y026129D01*
X046459D01*
Y0263D01*
X045641D01*
Y026129D01*
X045541D01*
Y025967D01*
X045258D01*
X045237Y025999D01*
X045232Y026017D01*
X045243Y0261D01*
X045231Y026189D01*
X045197Y026271D01*
X045142Y026342D01*
X045071Y026397D01*
X044989Y026431D01*
X0449Y026443D01*
X044811Y026431D01*
X044729Y026397D01*
X044658Y026342D01*
X044603Y026271D01*
X044569Y026189D01*
X044557Y0261D01*
X044568Y026017D01*
X044563Y025999D01*
X044542Y025967D01*
X042743D01*
X041805Y026906D01*
Y027996D01*
X041855Y028021D01*
X041879Y028003D01*
X041961Y027969D01*
X04205Y027957D01*
X042139Y027969D01*
X042221Y028003D01*
X042292Y028058D01*
X042347Y028129D01*
X042357Y028152D01*
X042393Y028157D01*
X042412Y028154D01*
X042479Y028103D01*
X042561Y028069D01*
X04265Y028057D01*
X042739Y028069D01*
X042821Y028103D01*
X042892Y028158D01*
X042947Y028229D01*
X042981Y028311D01*
X042993Y0284D01*
X042981Y028489D01*
X042947Y028571D01*
X042905Y028626D01*
Y0304D01*
X042901Y030417D01*
X042948Y030442D01*
X04332Y03007D01*
D02*
G37*
G36*
X047199Y02766D02*
X047185Y02766D01*
X047172Y027658D01*
X04716Y027656D01*
X047148Y027653D01*
X047136Y027649D01*
X047125Y027643D01*
X047114Y027637D01*
X047103Y02763D01*
X047093Y027622D01*
X047083Y027613D01*
X047013Y027683D01*
X047022Y027693D01*
X04703Y027703D01*
X047037Y027714D01*
X047043Y027725D01*
X047049Y027736D01*
X047053Y027748D01*
X047056Y02776D01*
X047058Y027772D01*
X04706Y027785D01*
X04706Y027799D01*
X047199Y02766D01*
D02*
G37*
G36*
X049584Y028355D02*
X04957Y02825D01*
Y02815D01*
X049589Y028013D01*
X049641Y027885D01*
X049726Y027776D01*
X049835Y027691D01*
X049875Y027675D01*
Y027625D01*
X049835Y027609D01*
X049726Y027524D01*
X049641Y027415D01*
X049617Y027355D01*
X048606D01*
X047562Y028399D01*
X047581Y028445D01*
X049494D01*
X049584Y028355D01*
D02*
G37*
G36*
X033794Y027435D02*
X033779Y02742D01*
X033766Y027405D01*
X033756Y027391D01*
X033748Y027378D01*
X033743Y027366D01*
X033739Y027355D01*
X033738Y027345D01*
X03374Y027336D01*
X033744Y027328D01*
X03375Y027321D01*
X033603Y027456D01*
X033611Y02745D01*
X033619Y027447D01*
X033629Y027446D01*
X033639Y027447D01*
X033651Y027451D01*
X033663Y027457D01*
X033676Y027465D01*
X03369Y027475D01*
X033705Y027488D01*
X03372Y027503D01*
X033794Y027435D01*
D02*
G37*
G36*
X049826Y028545D02*
X04984Y028533D01*
X049854Y028523D01*
X049866Y028516D01*
X049878Y02851D01*
X049888Y028508D01*
X049898Y028507D01*
X049907Y028509D01*
X049914Y028513D01*
X049921Y02852D01*
X049797Y028362D01*
X049802Y028371D01*
X049805Y02838D01*
X049805Y02839D01*
X049804Y0284D01*
X0498Y028412D01*
X049794Y028424D01*
X049786Y028437D01*
X049775Y028451D01*
X049763Y028466D01*
X049748Y028481D01*
X049811Y02856D01*
X049826Y028545D01*
D02*
G37*
G36*
X051399Y029099D02*
X051389Y029066D01*
X05138Y029026D01*
X051372Y028979D01*
X05136Y028865D01*
X051355Y028782D01*
X051372Y028521D01*
X05138Y028474D01*
X051389Y028434D01*
X051399Y028401D01*
X051411Y028375D01*
X050809D01*
X050821Y028401D01*
X050831Y028434D01*
X05084Y028474D01*
X050848Y028521D01*
X05086Y028635D01*
X050865Y028718D01*
X050848Y028979D01*
X05084Y029026D01*
X050831Y029066D01*
X050821Y029099D01*
X050809Y029125D01*
X051411D01*
X051399Y029099D01*
D02*
G37*
G36*
X040943Y030834D02*
X040956Y030825D01*
X041008Y030758D01*
X041079Y030703D01*
X041161Y030669D01*
X04123Y03066D01*
X041295Y030594D01*
Y028303D01*
X041254Y028275D01*
X041239Y028281D01*
X04115Y028293D01*
X041142Y028292D01*
X041105Y028325D01*
Y030024D01*
X041147Y030079D01*
X041181Y030161D01*
X041193Y03025D01*
X041181Y030339D01*
X041147Y030421D01*
X041092Y030492D01*
X041021Y030547D01*
X040939Y030581D01*
X04085Y030593D01*
X040761Y030581D01*
X040679Y030547D01*
X040677Y030546D01*
X040644Y030584D01*
X040902Y030842D01*
X040943Y030834D01*
D02*
G37*
G36*
X033764Y02829D02*
X033768Y028282D01*
X033775Y028274D01*
X033783Y028268D01*
X033794Y028262D01*
X033807Y028258D01*
X033822Y028254D01*
X033839Y028252D01*
X033858Y02825D01*
X033879Y02825D01*
X033888Y02815D01*
X033868Y028149D01*
X03385Y028148D01*
X033834Y028145D01*
X03382Y028142D01*
X033809Y028138D01*
X0338Y028132D01*
X033793Y028126D01*
X033789Y028118D01*
X033787Y02811D01*
X033787Y0281D01*
X033761Y028299D01*
X033764Y02829D01*
D02*
G37*
G36*
X039813Y028215D02*
X039801Y028218D01*
X039789Y028219D01*
X039778Y028219D01*
X039766Y028218D01*
X039755Y028215D01*
X039744Y028211D01*
X039733Y028206D01*
X039723Y028199D01*
X039713Y028191D01*
X039703Y028182D01*
X039652Y028272D01*
X039661Y028282D01*
X039669Y028292D01*
X039677Y028302D01*
X039684Y028312D01*
X03969Y028323D01*
X039696Y028335D01*
X039702Y028346D01*
X039706Y028359D01*
X039711Y028371D01*
X039714Y028384D01*
X039813Y028215D01*
D02*
G37*
G36*
X044886Y034335D02*
X044932Y034295D01*
X044941Y034289D01*
X044956Y034279D01*
X044964Y034275D01*
X04478Y034222D01*
X044785Y034232D01*
X044788Y034241D01*
X04479Y034251D01*
X04479Y034261D01*
X044789Y034271D01*
X044786Y034281D01*
X044781Y034291D01*
X044775Y034301D01*
X044767Y034312D01*
X044757Y034322D01*
X044876Y034345D01*
X044886Y034335D01*
D02*
G37*
G36*
X04761Y037089D02*
X04762Y037081D01*
X04763Y037074D01*
X047641Y037067D01*
X047652Y037062D01*
X047664Y037058D01*
X047676Y037054D01*
X047688Y037052D01*
X047701Y03705D01*
X047715Y03705D01*
Y03695D01*
X047701Y03695D01*
X047688Y036948D01*
X047676Y036946D01*
X047664Y036942D01*
X047652Y036938D01*
X047641Y036933D01*
X04763Y036926D01*
X04762Y036919D01*
X04761Y036911D01*
X0476Y036902D01*
Y037098D01*
X04761Y037089D01*
D02*
G37*
G36*
X04325Y037155D02*
X043252Y037138D01*
X043254Y037123D01*
X043258Y03711D01*
X043263Y037098D01*
X043268Y037089D01*
X043274Y037082D01*
X043282Y037077D01*
X043291Y037074D01*
X0433Y037073D01*
X0431D01*
X043109Y037074D01*
X043118Y037077D01*
X043126Y037082D01*
X043132Y037089D01*
X043137Y037098D01*
X043142Y03711D01*
X043145Y037123D01*
X043148Y037138D01*
X043149Y037155D01*
X04315Y037174D01*
X04325D01*
X04325Y037155D01*
D02*
G37*
G36*
X05024Y036935D02*
X050242Y036922D01*
X050244Y03691D01*
X050247Y036898D01*
X050251Y036886D01*
X050257Y036875D01*
X050263Y036864D01*
X05027Y036853D01*
X050278Y036843D01*
X050287Y036833D01*
X050217Y036763D01*
X050207Y036772D01*
X050197Y03678D01*
X050186Y036787D01*
X050175Y036793D01*
X050164Y036799D01*
X050152Y036803D01*
X05014Y036806D01*
X050128Y036808D01*
X050115Y03681D01*
X050101Y03681D01*
X05024Y036949D01*
X05024Y036935D01*
D02*
G37*
G36*
X052339Y03689D02*
X052331Y03688D01*
X052324Y03687D01*
X052317Y036859D01*
X052312Y036848D01*
X052308Y036836D01*
X052304Y036824D01*
X052302Y036811D01*
X0523Y036799D01*
X0523Y036785D01*
X0522D01*
X0522Y036799D01*
X052198Y036811D01*
X052196Y036824D01*
X052192Y036836D01*
X052188Y036848D01*
X052183Y036859D01*
X052176Y03687D01*
X052169Y03688D01*
X052161Y03689D01*
X052152Y0369D01*
X052348D01*
X052339Y03689D01*
D02*
G37*
G36*
X046775Y037205D02*
X046776Y037188D01*
X046779Y037173D01*
X046782Y03716D01*
X046787Y037148D01*
X046792Y037139D01*
X046799Y037132D01*
X046806Y037127D01*
X046815Y037124D01*
X046824Y037123D01*
X046624D01*
X046634Y037124D01*
X046642Y037127D01*
X04665Y037132D01*
X046656Y037139D01*
X046662Y037148D01*
X046666Y03716D01*
X04667Y037173D01*
X046672Y037188D01*
X046674Y037205D01*
X046674Y037224D01*
X046774D01*
X046775Y037205D01*
D02*
G37*
G36*
X043513Y037465D02*
X043501Y037468D01*
X043489Y037469D01*
X043478Y037469D01*
X043466Y037468D01*
X043455Y037465D01*
X043444Y037461D01*
X043433Y037456D01*
X043423Y037449D01*
X043413Y037441D01*
X043403Y037432D01*
X043352Y037522D01*
X043361Y037532D01*
X043369Y037542D01*
X043377Y037552D01*
X043384Y037562D01*
X04339Y037573D01*
X043396Y037585D01*
X043402Y037596D01*
X043406Y037609D01*
X043411Y037621D01*
X043414Y037634D01*
X043513Y037465D01*
D02*
G37*
G36*
X049615Y037676D02*
X049606Y037673D01*
X049599Y037668D01*
X049592Y037661D01*
X049587Y037652D01*
X049582Y03764D01*
X049579Y037627D01*
X049576Y037612D01*
X049575Y037595D01*
X049574Y037576D01*
X049474D01*
X049474Y037595D01*
X049472Y037612D01*
X04947Y037627D01*
X049466Y03764D01*
X049462Y037652D01*
X049456Y037661D01*
X04945Y037668D01*
X049442Y037673D01*
X049434Y037676D01*
X049424Y037677D01*
X049624D01*
X049615Y037676D01*
D02*
G37*
G36*
X048418Y038792D02*
X048426Y03878D01*
X048436Y038763D01*
X048449Y038736D01*
X048456Y038727D01*
X048467Y0387D01*
X048547Y038597D01*
X04865Y038517D01*
X048751Y038476D01*
X048741Y038426D01*
X048389D01*
Y037549D01*
X048094Y037255D01*
X047726D01*
X047671Y037297D01*
X047589Y037331D01*
X0475Y037343D01*
X047411Y037331D01*
X047329Y037297D01*
X047258Y037242D01*
X047203Y037171D01*
X047169Y037089D01*
X047161Y03703D01*
X047111Y037033D01*
Y037326D01*
X046979D01*
Y037974D01*
X047111D01*
Y038795D01*
X048415D01*
X048418Y038792D01*
D02*
G37*
G36*
X050249Y03751D02*
X050235Y03751D01*
X050222Y037508D01*
X05021Y037506D01*
X050198Y037503D01*
X050186Y037499D01*
X050175Y037493D01*
X050164Y037487D01*
X050153Y03748D01*
X050143Y037472D01*
X050133Y037463D01*
X050063Y037533D01*
X050072Y037543D01*
X05008Y037553D01*
X050087Y037564D01*
X050093Y037575D01*
X050099Y037586D01*
X050103Y037598D01*
X050106Y03761D01*
X050108Y037622D01*
X05011Y037635D01*
X05011Y037649D01*
X050249Y03751D01*
D02*
G37*
G36*
X041143Y036428D02*
X041153Y03642D01*
X041164Y036413D01*
X041175Y036407D01*
X041186Y036401D01*
X041198Y036397D01*
X04121Y036394D01*
X041222Y036392D01*
X041235Y03639D01*
X041249Y03639D01*
X04111Y036251D01*
X04111Y036265D01*
X041108Y036278D01*
X041106Y03629D01*
X041103Y036302D01*
X041099Y036314D01*
X041093Y036325D01*
X041087Y036336D01*
X04108Y036347D01*
X041072Y036357D01*
X041063Y036367D01*
X041133Y036437D01*
X041143Y036428D01*
D02*
G37*
G36*
X043266Y036526D02*
X043258Y036523D01*
X04325Y036518D01*
X043244Y036511D01*
X043238Y036502D01*
X043234Y03649D01*
X04323Y036477D01*
X043228Y036462D01*
X043226Y036445D01*
X043226Y036426D01*
X043126D01*
X043125Y036445D01*
X043124Y036462D01*
X043121Y036477D01*
X043118Y03649D01*
X043113Y036502D01*
X043108Y036511D01*
X043101Y036518D01*
X043094Y036523D01*
X043085Y036526D01*
X043076Y036527D01*
X043276D01*
X043266Y036526D01*
D02*
G37*
G36*
X048797Y03644D02*
X0488Y036432D01*
X048805Y036425D01*
X048812Y036418D01*
X048821Y036412D01*
X048832Y036408D01*
X048845Y036405D01*
X04886Y036402D01*
X048877Y0364D01*
X048896Y0364D01*
Y0363D01*
X048877Y0363D01*
X04886Y036298D01*
X048845Y036295D01*
X048832Y036292D01*
X048821Y036288D01*
X048812Y036282D01*
X048805Y036275D01*
X0488Y036268D01*
X048797Y03626D01*
X048796Y03625D01*
Y03645D01*
X048797Y03644D01*
D02*
G37*
G36*
X051897D02*
X0519Y036432D01*
X051905Y036425D01*
X051912Y036418D01*
X051921Y036412D01*
X051932Y036408D01*
X051945Y036405D01*
X05196Y036402D01*
X051977Y0364D01*
X051996Y0364D01*
Y0363D01*
X051977Y0363D01*
X05196Y036298D01*
X051945Y036295D01*
X051932Y036292D01*
X051921Y036288D01*
X051912Y036282D01*
X051905Y036275D01*
X0519Y036268D01*
X051897Y03626D01*
X051896Y03625D01*
Y03645D01*
X051897Y03644D01*
D02*
G37*
G36*
X046066Y036576D02*
X046058Y036573D01*
X04605Y036568D01*
X046044Y036561D01*
X046038Y036552D01*
X046034Y03654D01*
X04603Y036527D01*
X046028Y036512D01*
X046026Y036495D01*
X046026Y036476D01*
X045926D01*
X045925Y036495D01*
X045924Y036512D01*
X045921Y036527D01*
X045918Y03654D01*
X045913Y036552D01*
X045908Y036561D01*
X045901Y036568D01*
X045894Y036573D01*
X045885Y036576D01*
X045876Y036577D01*
X046076D01*
X046066Y036576D01*
D02*
G37*
G36*
X04411Y03689D02*
X044113Y036882D01*
X044118Y036874D01*
X044125Y036868D01*
X044134Y036862D01*
X044145Y036858D01*
X044158Y036855D01*
X044173Y036852D01*
X044191Y036851D01*
X04421Y03685D01*
Y03675D01*
X044191Y036749D01*
X044173Y036748D01*
X044158Y036746D01*
X044145Y036742D01*
X044134Y036737D01*
X044125Y036732D01*
X044118Y036725D01*
X044113Y036718D01*
X04411Y036709D01*
X044109Y0367D01*
Y0369D01*
X04411Y03689D01*
D02*
G37*
G36*
X04435Y036702D02*
X04434Y036711D01*
X04433Y036719D01*
X04432Y036726D01*
X044309Y036733D01*
X044298Y036738D01*
X044286Y036742D01*
X044274Y036746D01*
X044261Y036748D01*
X044249Y03675D01*
X044235Y03675D01*
Y03685D01*
X044249Y03685D01*
X044261Y036852D01*
X044274Y036854D01*
X044286Y036858D01*
X044298Y036862D01*
X044309Y036867D01*
X04432Y036874D01*
X04433Y036881D01*
X04434Y036889D01*
X04435Y036898D01*
Y036702D01*
D02*
G37*
G36*
X046815Y036576D02*
X046806Y036573D01*
X046799Y036568D01*
X046792Y036561D01*
X046787Y036552D01*
X046782Y03654D01*
X046779Y036527D01*
X046776Y036512D01*
X046775Y036495D01*
X046774Y036476D01*
X046674D01*
X046674Y036495D01*
X046672Y036512D01*
X04667Y036527D01*
X046666Y03654D01*
X046662Y036552D01*
X046656Y036561D01*
X04665Y036568D01*
X046642Y036573D01*
X046634Y036576D01*
X046624Y036577D01*
X046824D01*
X046815Y036576D01*
D02*
G37*
G36*
X05035Y036646D02*
X050352Y036629D01*
X050354Y036614D01*
X050358Y036601D01*
X050363Y036589D01*
X050368Y03658D01*
X050374Y036573D01*
X050382Y036568D01*
X050391Y036565D01*
X0504Y036564D01*
X0502D01*
X050209Y036565D01*
X050218Y036568D01*
X050226Y036573D01*
X050232Y03658D01*
X050237Y036589D01*
X050242Y036601D01*
X050245Y036614D01*
X050248Y036629D01*
X05025Y036646D01*
X05025Y036665D01*
X05035D01*
X05035Y036646D01*
D02*
G37*
G36*
X036651Y040445D02*
X036597Y040403D01*
X036517Y0403D01*
X036467Y040179D01*
X03645Y04005D01*
X036467Y039921D01*
X036517Y0398D01*
X036597Y039697D01*
X0367Y039617D01*
X036821Y039567D01*
X03695Y03955D01*
X037079Y039567D01*
X0372Y039617D01*
X037303Y039697D01*
X037383Y0398D01*
X037423Y039898D01*
X037477D01*
X037517Y0398D01*
X037597Y039697D01*
X0377Y039617D01*
X037821Y039567D01*
X03795Y03955D01*
X037993Y039556D01*
X03801Y039554D01*
X038045Y039558D01*
X038072Y03956D01*
X038095Y03956D01*
X038113Y039559D01*
X038126Y039557D01*
X038134Y039555D01*
X038238Y039451D01*
X038219Y039405D01*
X036006D01*
X035766Y039644D01*
X035795Y039686D01*
X035847Y039665D01*
X0359Y039658D01*
Y04005D01*
X03595D01*
Y0401D01*
X036342D01*
X036335Y040153D01*
X036295Y040249D01*
X036232Y040332D01*
X036149Y040395D01*
X036053Y040435D01*
X035977Y040445D01*
X035981Y040495D01*
X036634D01*
X036651Y040445D01*
D02*
G37*
G36*
X044697Y039755D02*
X044655Y039754D01*
X044579Y039749D01*
X044545Y039744D01*
X044514Y039738D01*
X044486Y03973D01*
X044461Y039721D01*
X044439Y03971D01*
X04442Y039698D01*
X044404Y039684D01*
X044334Y039754D01*
X044348Y03977D01*
X04436Y039789D01*
X044371Y039811D01*
X04438Y039836D01*
X044388Y039864D01*
X044394Y039895D01*
X044399Y039929D01*
X044404Y040005D01*
X044405Y040047D01*
X044697Y039755D01*
D02*
G37*
G36*
X040113Y039559D02*
X040126Y039557D01*
X040134Y039555D01*
X042395Y037294D01*
Y037081D01*
X042349Y037062D01*
X039901Y039509D01*
X039924Y039554D01*
X03995Y03955D01*
X039993Y039556D01*
X04001Y039554D01*
X040045Y039558D01*
X040072Y03956D01*
X040095Y03956D01*
X040113Y039559D01*
D02*
G37*
G36*
X043877Y039809D02*
X043827Y039751D01*
X043806Y039724D01*
X043789Y039698D01*
X043775Y039673D01*
X043764Y039649D01*
X043756Y039625D01*
X043752Y039603D01*
X04375Y039582D01*
X04365D01*
X043648Y039603D01*
X043644Y039625D01*
X043636Y039649D01*
X043625Y039673D01*
X043611Y039698D01*
X043594Y039724D01*
X043573Y039751D01*
X043523Y039809D01*
X043493Y039839D01*
X043907D01*
X043877Y039809D01*
D02*
G37*
G36*
X035249Y040038D02*
X03527Y039924D01*
X035279Y039893D01*
X035289Y039865D01*
X035299Y03984D01*
X035311Y039818D01*
X035323Y0398D01*
X035336Y039785D01*
X035273Y039706D01*
X035256Y03972D01*
X035237Y039733D01*
X035215Y039743D01*
X03519Y039752D01*
X035163Y039758D01*
X035133Y039762D01*
X035101Y039764D01*
X035066Y039764D01*
X035028Y039762D01*
X034988Y039757D01*
X035243Y040082D01*
X035249Y040038D01*
D02*
G37*
G36*
X040249D02*
X04027Y039924D01*
X040279Y039893D01*
X040289Y039865D01*
X040299Y03984D01*
X040311Y039818D01*
X040323Y0398D01*
X040336Y039785D01*
X040273Y039706D01*
X040256Y03972D01*
X040237Y039733D01*
X040215Y039743D01*
X04019Y039752D01*
X040163Y039758D01*
X040133Y039762D01*
X040101Y039764D01*
X040066Y039764D01*
X040028Y039762D01*
X039988Y039757D01*
X040243Y040082D01*
X040249Y040038D01*
D02*
G37*
G36*
X051143Y040447D02*
X051137Y040443D01*
X05101Y04034D01*
X050907Y040213D01*
X050829Y040069D01*
X050782Y039913D01*
X050766Y03975D01*
X050782Y039587D01*
X050829Y039431D01*
X050907Y039287D01*
X05101Y03916D01*
X051137Y039057D01*
X051281Y038979D01*
X051437Y038932D01*
X0516Y038916D01*
X051763Y038932D01*
X051919Y038979D01*
X052063Y039057D01*
X05219Y03916D01*
X052293Y039287D01*
X052371Y039431D01*
X0524Y039528D01*
X05245Y039521D01*
Y037334D01*
X0524Y037306D01*
X052339Y037331D01*
X05225Y037343D01*
X052161Y037331D01*
X052079Y037297D01*
X052008Y037242D01*
X051953Y037171D01*
X051919Y037089D01*
X051907Y037D01*
X051919Y036911D01*
X051953Y036829D01*
X051962Y036817D01*
X051938Y036767D01*
X051303D01*
Y035933D01*
Y035564D01*
X051244Y035505D01*
X05085D01*
X050752Y035485D01*
X050741Y035478D01*
X050697Y035501D01*
Y035933D01*
Y036767D01*
X050552D01*
X050535Y036848D01*
X05048Y03693D01*
X05044Y03697D01*
X050431Y037039D01*
X050397Y037121D01*
X050342Y037192D01*
X050275Y037244D01*
X050266Y037257D01*
X050265Y037263D01*
X050303Y037314D01*
X050339Y037319D01*
X050421Y037353D01*
X050492Y037408D01*
X050547Y037479D01*
X050581Y037561D01*
X050593Y03765D01*
X050581Y037739D01*
X050547Y037821D01*
X050492Y037892D01*
X050421Y037947D01*
X050339Y037981D01*
X050317Y037984D01*
X050283Y038039D01*
X050285Y03805D01*
X05005D01*
Y0381D01*
X05D01*
Y038335D01*
X049956Y038326D01*
X049877Y038273D01*
X049861Y038249D01*
X049811Y038264D01*
Y038326D01*
X049574D01*
Y03795D01*
X049524D01*
Y0379D01*
X049237D01*
Y037757D01*
X049236Y037755D01*
X04923Y037726D01*
X049221Y037698D01*
X049222Y037688D01*
X04922Y037677D01*
X049222Y037669D01*
X049213Y03766D01*
X049163Y037682D01*
Y038426D01*
X049059D01*
X049049Y038476D01*
X04915Y038517D01*
X049253Y038597D01*
X049333Y0387D01*
X049355Y038754D01*
X049405Y038744D01*
Y038455D01*
X050395D01*
Y039445D01*
X049405D01*
Y039156D01*
X049355Y039146D01*
X049333Y0392D01*
X049253Y039303D01*
X04915Y039383D01*
X049029Y039433D01*
X0489Y03945D01*
X048771Y039433D01*
X048707Y039406D01*
X048686Y039401D01*
X048562Y039344D01*
X048504Y03932D01*
X048462Y039305D01*
X04846Y039305D01*
X044838D01*
X044818Y039307D01*
X044815Y039307D01*
X044798Y039311D01*
X044797Y039311D01*
X044795Y039312D01*
X044788Y039315D01*
X044768Y039319D01*
X044739Y039331D01*
X04465Y039343D01*
X044561Y039331D01*
X044479Y039297D01*
X044408Y039242D01*
X044355Y039174D01*
X04435Y039174D01*
X044305Y039194D01*
Y039294D01*
X044545Y039534D01*
X04455Y039536D01*
X044563Y03954D01*
X04458Y039543D01*
X0446Y039546D01*
X044662Y039551D01*
X044697Y039551D01*
X0447Y03955D01*
X044829Y039567D01*
X04495Y039617D01*
X045053Y039697D01*
X045133Y0398D01*
X045173Y039898D01*
X045227D01*
X045267Y0398D01*
X045347Y039697D01*
X04545Y039617D01*
X045571Y039567D01*
X0457Y03955D01*
X045829Y039567D01*
X04595Y039617D01*
X046053Y039697D01*
X046133Y0398D01*
X046173Y039898D01*
X046227D01*
X046267Y0398D01*
X046347Y039697D01*
X04645Y039617D01*
X046571Y039567D01*
X0467Y03955D01*
X046829Y039567D01*
X04695Y039617D01*
X047053Y039697D01*
X047133Y0398D01*
X047173Y039898D01*
X047227D01*
X047267Y0398D01*
X047347Y039697D01*
X04745Y039617D01*
X047571Y039567D01*
X0477Y03955D01*
X047829Y039567D01*
X04795Y039617D01*
X048053Y039697D01*
X048133Y0398D01*
X048173Y039898D01*
X048227D01*
X048267Y0398D01*
X048347Y039697D01*
X04845Y039617D01*
X048571Y039567D01*
X0487Y03955D01*
X048829Y039567D01*
X04895Y039617D01*
X049053Y039697D01*
X049133Y0398D01*
X049183Y039921D01*
X0492Y04005D01*
X049183Y040179D01*
X049133Y0403D01*
X049053Y040403D01*
X048999Y040445D01*
X049016Y040495D01*
X049304D01*
X049305Y040445D01*
Y0401D01*
X0497D01*
X050095D01*
Y040445D01*
X050096Y040495D01*
X05113D01*
X051143Y040447D01*
D02*
G37*
G36*
X038249Y040038D02*
X03827Y039924D01*
X038279Y039893D01*
X038289Y039865D01*
X038299Y03984D01*
X038311Y039818D01*
X038323Y0398D01*
X038336Y039785D01*
X038273Y039706D01*
X038256Y03972D01*
X038237Y039733D01*
X038215Y039743D01*
X03819Y039752D01*
X038163Y039758D01*
X038133Y039762D01*
X038101Y039764D01*
X038066Y039764D01*
X038028Y039762D01*
X037988Y039757D01*
X038243Y040082D01*
X038249Y040038D01*
D02*
G37*
G36*
X039249D02*
X03927Y039924D01*
X039279Y039893D01*
X039289Y039865D01*
X039299Y03984D01*
X039311Y039818D01*
X039323Y0398D01*
X039336Y039785D01*
X039273Y039706D01*
X039256Y03972D01*
X039237Y039733D01*
X039215Y039743D01*
X03919Y039752D01*
X039163Y039758D01*
X039133Y039762D01*
X039101Y039764D01*
X039066Y039764D01*
X039028Y039762D01*
X038988Y039757D01*
X039243Y040082D01*
X039249Y040038D01*
D02*
G37*
G36*
X045037Y038317D02*
X045028Y038307D01*
X04502Y038297D01*
X045013Y038286D01*
X045007Y038275D01*
X045001Y038264D01*
X044997Y038252D01*
X044994Y03824D01*
X044992Y038228D01*
X04499Y038215D01*
X04499Y038201D01*
X044851Y03834D01*
X044865Y03834D01*
X044878Y038342D01*
X04489Y038344D01*
X044902Y038347D01*
X044914Y038351D01*
X044925Y038357D01*
X044936Y038363D01*
X044947Y03837D01*
X044957Y038378D01*
X044967Y038387D01*
X045037Y038317D01*
D02*
G37*
G36*
X045791Y03835D02*
X04579Y038359D01*
X045787Y038368D01*
X045782Y038375D01*
X045775Y038382D01*
X045766Y038387D01*
X045755Y038392D01*
X045742Y038396D01*
X045727Y038398D01*
X045709Y0384D01*
X04569Y0384D01*
Y0385D01*
X045709Y0385D01*
X045727Y038502D01*
X045742Y038505D01*
X045755Y038508D01*
X045766Y038512D01*
X045775Y038518D01*
X045782Y038524D01*
X045787Y038532D01*
X04579Y03854D01*
X045791Y03855D01*
Y03835D01*
D02*
G37*
G36*
X048866Y037676D02*
X048858Y037673D01*
X04885Y037668D01*
X048844Y037661D01*
X048838Y037652D01*
X048834Y037641D01*
X04883Y037627D01*
X048828Y037612D01*
X048826Y037595D01*
X048826Y037576D01*
X048726D01*
X048725Y037595D01*
X048724Y037612D01*
X048722Y037627D01*
X048718Y037641D01*
X048714Y037652D01*
X048708Y037661D01*
X048702Y037668D01*
X048694Y037673D01*
X048686Y037676D01*
X048676Y037677D01*
X048876D01*
X048866Y037676D01*
D02*
G37*
G36*
X046815Y038176D02*
X046806Y038173D01*
X046799Y038168D01*
X046792Y038161D01*
X046787Y038152D01*
X046782Y03814D01*
X046779Y038127D01*
X046776Y038112D01*
X046775Y038095D01*
X046774Y038076D01*
X046674D01*
X046674Y038095D01*
X046672Y038112D01*
X04667Y038127D01*
X046666Y03814D01*
X046662Y038152D01*
X046656Y038161D01*
X04665Y038168D01*
X046642Y038173D01*
X046634Y038176D01*
X046624Y038177D01*
X046824D01*
X046815Y038176D01*
D02*
G37*
G36*
X048632Y038827D02*
X048615Y03886D01*
X048598Y038889D01*
X04858Y038915D01*
X048562Y038938D01*
X048542Y038957D01*
X048522Y038972D01*
X0485Y038984D01*
X048478Y038993D01*
X048456Y038998D01*
X048432Y039D01*
X048468Y0391D01*
X048483Y039101D01*
X048501Y039105D01*
X048522Y03911D01*
X048576Y039129D01*
X048644Y039157D01*
X048772Y039216D01*
X048632Y038827D01*
D02*
G37*
G36*
X042401Y040445D02*
X042347Y040403D01*
X042267Y0403D01*
X042217Y040179D01*
X0422Y04005D01*
X042217Y039921D01*
X042267Y0398D01*
X042347Y039697D01*
X04245Y039617D01*
X042571Y039567D01*
X0427Y03955D01*
X042829Y039567D01*
X04295Y039617D01*
X043053Y039697D01*
X043133Y0398D01*
X043173Y039898D01*
X043227D01*
X043267Y0398D01*
X043347Y039697D01*
X043349Y039695D01*
X043373Y03967D01*
X043415Y039623D01*
X043427Y039607D01*
X043436Y039592D01*
X043443Y039581D01*
X043445Y039576D01*
Y03845D01*
X043464Y038352D01*
X04352Y03827D01*
X044545Y037244D01*
Y037181D01*
X044495Y037137D01*
X04445Y037143D01*
X044361Y037131D01*
X044353Y037128D01*
X044311Y037155D01*
Y037276D01*
X043768D01*
X043751Y037326D01*
X043792Y037358D01*
X043847Y037429D01*
X043881Y037511D01*
X043893Y0376D01*
X043881Y037689D01*
X043847Y037771D01*
X043792Y037842D01*
X043721Y037897D01*
X043639Y037931D01*
X04355Y037943D01*
X043461Y037931D01*
X043379Y037897D01*
X043308Y037842D01*
X043253Y037771D01*
X043223Y037699D01*
X043218Y037688D01*
X043215Y037681D01*
X043215Y037678D01*
X043214Y037676D01*
X043213Y037674D01*
X043212Y037673D01*
X043212Y037673D01*
X04302Y03748D01*
X042965Y037398D01*
X042955Y037349D01*
X042905Y037354D01*
Y0374D01*
X042885Y037498D01*
X04283Y03758D01*
X040901Y039509D01*
X040924Y039554D01*
X04095Y03955D01*
X041079Y039567D01*
X0412Y039617D01*
X041303Y039697D01*
X041383Y0398D01*
X041433Y039921D01*
X04145Y04005D01*
X041433Y040179D01*
X041383Y0403D01*
X041303Y040403D01*
X041249Y040445D01*
X041266Y040495D01*
X042384D01*
X042401Y040445D01*
D02*
G37*
G36*
X039113Y039559D02*
X039126Y039557D01*
X039134Y039555D01*
X042123Y036566D01*
X042122Y036537D01*
X0421Y036493D01*
X042011Y036481D01*
X041953Y036457D01*
X038901Y039509D01*
X038923Y039554D01*
X03895Y03955D01*
X038993Y039556D01*
X03901Y039554D01*
X039045Y039558D01*
X039072Y03956D01*
X039095Y03956D01*
X039113Y039559D01*
D02*
G37*
G36*
X033455Y039555D02*
X034445D01*
Y039844D01*
X034495Y039854D01*
X034517Y0398D01*
X034597Y039697D01*
X0347Y039617D01*
X034821Y039567D01*
X03495Y03955D01*
X034993Y039556D01*
X03501Y039554D01*
X035045Y039558D01*
X035072Y03956D01*
X035095Y03956D01*
X035113Y039559D01*
X035126Y039557D01*
X035134Y039555D01*
X03572Y03897D01*
X035802Y038914D01*
X0359Y038895D01*
X038244D01*
X04091Y03623D01*
X040919Y036161D01*
X040953Y036079D01*
X041008Y036008D01*
X041079Y035953D01*
X041161Y035919D01*
X04125Y035907D01*
X041339Y035919D01*
X041421Y035953D01*
X041492Y036008D01*
X041544Y036075D01*
X041557Y036084D01*
X041598Y036092D01*
X04172Y03597D01*
X041802Y035914D01*
X041864Y035902D01*
X041929Y035853D01*
X042011Y035819D01*
X0421Y035807D01*
X042108Y035808D01*
X042145Y035775D01*
Y0348D01*
X042165Y034702D01*
X04222Y03462D01*
X042262Y034577D01*
X042245Y034524D01*
X042179Y034497D01*
X042124Y034455D01*
X04045D01*
X040352Y034436D01*
X04027Y03438D01*
X038894Y033005D01*
X034085D01*
X033988Y032985D01*
X033905Y03293D01*
X033708Y032733D01*
X033618Y03277D01*
X033488Y032787D01*
X033357Y03277D01*
X033236Y032719D01*
X033131Y032639D01*
X033051Y032535D01*
X033014Y032446D01*
X03296D01*
X032925Y032532D01*
X032844Y032637D01*
X03274Y032717D01*
X032618Y032767D01*
X032488Y032784D01*
X032357Y032767D01*
X032236Y032717D01*
X032131Y032637D01*
X032051Y032532D01*
X032001Y032411D01*
X031984Y03228D01*
Y03202D01*
X032001Y031889D01*
X032051Y031768D01*
X032131Y031663D01*
Y031637D01*
X032051Y031532D01*
X032001Y031411D01*
X031984Y03128D01*
Y03102D01*
X032001Y030889D01*
X032051Y030768D01*
X032131Y030663D01*
X032149Y03065D01*
Y0306D01*
X032131Y030587D01*
X032051Y030482D01*
X032001Y030361D01*
X031984Y03023D01*
Y02997D01*
X032001Y029839D01*
X032051Y029718D01*
X032131Y029613D01*
Y029587D01*
X032051Y029482D01*
X032001Y029361D01*
X031984Y02923D01*
Y02897D01*
X032001Y028839D01*
X032051Y028718D01*
X032131Y028613D01*
X032149Y0286D01*
Y02855D01*
X032131Y028537D01*
X032051Y028432D01*
X032001Y028311D01*
X031984Y02818D01*
Y02792D01*
X032001Y027789D01*
X032051Y027668D01*
X032131Y027563D01*
Y027537D01*
X032051Y027432D01*
X032001Y027311D01*
X031984Y02718D01*
Y02692D01*
X032001Y026789D01*
X032051Y026668D01*
X032131Y026563D01*
X032152Y026548D01*
Y026485D01*
X032073Y026424D01*
X031989Y026315D01*
X031936Y026187D01*
X031933Y026159D01*
X031882D01*
X031882Y026161D01*
X031839Y026264D01*
X031771Y026353D01*
X031682Y026421D01*
X031579Y026464D01*
X031526Y026471D01*
Y026522D01*
X031592Y02653D01*
X03169Y026571D01*
X031773Y026635D01*
X031837Y026718D01*
X031878Y026816D01*
X031891Y02692D01*
Y027D01*
X031488D01*
Y0271D01*
X031891D01*
Y02718D01*
X031878Y027284D01*
X031837Y027382D01*
X031773Y027465D01*
X031704Y027518D01*
X031701Y027551D01*
X031703Y027564D01*
X031707Y027576D01*
X031783Y027635D01*
X031847Y027718D01*
X031888Y027816D01*
X031901Y02792D01*
Y028D01*
X031498D01*
Y0281D01*
X031901D01*
Y02818D01*
X031888Y028284D01*
X031847Y028382D01*
X031783Y028465D01*
X0317Y028529D01*
X03165Y02855D01*
Y028604D01*
X03169Y028621D01*
X031773Y028685D01*
X031837Y028768D01*
X031878Y028866D01*
X031891Y02897D01*
Y02905D01*
X031488D01*
Y02915D01*
X031891D01*
Y02923D01*
X031878Y029334D01*
X031837Y029432D01*
X031773Y029515D01*
X031704Y029568D01*
X031701Y029601D01*
X031703Y029614D01*
X031707Y029626D01*
X031783Y029685D01*
X031847Y029768D01*
X031888Y029866D01*
X031901Y02997D01*
Y03005D01*
X031498D01*
Y03015D01*
X031901D01*
Y03023D01*
X031888Y030334D01*
X031847Y030432D01*
X031783Y030515D01*
X0317Y030579D01*
X03165Y0306D01*
Y030654D01*
X03169Y030671D01*
X031773Y030735D01*
X031837Y030818D01*
X031878Y030916D01*
X031891Y03102D01*
Y0311D01*
X031488D01*
Y0312D01*
X031891D01*
Y03128D01*
X031878Y031384D01*
X031837Y031482D01*
X031773Y031565D01*
X031704Y031618D01*
X031701Y031651D01*
X031703Y031664D01*
X031707Y031676D01*
X031783Y031735D01*
X031847Y031818D01*
X031888Y031916D01*
X031901Y03202D01*
Y0321D01*
X031498D01*
Y03215D01*
X031448D01*
Y032677D01*
X031393Y03267D01*
X031296Y032629D01*
X031213Y032565D01*
X031148Y032482D01*
X031108Y032384D01*
X031105Y03236D01*
X031055Y032363D01*
Y040495D01*
X03153D01*
X031543Y040447D01*
X031537Y040443D01*
X03141Y04034D01*
X031307Y040213D01*
X031229Y040069D01*
X031182Y039913D01*
X031166Y03975D01*
X031182Y039587D01*
X031229Y039431D01*
X031307Y039287D01*
X03141Y03916D01*
X031537Y039057D01*
X031681Y038979D01*
X031837Y038932D01*
X032Y038916D01*
X032163Y038932D01*
X032319Y038979D01*
X032463Y039057D01*
X03259Y03916D01*
X032693Y039287D01*
X032771Y039431D01*
X032818Y039587D01*
X032834Y03975D01*
X032818Y039913D01*
X032771Y040069D01*
X032693Y040213D01*
X03259Y04034D01*
X032463Y040443D01*
X032457Y040447D01*
X03247Y040495D01*
X033455D01*
Y039555D01*
D02*
G37*
G36*
X044721Y039122D02*
X044734Y039117D01*
X044747Y039113D01*
X044777Y039107D01*
X044793Y039104D01*
X044827Y039101D01*
X044865Y0391D01*
X044874Y039D01*
X04486Y038999D01*
X044847Y038998D01*
X044835Y038995D01*
X044824Y038991D01*
X044814Y038986D01*
X044805Y03898D01*
X044797Y038973D01*
X04479Y038964D01*
X044784Y038955D01*
X044778Y038944D01*
X044708Y039127D01*
X044721Y039122D01*
D02*
G37*
G36*
X04565Y035193D02*
X045646Y03519D01*
X045642Y035187D01*
X045639Y035181D01*
X045637Y035175D01*
X045635Y035167D01*
X045633Y035157D01*
X045632Y035146D01*
X045631Y035119D01*
X045531D01*
X045531Y035133D01*
X045529Y035157D01*
X045527Y035167D01*
X045525Y035175D01*
X045523Y035181D01*
X04552Y035187D01*
X045516Y03519D01*
X045512Y035193D01*
X045508Y035193D01*
X045654D01*
X04565Y035193D01*
D02*
G37*
G36*
X047087Y035367D02*
X047078Y035357D01*
X04707Y035347D01*
X047063Y035336D01*
X047057Y035325D01*
X047051Y035314D01*
X047047Y035302D01*
X047044Y03529D01*
X047042Y035278D01*
X04704Y035265D01*
X04704Y035251D01*
X046901Y03539D01*
X046915Y03539D01*
X046928Y035392D01*
X04694Y035394D01*
X046952Y035397D01*
X046964Y035401D01*
X046975Y035407D01*
X046986Y035413D01*
X046997Y03542D01*
X047007Y035428D01*
X047017Y035437D01*
X047087Y035367D01*
D02*
G37*
G36*
X044361Y036469D02*
X04445Y036457D01*
X044495Y036463D01*
X044545Y036419D01*
Y035031D01*
X044499Y035012D01*
X043431Y03608D01*
Y036324D01*
X044311D01*
Y036445D01*
X044353Y036472D01*
X044361Y036469D01*
D02*
G37*
G36*
X046863Y035115D02*
X046851Y035118D01*
X046839Y035119D01*
X046828Y035119D01*
X046816Y035118D01*
X046805Y035115D01*
X046794Y035111D01*
X046783Y035106D01*
X046773Y035099D01*
X046763Y035091D01*
X046753Y035082D01*
X046702Y035172D01*
X046711Y035182D01*
X046719Y035192D01*
X046727Y035202D01*
X046734Y035212D01*
X04674Y035223D01*
X046746Y035235D01*
X046752Y035246D01*
X046756Y035259D01*
X046761Y035271D01*
X046764Y035284D01*
X046863Y035115D01*
D02*
G37*
G36*
X05034Y035623D02*
X050332Y03562D01*
X050325Y035615D01*
X050318Y035608D01*
X050312Y035599D01*
X050308Y035588D01*
X050304Y035574D01*
X050302Y035559D01*
X0503Y035542D01*
X0503Y035523D01*
X0502D01*
X050199Y035542D01*
X050198Y035559D01*
X050195Y035574D01*
X050192Y035588D01*
X050188Y035599D01*
X050182Y035608D01*
X050175Y035615D01*
X050168Y03562D01*
X05016Y035623D01*
X05015Y035624D01*
X05035D01*
X05034Y035623D01*
D02*
G37*
G36*
X051719Y035623D02*
X051715Y035621D01*
X051711Y035617D01*
X051708Y035612D01*
X051706Y035606D01*
X051704Y035597D01*
X051702Y035588D01*
X051701Y035577D01*
X0517Y03555D01*
X0516D01*
X0516Y035564D01*
X051598Y035588D01*
X051596Y035597D01*
X051594Y035606D01*
X051592Y035612D01*
X051589Y035617D01*
X051585Y035621D01*
X051581Y035623D01*
X051577Y035624D01*
X051723D01*
X051719Y035623D01*
D02*
G37*
G36*
X05245Y036269D02*
Y03535D01*
X0524Y035333D01*
X052392Y035342D01*
X052321Y035397D01*
X052239Y035431D01*
X05215Y035443D01*
X052134Y035441D01*
X052097Y035474D01*
Y035933D01*
Y036095D01*
X0521D01*
X052198Y036114D01*
X05228Y03617D01*
X0524Y03629D01*
X05245Y036269D01*
D02*
G37*
G36*
X048691Y035523D02*
X048682Y03552D01*
X048675Y035515D01*
X048668Y035508D01*
X048663Y035499D01*
X048658Y035488D01*
X048654Y035474D01*
X048652Y035459D01*
X04865Y035442D01*
X04865Y035423D01*
X04855D01*
X048549Y035442D01*
X048548Y035459D01*
X048545Y035474D01*
X048542Y035488D01*
X048538Y035499D01*
X048532Y035508D01*
X048526Y035515D01*
X048518Y03552D01*
X048509Y035523D01*
X0485Y035524D01*
X0487D01*
X048691Y035523D01*
D02*
G37*
G36*
X042593Y034678D02*
X042603Y03467D01*
X042614Y034663D01*
X042625Y034657D01*
X042636Y034651D01*
X042648Y034647D01*
X04266Y034644D01*
X042672Y034642D01*
X042685Y03464D01*
X042699Y03464D01*
X04256Y034501D01*
X04256Y034515D01*
X042558Y034528D01*
X042556Y03454D01*
X042553Y034552D01*
X042549Y034564D01*
X042543Y034575D01*
X042537Y034586D01*
X04253Y034597D01*
X042522Y034607D01*
X042513Y034617D01*
X042583Y034687D01*
X042593Y034678D01*
D02*
G37*
G36*
X0439Y034552D02*
X04389Y034561D01*
X04388Y034569D01*
X04387Y034576D01*
X043859Y034583D01*
X043848Y034588D01*
X043836Y034592D01*
X043824Y034596D01*
X043811Y034598D01*
X043799Y0346D01*
X043785Y0346D01*
Y0347D01*
X043799Y0347D01*
X043811Y034702D01*
X043824Y034704D01*
X043836Y034708D01*
X043848Y034712D01*
X043859Y034717D01*
X04387Y034724D01*
X04388Y034731D01*
X04389Y034739D01*
X0439Y034748D01*
Y034552D01*
D02*
G37*
G36*
X05113Y0344D02*
X051129Y034409D01*
X051126Y034418D01*
X051121Y034425D01*
X051114Y034432D01*
X051105Y034437D01*
X051094Y034442D01*
X05108Y034446D01*
X051065Y034448D01*
X051048Y03445D01*
X051029Y03445D01*
Y03455D01*
X051048Y03455D01*
X051065Y034552D01*
X05108Y034555D01*
X051094Y034558D01*
X051105Y034562D01*
X051114Y034568D01*
X051121Y034574D01*
X051126Y034582D01*
X051129Y03459D01*
X05113Y0346D01*
Y0344D01*
D02*
G37*
G36*
X05081Y034589D02*
X05082Y034581D01*
X05083Y034574D01*
X050841Y034567D01*
X050852Y034562D01*
X050864Y034558D01*
X050876Y034554D01*
X050889Y034552D01*
X050901Y03455D01*
X050915Y03455D01*
Y03445D01*
X050901Y03445D01*
X050889Y034448D01*
X050876Y034446D01*
X050864Y034442D01*
X050852Y034438D01*
X050841Y034433D01*
X05083Y034426D01*
X05082Y034419D01*
X05081Y034411D01*
X0508Y034402D01*
Y034598D01*
X05081Y034589D01*
D02*
G37*
G36*
X042996Y035794D02*
X043802Y034988D01*
X043796Y034922D01*
X043774Y034905D01*
X043206D01*
X042905Y035206D01*
Y03584D01*
X042955Y035855D01*
X042996Y035794D01*
D02*
G37*
G36*
X048203Y036127D02*
Y035833D01*
Y035322D01*
X048345D01*
Y033806D01*
X047451Y032912D01*
X047405Y032931D01*
Y0331D01*
X047386Y033198D01*
X04733Y03328D01*
X045962Y034649D01*
X045981Y034695D01*
X04655D01*
X046648Y034715D01*
X04673Y03477D01*
X046874Y034914D01*
X046891Y034913D01*
X046895Y034914D01*
X046899Y034914D01*
X046933Y034927D01*
X046966Y034939D01*
X046969Y034942D01*
X046973Y034943D01*
X046999Y034968D01*
X047026Y034992D01*
X047028Y034995D01*
X047031Y034998D01*
X047045Y035031D01*
X047054Y03505D01*
X047076Y035055D01*
X047113Y035061D01*
X047115Y035062D01*
X047118Y035063D01*
X047149Y035084D01*
X04718Y035103D01*
X047182Y035106D01*
X047184Y035107D01*
X047205Y035138D01*
X047226Y035168D01*
X047227Y035171D01*
X047228Y035173D01*
X047236Y03521D01*
X04724Y03523D01*
X048157Y036146D01*
X048203Y036127D01*
D02*
G37*
G36*
X052142Y034765D02*
X052121Y034744D01*
X052089Y034706D01*
X052077Y034689D01*
X052068Y034674D01*
X052063Y034661D01*
X05206Y034649D01*
X05206Y034639D01*
X052064Y034631D01*
X05207Y034624D01*
X05191Y034744D01*
X051919Y03474D01*
X051928Y034738D01*
X05194Y034738D01*
X051952Y034742D01*
X051965Y034747D01*
X05198Y034756D01*
X051996Y034767D01*
X052013Y034781D01*
X052052Y034816D01*
X052142Y034765D01*
D02*
G37*
G36*
X052239Y03499D02*
X052231Y03498D01*
X052224Y03497D01*
X052217Y034959D01*
X052212Y034948D01*
X052208Y034936D01*
X052204Y034924D01*
X052202Y034911D01*
X0522Y034899D01*
X0522Y034885D01*
X0521D01*
X0521Y034899D01*
X052098Y034911D01*
X052096Y034924D01*
X052092Y034936D01*
X052088Y034948D01*
X052083Y034959D01*
X052076Y03497D01*
X052069Y03498D01*
X052061Y03499D01*
X052052Y035D01*
X052248D01*
X052239Y03499D01*
D02*
G37*
G36*
X045937Y036342D02*
X045928Y036332D01*
X04592Y036322D01*
X045913Y036311D01*
X045907Y0363D01*
X045901Y036289D01*
X045897Y036277D01*
X045894Y036265D01*
X045892Y036253D01*
X04589Y03624D01*
X04589Y036226D01*
X045751Y036365D01*
X045765Y036365D01*
X045778Y036367D01*
X04579Y036369D01*
X045802Y036372D01*
X045814Y036376D01*
X045825Y036382D01*
X045836Y036388D01*
X045847Y036395D01*
X045857Y036403D01*
X045867Y036412D01*
X045937Y036342D01*
D02*
G37*
G36*
X046774Y036103D02*
X046774Y03609D01*
X046776Y036077D01*
X046778Y036064D01*
X04678Y036052D01*
X046784Y03604D01*
X046788Y036028D01*
X046793Y036016D01*
X046799Y036004D01*
X046806Y035993D01*
X046814Y035982D01*
X046621Y036015D01*
X046631Y036023D01*
X04664Y036031D01*
X046648Y03604D01*
X046655Y03605D01*
X046661Y03606D01*
X046665Y036071D01*
X046669Y036083D01*
X046672Y036095D01*
X046673Y036108D01*
X046674Y036122D01*
X046774Y036103D01*
D02*
G37*
G36*
X041979Y03608D02*
X041976Y036084D01*
X041972Y036087D01*
X041967Y03609D01*
X041961Y036093D01*
X041953Y036095D01*
X041945Y036097D01*
X041935Y036098D01*
X041913Y0361D01*
X0419Y0361D01*
Y0362D01*
X041913Y0362D01*
X041935Y036202D01*
X041945Y036203D01*
X041953Y036205D01*
X041961Y036207D01*
X041967Y03621D01*
X041972Y036213D01*
X041976Y036216D01*
X041979Y03622D01*
Y03608D01*
D02*
G37*
G36*
X046699Y03576D02*
X046685Y03576D01*
X046672Y035758D01*
X04666Y035756D01*
X046648Y035753D01*
X046636Y035749D01*
X046625Y035743D01*
X046614Y035737D01*
X046603Y03573D01*
X046593Y035722D01*
X046583Y035713D01*
X046513Y035783D01*
X046522Y035793D01*
X04653Y035803D01*
X046537Y035814D01*
X046543Y035825D01*
X046549Y035836D01*
X046553Y035848D01*
X046556Y03586D01*
X046558Y035872D01*
X04656Y035885D01*
X04656Y035899D01*
X046699Y03576D01*
D02*
G37*
G36*
X046505Y035634D02*
X046492Y03562D01*
X046479Y035606D01*
X046469Y035592D01*
X04646Y035578D01*
X046452Y035564D01*
X046446Y035549D01*
X046441Y035535D01*
X046437Y035521D01*
X046435Y035507D01*
X046434Y035493D01*
Y035776D01*
X046435Y035763D01*
X046437Y035753D01*
X046441Y035746D01*
X046446Y035742D01*
X046452Y03574D01*
X04646Y035742D01*
X046469Y035746D01*
X046479Y035753D01*
X046492Y035763D01*
X046505Y035776D01*
Y035634D01*
D02*
G37*
G36*
X045589Y037974D02*
X046469D01*
Y037326D01*
X045589D01*
Y036526D01*
X045579Y036522D01*
X045508Y036467D01*
X045453Y036396D01*
X045419Y036314D01*
X045407Y036225D01*
X045419Y036136D01*
X045453Y036054D01*
X045508Y035983D01*
X045538Y035959D01*
X045521Y035909D01*
X045305D01*
Y0375D01*
X045286Y037598D01*
X04523Y03768D01*
X045048Y037862D01*
X045054Y037928D01*
X045092Y037958D01*
X045147Y038029D01*
X045181Y038111D01*
X04519Y03818D01*
X045206Y038195D01*
X045589D01*
Y037974D01*
D02*
G37*
G36*
X047169Y036911D02*
X047203Y036829D01*
X047258Y036758D01*
X047329Y036703D01*
X047411Y036669D01*
X0475Y036657D01*
X047589Y036669D01*
X047671Y036703D01*
X047726Y036745D01*
X047969D01*
X047988Y036699D01*
X047074Y035785D01*
X047034Y03581D01*
X047031Y035813D01*
X047043Y0359D01*
X047031Y035989D01*
X046997Y036071D01*
X046988Y036083D01*
X046983Y036096D01*
X046979Y036101D01*
Y036374D01*
X047111D01*
Y036967D01*
X047161Y03697D01*
X047169Y036911D01*
D02*
G37*
%LPC*%
G36*
X0445Y021335D02*
X044456Y021326D01*
X044377Y021273D01*
X044324Y021194D01*
X044315Y02115D01*
X0445D01*
Y021335D01*
D02*
G37*
G36*
X0455Y02105D02*
X045315D01*
X045324Y021006D01*
X045377Y020927D01*
X045456Y020874D01*
X0455Y020865D01*
Y02105D01*
D02*
G37*
G36*
X045785D02*
X0456D01*
Y020865D01*
X045644Y020874D01*
X045723Y020927D01*
X045776Y021006D01*
X045785Y02105D01*
D02*
G37*
G36*
X0465D02*
X046315D01*
X046324Y021006D01*
X046377Y020927D01*
X046456Y020874D01*
X0465Y020865D01*
Y02105D01*
D02*
G37*
G36*
X044785D02*
X0446D01*
Y020865D01*
X044644Y020874D01*
X044723Y020927D01*
X044776Y021006D01*
X044785Y02105D01*
D02*
G37*
G36*
X0445D02*
X044315D01*
X044324Y021006D01*
X044377Y020927D01*
X044456Y020874D01*
X0445Y020865D01*
Y02105D01*
D02*
G37*
G36*
X046785D02*
X0466D01*
Y020865D01*
X046644Y020874D01*
X046723Y020927D01*
X046776Y021006D01*
X046785Y02105D01*
D02*
G37*
G36*
X0495D02*
X049315D01*
X049324Y021006D01*
X049377Y020927D01*
X049456Y020874D01*
X0495Y020865D01*
Y02105D01*
D02*
G37*
G36*
X049785D02*
X0496D01*
Y020865D01*
X049644Y020874D01*
X049723Y020927D01*
X049776Y021006D01*
X049785Y02105D01*
D02*
G37*
G36*
X0505D02*
X050315D01*
X050324Y021006D01*
X050377Y020927D01*
X050456Y020874D01*
X0505Y020865D01*
Y02105D01*
D02*
G37*
G36*
X048785D02*
X0486D01*
Y020865D01*
X048644Y020874D01*
X048723Y020927D01*
X048776Y021006D01*
X048785Y02105D01*
D02*
G37*
G36*
X0475D02*
X047315D01*
X047324Y021006D01*
X047377Y020927D01*
X047456Y020874D01*
X0475Y020865D01*
Y02105D01*
D02*
G37*
G36*
X047785D02*
X0476D01*
Y020865D01*
X047644Y020874D01*
X047723Y020927D01*
X047776Y021006D01*
X047785Y02105D01*
D02*
G37*
G36*
X0485D02*
X048315D01*
X048324Y021006D01*
X048377Y020927D01*
X048456Y020874D01*
X0485Y020865D01*
Y02105D01*
D02*
G37*
G36*
X051Y02205D02*
X050815D01*
X050824Y022006D01*
X050877Y021927D01*
X050956Y021874D01*
X051Y021865D01*
Y02205D01*
D02*
G37*
G36*
X051285D02*
X0511D01*
Y021865D01*
X051144Y021874D01*
X051223Y021927D01*
X051276Y022006D01*
X051285Y02205D01*
D02*
G37*
G36*
X051Y022335D02*
X050956Y022326D01*
X050877Y022273D01*
X050824Y022194D01*
X050815Y02215D01*
X051D01*
Y022335D01*
D02*
G37*
G36*
X0466Y021335D02*
Y02115D01*
X046785D01*
X046776Y021194D01*
X046723Y021273D01*
X046644Y021326D01*
X0466Y021335D01*
D02*
G37*
G36*
X0475D02*
X047456Y021326D01*
X047377Y021273D01*
X047324Y021194D01*
X047315Y02115D01*
X0475D01*
Y021335D01*
D02*
G37*
G36*
X0476D02*
Y02115D01*
X047785D01*
X047776Y021194D01*
X047723Y021273D01*
X047644Y021326D01*
X0476Y021335D01*
D02*
G37*
G36*
X0465D02*
X046456Y021326D01*
X046377Y021273D01*
X046324Y021194D01*
X046315Y02115D01*
X0465D01*
Y021335D01*
D02*
G37*
G36*
X0446D02*
Y02115D01*
X044785D01*
X044776Y021194D01*
X044723Y021273D01*
X044644Y021326D01*
X0446Y021335D01*
D02*
G37*
G36*
X0455D02*
X045456Y021326D01*
X045377Y021273D01*
X045324Y021194D01*
X045315Y02115D01*
X0455D01*
Y021335D01*
D02*
G37*
G36*
X0456D02*
Y02115D01*
X045785D01*
X045776Y021194D01*
X045723Y021273D01*
X045644Y021326D01*
X0456Y021335D01*
D02*
G37*
G36*
X0505D02*
X050456Y021326D01*
X050377Y021273D01*
X050324Y021194D01*
X050315Y02115D01*
X0505D01*
Y021335D01*
D02*
G37*
G36*
X0496D02*
Y02115D01*
X049785D01*
X049776Y021194D01*
X049723Y021273D01*
X049644Y021326D01*
X0496Y021335D01*
D02*
G37*
G36*
X0485D02*
X048456Y021326D01*
X048377Y021273D01*
X048324Y021194D01*
X048315Y02115D01*
X0485D01*
Y021335D01*
D02*
G37*
G36*
X0486D02*
Y02115D01*
X048785D01*
X048776Y021194D01*
X048723Y021273D01*
X048644Y021326D01*
X0486Y021335D01*
D02*
G37*
G36*
X0495D02*
X049456Y021326D01*
X049377Y021273D01*
X049324Y021194D01*
X049315Y02115D01*
X0495D01*
Y021335D01*
D02*
G37*
G36*
X0451Y020335D02*
Y02015D01*
X045285D01*
X045276Y020194D01*
X045223Y020273D01*
X045144Y020326D01*
X0451Y020335D01*
D02*
G37*
G36*
X045D02*
X044956Y020326D01*
X044877Y020273D01*
X044824Y020194D01*
X044815Y02015D01*
X045D01*
Y020335D01*
D02*
G37*
G36*
X046D02*
X045956Y020326D01*
X045877Y020273D01*
X045824Y020194D01*
X045815Y02015D01*
X046D01*
Y020335D01*
D02*
G37*
G36*
X047D02*
X046956Y020326D01*
X046877Y020273D01*
X046824Y020194D01*
X046815Y02015D01*
X047D01*
Y020335D01*
D02*
G37*
G36*
X0471D02*
Y02015D01*
X047285D01*
X047276Y020194D01*
X047223Y020273D01*
X047144Y020326D01*
X0471Y020335D01*
D02*
G37*
G36*
X0461D02*
Y02015D01*
X046285D01*
X046276Y020194D01*
X046223Y020273D01*
X046144Y020326D01*
X0461Y020335D01*
D02*
G37*
G36*
X05Y02005D02*
X049815D01*
X049824Y020006D01*
X049877Y019927D01*
X049956Y019874D01*
X05Y019865D01*
Y02005D01*
D02*
G37*
G36*
X048285D02*
X0481D01*
Y019865D01*
X048144Y019874D01*
X048223Y019927D01*
X048276Y020006D01*
X048285Y02005D01*
D02*
G37*
G36*
X048D02*
X047815D01*
X047824Y020006D01*
X047877Y019927D01*
X047956Y019874D01*
X048Y019865D01*
Y02005D01*
D02*
G37*
G36*
X049D02*
X048815D01*
X048824Y020006D01*
X048877Y019927D01*
X048956Y019874D01*
X049Y019865D01*
Y02005D01*
D02*
G37*
G36*
X049285D02*
X0491D01*
Y019865D01*
X049144Y019874D01*
X049223Y019927D01*
X049276Y020006D01*
X049285Y02005D01*
D02*
G37*
G36*
X050285D02*
X0501D01*
Y019865D01*
X050144Y019874D01*
X050223Y019927D01*
X050276Y020006D01*
X050285Y02005D01*
D02*
G37*
G36*
X046D02*
X045815D01*
X045824Y020006D01*
X045877Y019927D01*
X045956Y019874D01*
X046Y019865D01*
Y02005D01*
D02*
G37*
G36*
X046285D02*
X0461D01*
Y019865D01*
X046144Y019874D01*
X046223Y019927D01*
X046276Y020006D01*
X046285Y02005D01*
D02*
G37*
G36*
X045285D02*
X0451D01*
Y019865D01*
X045144Y019874D01*
X045223Y019927D01*
X045276Y020006D01*
X045285Y02005D01*
D02*
G37*
G36*
X047D02*
X046815D01*
X046824Y020006D01*
X046877Y019927D01*
X046956Y019874D01*
X047Y019865D01*
Y02005D01*
D02*
G37*
G36*
X0481Y020335D02*
Y02015D01*
X048285D01*
X048276Y020194D01*
X048223Y020273D01*
X048144Y020326D01*
X0481Y020335D01*
D02*
G37*
G36*
X047285Y02005D02*
X0471D01*
Y019865D01*
X047144Y019874D01*
X047223Y019927D01*
X047276Y020006D01*
X047285Y02005D01*
D02*
G37*
G36*
X048Y020335D02*
X047956Y020326D01*
X047877Y020273D01*
X047824Y020194D01*
X047815Y02015D01*
X048D01*
Y020335D01*
D02*
G37*
G36*
X045Y02005D02*
X044815D01*
X044824Y020006D01*
X044877Y019927D01*
X044956Y019874D01*
X045Y019865D01*
Y02005D01*
D02*
G37*
G36*
X0491Y020335D02*
Y02015D01*
X049285D01*
X049276Y020194D01*
X049223Y020273D01*
X049144Y020326D01*
X0491Y020335D01*
D02*
G37*
G36*
X05D02*
X049956Y020326D01*
X049877Y020273D01*
X049824Y020194D01*
X049815Y02015D01*
X05D01*
Y020335D01*
D02*
G37*
G36*
X0501D02*
Y02015D01*
X050285D01*
X050276Y020194D01*
X050223Y020273D01*
X050144Y020326D01*
X0501Y020335D01*
D02*
G37*
G36*
X049D02*
X048956Y020326D01*
X048877Y020273D01*
X048824Y020194D01*
X048815Y02015D01*
X049D01*
Y020335D01*
D02*
G37*
G36*
X040585Y02695D02*
X0404D01*
Y026765D01*
X040444Y026774D01*
X040523Y026827D01*
X040576Y026906D01*
X040585Y02695D01*
D02*
G37*
G36*
X0393Y02575D02*
X03886D01*
X038864Y025723D01*
X038894Y02565D01*
X038941Y025588D01*
X039003Y025541D01*
X039076Y025511D01*
X039153Y025501D01*
X0393D01*
Y02575D01*
D02*
G37*
G36*
X03984D02*
X0394D01*
Y025501D01*
X039547D01*
X039624Y025511D01*
X039697Y025541D01*
X039759Y025588D01*
X039806Y02565D01*
X039836Y025723D01*
X03984Y02575D01*
D02*
G37*
G36*
X04775Y025035D02*
Y02485D01*
X047935D01*
X047926Y024894D01*
X047873Y024973D01*
X047794Y025026D01*
X04775Y025035D01*
D02*
G37*
G36*
X0505Y02505D02*
X050315D01*
X050324Y025006D01*
X050377Y024927D01*
X050456Y024874D01*
X0505Y024865D01*
Y02505D01*
D02*
G37*
G36*
X050785D02*
X0506D01*
Y024865D01*
X050644Y024874D01*
X050723Y024927D01*
X050776Y025006D01*
X050785Y02505D01*
D02*
G37*
G36*
X04765Y025035D02*
X047606Y025026D01*
X047527Y024973D01*
X047474Y024894D01*
X047465Y02485D01*
X04765D01*
Y025035D01*
D02*
G37*
G36*
X0505Y025335D02*
X050456Y025326D01*
X050377Y025273D01*
X050324Y025194D01*
X050315Y02515D01*
X0505D01*
Y025335D01*
D02*
G37*
G36*
X0506D02*
Y02515D01*
X050785D01*
X050776Y025194D01*
X050723Y025273D01*
X050644Y025326D01*
X0506Y025335D01*
D02*
G37*
G36*
X047935Y02475D02*
X04775D01*
Y024565D01*
X047794Y024574D01*
X047873Y024627D01*
X047926Y024706D01*
X047935Y02475D01*
D02*
G37*
G36*
X0483Y023085D02*
X048256Y023076D01*
X048177Y023023D01*
X048124Y022944D01*
X048115Y0229D01*
X0483D01*
Y023085D01*
D02*
G37*
G36*
X0484D02*
Y0229D01*
X048585D01*
X048576Y022944D01*
X048523Y023023D01*
X048444Y023076D01*
X0484Y023085D01*
D02*
G37*
G36*
X047Y023135D02*
X046956Y023126D01*
X046877Y023073D01*
X046824Y022994D01*
X046815Y02295D01*
X047D01*
Y023135D01*
D02*
G37*
G36*
X0471D02*
Y02295D01*
X047285D01*
X047276Y022994D01*
X047223Y023073D01*
X047144Y023126D01*
X0471Y023135D01*
D02*
G37*
G36*
X04947Y023354D02*
X049418Y023347D01*
X049322Y023308D01*
X04924Y023245D01*
X049177Y023163D01*
X049137Y023067D01*
X04913Y023014D01*
X04947D01*
Y023354D01*
D02*
G37*
G36*
X04957D02*
Y023014D01*
X049911D01*
X049904Y023067D01*
X049864Y023163D01*
X049801Y023245D01*
X049719Y023308D01*
X049623Y023347D01*
X04957Y023354D01*
D02*
G37*
G36*
X04947Y022914D02*
X04913D01*
X049137Y022861D01*
X049177Y022766D01*
X04924Y022684D01*
X049322Y022621D01*
X049418Y022581D01*
X04947Y022574D01*
Y022914D01*
D02*
G37*
G36*
X0511Y022335D02*
Y02215D01*
X051285D01*
X051276Y022194D01*
X051223Y022273D01*
X051144Y022326D01*
X0511Y022335D01*
D02*
G37*
G36*
X0426Y0225D02*
X042415D01*
X042424Y022456D01*
X042477Y022377D01*
X042556Y022324D01*
X0426Y022315D01*
Y0225D01*
D02*
G37*
G36*
X042885D02*
X0427D01*
Y022315D01*
X042744Y022324D01*
X042823Y022377D01*
X042876Y022456D01*
X042885Y0225D01*
D02*
G37*
G36*
X049911Y022914D02*
X04957D01*
Y022574D01*
X049623Y022581D01*
X049719Y022621D01*
X049801Y022684D01*
X049864Y022766D01*
X049904Y022861D01*
X049911Y022914D01*
D02*
G37*
G36*
X048585Y0228D02*
X0484D01*
Y022615D01*
X048444Y022624D01*
X048523Y022677D01*
X048576Y022756D01*
X048585Y0228D01*
D02*
G37*
G36*
X047Y02285D02*
X046815D01*
X046824Y022806D01*
X046877Y022727D01*
X046956Y022674D01*
X047Y022665D01*
Y02285D01*
D02*
G37*
G36*
X047285D02*
X0471D01*
Y022665D01*
X047144Y022674D01*
X047223Y022727D01*
X047276Y022806D01*
X047285Y02285D01*
D02*
G37*
G36*
X0426Y022785D02*
X042556Y022776D01*
X042477Y022723D01*
X042424Y022644D01*
X042415Y0226D01*
X0426D01*
Y022785D01*
D02*
G37*
G36*
X0427D02*
Y0226D01*
X042885D01*
X042876Y022644D01*
X042823Y022723D01*
X042744Y022776D01*
X0427Y022785D01*
D02*
G37*
G36*
X0483Y0228D02*
X048115D01*
X048124Y022756D01*
X048177Y022677D01*
X048256Y022624D01*
X0483Y022615D01*
Y0228D01*
D02*
G37*
G36*
X0484Y024185D02*
Y024D01*
X048585D01*
X048576Y024044D01*
X048523Y024123D01*
X048444Y024176D01*
X0484Y024185D01*
D02*
G37*
G36*
X0483D02*
X048256Y024176D01*
X048177Y024123D01*
X048124Y024044D01*
X048115Y024D01*
X0483D01*
Y024185D01*
D02*
G37*
G36*
X050285Y02405D02*
X0501D01*
Y023865D01*
X050144Y023874D01*
X050223Y023927D01*
X050276Y024006D01*
X050285Y02405D01*
D02*
G37*
G36*
X04695Y024135D02*
X046906Y024126D01*
X046827Y024073D01*
X046774Y023994D01*
X046765Y02395D01*
X04695D01*
Y024135D01*
D02*
G37*
G36*
X04705D02*
Y02395D01*
X047235D01*
X047226Y023994D01*
X047173Y024073D01*
X047094Y024126D01*
X04705Y024135D01*
D02*
G37*
G36*
X04305Y024993D02*
X042961Y024981D01*
X042879Y024947D01*
X042808Y024892D01*
X042753Y024821D01*
X042719Y024739D01*
X042707Y02465D01*
X042719Y024561D01*
X042753Y024479D01*
X042808Y024408D01*
X042879Y024353D01*
X042961Y024319D01*
X04305Y024307D01*
X043139Y024319D01*
X043221Y024353D01*
X043292Y024408D01*
X043347Y024479D01*
X043381Y024561D01*
X043393Y02465D01*
X043381Y024739D01*
X043347Y024821D01*
X043292Y024892D01*
X043221Y024947D01*
X043139Y024981D01*
X04305Y024993D01*
D02*
G37*
G36*
X0457Y025093D02*
X045611Y025081D01*
X045529Y025047D01*
X045458Y024992D01*
X045403Y024921D01*
X045369Y024839D01*
X045357Y02475D01*
X045369Y024661D01*
X045403Y024579D01*
X045458Y024508D01*
X045529Y024453D01*
X045611Y024419D01*
X0457Y024407D01*
X045789Y024419D01*
X045871Y024453D01*
X045942Y024508D01*
X045997Y024579D01*
X046031Y024661D01*
X046043Y02475D01*
X046031Y024839D01*
X045997Y024921D01*
X045942Y024992D01*
X045871Y025047D01*
X045789Y025081D01*
X0457Y025093D01*
D02*
G37*
G36*
X04765Y02475D02*
X047465D01*
X047474Y024706D01*
X047527Y024627D01*
X047606Y024574D01*
X04765Y024565D01*
Y02475D01*
D02*
G37*
G36*
X0501Y024335D02*
Y02415D01*
X050285D01*
X050276Y024194D01*
X050223Y024273D01*
X050144Y024326D01*
X0501Y024335D01*
D02*
G37*
G36*
X05D02*
X049956Y024326D01*
X049877Y024273D01*
X049824Y024194D01*
X049815Y02415D01*
X05D01*
Y024335D01*
D02*
G37*
G36*
Y02405D02*
X049815D01*
X049824Y024006D01*
X049877Y023927D01*
X049956Y023874D01*
X05Y023865D01*
Y02405D01*
D02*
G37*
G36*
X04695Y02385D02*
X046765D01*
X046774Y023806D01*
X046827Y023727D01*
X046906Y023674D01*
X04695Y023665D01*
Y02385D01*
D02*
G37*
G36*
X047235D02*
X04705D01*
Y023665D01*
X047094Y023674D01*
X047173Y023727D01*
X047226Y023806D01*
X047235Y02385D01*
D02*
G37*
G36*
X0483Y0239D02*
X048115D01*
X048124Y023856D01*
X048177Y023777D01*
X048256Y023724D01*
X0483Y023715D01*
Y0239D01*
D02*
G37*
G36*
X0417Y023685D02*
Y0235D01*
X041885D01*
X041876Y023544D01*
X041823Y023623D01*
X041744Y023676D01*
X0417Y023685D01*
D02*
G37*
G36*
X0416Y0234D02*
X041415D01*
X041424Y023356D01*
X041477Y023277D01*
X041556Y023224D01*
X0416Y023215D01*
Y0234D01*
D02*
G37*
G36*
X041885D02*
X0417D01*
Y023215D01*
X041744Y023224D01*
X041823Y023277D01*
X041876Y023356D01*
X041885Y0234D01*
D02*
G37*
G36*
X0416Y023685D02*
X041556Y023676D01*
X041477Y023623D01*
X041424Y023544D01*
X041415Y0235D01*
X0416D01*
Y023685D01*
D02*
G37*
G36*
X048585Y0239D02*
X0484D01*
Y023715D01*
X048444Y023724D01*
X048523Y023777D01*
X048576Y023856D01*
X048585Y0239D01*
D02*
G37*
G36*
X03705Y029293D02*
X036961Y029281D01*
X036879Y029247D01*
X036808Y029192D01*
X036753Y029121D01*
X036719Y029039D01*
X036707Y02895D01*
X036719Y028861D01*
X036753Y028779D01*
X036808Y028708D01*
X036879Y028653D01*
X036961Y028619D01*
X03705Y028607D01*
X037139Y028619D01*
X037221Y028653D01*
X037292Y028708D01*
X037347Y028779D01*
X037381Y028861D01*
X037393Y02895D01*
X037381Y029039D01*
X037347Y029121D01*
X037292Y029192D01*
X037221Y029247D01*
X037139Y029281D01*
X03705Y029293D01*
D02*
G37*
G36*
X0363Y028985D02*
X036256Y028976D01*
X036177Y028923D01*
X036124Y028844D01*
X036115Y0288D01*
X0363D01*
Y028985D01*
D02*
G37*
G36*
X0364D02*
Y0288D01*
X036585D01*
X036576Y028844D01*
X036523Y028923D01*
X036444Y028976D01*
X0364Y028985D01*
D02*
G37*
G36*
X0335Y021335D02*
X033456Y021326D01*
X033377Y021273D01*
X033324Y021194D01*
X033315Y02115D01*
X0335D01*
Y021335D01*
D02*
G37*
G36*
X0346D02*
Y02115D01*
X034785D01*
X034776Y021194D01*
X034723Y021273D01*
X034644Y021326D01*
X0346Y021335D01*
D02*
G37*
G36*
X0336D02*
Y02115D01*
X033785D01*
X033776Y021194D01*
X033723Y021273D01*
X033644Y021326D01*
X0336Y021335D01*
D02*
G37*
G36*
X0345D02*
X034456Y021326D01*
X034377Y021273D01*
X034324Y021194D01*
X034315Y02115D01*
X0345D01*
Y021335D01*
D02*
G37*
G36*
X0405D02*
X040456Y021326D01*
X040377Y021273D01*
X040324Y021194D01*
X040315Y02115D01*
X0405D01*
Y021335D01*
D02*
G37*
G36*
X0406D02*
Y02115D01*
X040785D01*
X040776Y021194D01*
X040723Y021273D01*
X040644Y021326D01*
X0406Y021335D01*
D02*
G37*
G36*
X0396D02*
Y02115D01*
X039785D01*
X039776Y021194D01*
X039723Y021273D01*
X039644Y021326D01*
X0396Y021335D01*
D02*
G37*
G36*
X0355D02*
X035456Y021326D01*
X035377Y021273D01*
X035324Y021194D01*
X035315Y02115D01*
X0355D01*
Y021335D01*
D02*
G37*
G36*
X0356D02*
Y02115D01*
X035785D01*
X035776Y021194D01*
X035723Y021273D01*
X035644Y021326D01*
X0356Y021335D01*
D02*
G37*
G36*
X0395D02*
X039456Y021326D01*
X039377Y021273D01*
X039324Y021194D01*
X039315Y02115D01*
X0395D01*
Y021335D01*
D02*
G37*
G36*
X0405Y02105D02*
X040315D01*
X040324Y021006D01*
X040377Y020927D01*
X040456Y020874D01*
X0405Y020865D01*
Y02105D01*
D02*
G37*
G36*
X040785D02*
X0406D01*
Y020865D01*
X040644Y020874D01*
X040723Y020927D01*
X040776Y021006D01*
X040785Y02105D01*
D02*
G37*
G36*
X03835Y022693D02*
X038261Y022681D01*
X038179Y022647D01*
X038108Y022592D01*
X038053Y022521D01*
X038019Y022439D01*
X038007Y02235D01*
X038019Y022261D01*
X038053Y022179D01*
X038108Y022108D01*
X038179Y022053D01*
X038261Y022019D01*
X03835Y022007D01*
X038439Y022019D01*
X038521Y022053D01*
X038592Y022108D01*
X038647Y022179D01*
X038681Y022261D01*
X038693Y02235D01*
X038681Y022439D01*
X038647Y022521D01*
X038592Y022592D01*
X038521Y022647D01*
X038439Y022681D01*
X03835Y022693D01*
D02*
G37*
G36*
X034285Y02205D02*
X0341D01*
Y021865D01*
X034144Y021874D01*
X034223Y021927D01*
X034276Y022006D01*
X034285Y02205D01*
D02*
G37*
G36*
X033D02*
X032815D01*
X032824Y022006D01*
X032877Y021927D01*
X032956Y021874D01*
X033Y021865D01*
Y02205D01*
D02*
G37*
G36*
X033285D02*
X0331D01*
Y021865D01*
X033144Y021874D01*
X033223Y021927D01*
X033276Y022006D01*
X033285Y02205D01*
D02*
G37*
G36*
X034D02*
X033815D01*
X033824Y022006D01*
X033877Y021927D01*
X033956Y021874D01*
X034Y021865D01*
Y02205D01*
D02*
G37*
G36*
Y022335D02*
X033956Y022326D01*
X033877Y022273D01*
X033824Y022194D01*
X033815Y02215D01*
X034D01*
Y022335D01*
D02*
G37*
G36*
X0341D02*
Y02215D01*
X034285D01*
X034276Y022194D01*
X034223Y022273D01*
X034144Y022326D01*
X0341Y022335D01*
D02*
G37*
G36*
X0331D02*
Y02215D01*
X033285D01*
X033276Y022194D01*
X033223Y022273D01*
X033144Y022326D01*
X0331Y022335D01*
D02*
G37*
G36*
X032D02*
X031956Y022326D01*
X031877Y022273D01*
X031824Y022194D01*
X031815Y02215D01*
X032D01*
Y022335D01*
D02*
G37*
G36*
X0321D02*
Y02215D01*
X032285D01*
X032276Y022194D01*
X032223Y022273D01*
X032144Y022326D01*
X0321Y022335D01*
D02*
G37*
G36*
X033D02*
X032956Y022326D01*
X032877Y022273D01*
X032824Y022194D01*
X032815Y02215D01*
X033D01*
Y022335D01*
D02*
G37*
G36*
X032Y02205D02*
X031815D01*
X031824Y022006D01*
X031877Y021927D01*
X031956Y021874D01*
X032Y021865D01*
Y02205D01*
D02*
G37*
G36*
X032285D02*
X0321D01*
Y021865D01*
X032144Y021874D01*
X032223Y021927D01*
X032276Y022006D01*
X032285Y02205D01*
D02*
G37*
G36*
X035285Y02005D02*
X0351D01*
Y019865D01*
X035144Y019874D01*
X035223Y019927D01*
X035276Y020006D01*
X035285Y02005D01*
D02*
G37*
G36*
X035D02*
X034815D01*
X034824Y020006D01*
X034877Y019927D01*
X034956Y019874D01*
X035Y019865D01*
Y02005D01*
D02*
G37*
G36*
X04Y020335D02*
X039956Y020326D01*
X039877Y020273D01*
X039824Y020194D01*
X039815Y02015D01*
X04D01*
Y020335D01*
D02*
G37*
G36*
X0401D02*
Y02015D01*
X040285D01*
X040276Y020194D01*
X040223Y020273D01*
X040144Y020326D01*
X0401Y020335D01*
D02*
G37*
G36*
X034285Y02005D02*
X0341D01*
Y019865D01*
X034144Y019874D01*
X034223Y019927D01*
X034276Y020006D01*
X034285Y02005D01*
D02*
G37*
G36*
X033Y020335D02*
X032956Y020326D01*
X032877Y020273D01*
X032824Y020194D01*
X032815Y02015D01*
X033D01*
Y020335D01*
D02*
G37*
G36*
X0391D02*
Y02015D01*
X039285D01*
X039276Y020194D01*
X039223Y020273D01*
X039144Y020326D01*
X0391Y020335D01*
D02*
G37*
G36*
X040285Y02005D02*
X0401D01*
Y019865D01*
X040144Y019874D01*
X040223Y019927D01*
X040276Y020006D01*
X040285Y02005D01*
D02*
G37*
G36*
X0341Y020335D02*
Y02015D01*
X034285D01*
X034276Y020194D01*
X034223Y020273D01*
X034144Y020326D01*
X0341Y020335D01*
D02*
G37*
G36*
X035D02*
X034956Y020326D01*
X034877Y020273D01*
X034824Y020194D01*
X034815Y02015D01*
X035D01*
Y020335D01*
D02*
G37*
G36*
X0351D02*
Y02015D01*
X035285D01*
X035276Y020194D01*
X035223Y020273D01*
X035144Y020326D01*
X0351Y020335D01*
D02*
G37*
G36*
X04Y02005D02*
X039815D01*
X039824Y020006D01*
X039877Y019927D01*
X039956Y019874D01*
X04Y019865D01*
Y02005D01*
D02*
G37*
G36*
X039285D02*
X0391D01*
Y019865D01*
X039144Y019874D01*
X039223Y019927D01*
X039276Y020006D01*
X039285Y02005D01*
D02*
G37*
G36*
X039D02*
X038815D01*
X038824Y020006D01*
X038877Y019927D01*
X038956Y019874D01*
X039Y019865D01*
Y02005D01*
D02*
G37*
G36*
Y020335D02*
X038956Y020326D01*
X038877Y020273D01*
X038824Y020194D01*
X038815Y02015D01*
X039D01*
Y020335D01*
D02*
G37*
G36*
X034D02*
X033956Y020326D01*
X033877Y020273D01*
X033824Y020194D01*
X033815Y02015D01*
X034D01*
Y020335D01*
D02*
G37*
G36*
X0335Y02105D02*
X033315D01*
X033324Y021006D01*
X033377Y020927D01*
X033456Y020874D01*
X0335Y020865D01*
Y02105D01*
D02*
G37*
G36*
X033785D02*
X0336D01*
Y020865D01*
X033644Y020874D01*
X033723Y020927D01*
X033776Y021006D01*
X033785Y02105D01*
D02*
G37*
G36*
X0409Y020542D02*
Y0202D01*
X041242D01*
X041235Y020253D01*
X041195Y020349D01*
X041132Y020432D01*
X041049Y020495D01*
X040953Y020535D01*
X0409Y020542D01*
D02*
G37*
G36*
X0331Y020335D02*
Y02015D01*
X033285D01*
X033276Y020194D01*
X033223Y020273D01*
X033144Y020326D01*
X0331Y020335D01*
D02*
G37*
G36*
X0345Y02105D02*
X034315D01*
X034324Y021006D01*
X034377Y020927D01*
X034456Y020874D01*
X0345Y020865D01*
Y02105D01*
D02*
G37*
G36*
X0395D02*
X039315D01*
X039324Y021006D01*
X039377Y020927D01*
X039456Y020874D01*
X0395Y020865D01*
Y02105D01*
D02*
G37*
G36*
X039785D02*
X0396D01*
Y020865D01*
X039644Y020874D01*
X039723Y020927D01*
X039776Y021006D01*
X039785Y02105D01*
D02*
G37*
G36*
X034785D02*
X0346D01*
Y020865D01*
X034644Y020874D01*
X034723Y020927D01*
X034776Y021006D01*
X034785Y02105D01*
D02*
G37*
G36*
X0355D02*
X035315D01*
X035324Y021006D01*
X035377Y020927D01*
X035456Y020874D01*
X0355Y020865D01*
Y02105D01*
D02*
G37*
G36*
X035785D02*
X0356D01*
Y020865D01*
X035644Y020874D01*
X035723Y020927D01*
X035776Y021006D01*
X035785Y02105D01*
D02*
G37*
G36*
X0408Y020542D02*
X040747Y020535D01*
X040651Y020495D01*
X040568Y020432D01*
X040505Y020349D01*
X040465Y020253D01*
X040458Y0202D01*
X0408D01*
Y020542D01*
D02*
G37*
G36*
X034Y02005D02*
X033815D01*
X033824Y020006D01*
X033877Y019927D01*
X033956Y019874D01*
X034Y019865D01*
Y02005D01*
D02*
G37*
G36*
X033285D02*
X0331D01*
Y019865D01*
X033144Y019874D01*
X033223Y019927D01*
X033276Y020006D01*
X033285Y02005D01*
D02*
G37*
G36*
X032Y021634D02*
X031837Y021618D01*
X031681Y021571D01*
X031537Y021493D01*
X03141Y02139D01*
X031307Y021263D01*
X031229Y021119D01*
X031182Y020963D01*
X031166Y0208D01*
X031182Y020637D01*
X031229Y020481D01*
X031307Y020337D01*
X03141Y02021D01*
X031537Y020107D01*
X031681Y020029D01*
X031837Y019982D01*
X032Y019966D01*
X032163Y019982D01*
X032319Y020029D01*
X032463Y020107D01*
X03259Y02021D01*
X032693Y020337D01*
X032771Y020481D01*
X032818Y020637D01*
X032834Y0208D01*
X032818Y020963D01*
X032771Y021119D01*
X032693Y021263D01*
X03259Y02139D01*
X032463Y021493D01*
X032319Y021571D01*
X032163Y021618D01*
X032Y021634D01*
D02*
G37*
G36*
X033Y02005D02*
X032815D01*
X032824Y020006D01*
X032877Y019927D01*
X032956Y019874D01*
X033Y019865D01*
Y02005D01*
D02*
G37*
G36*
X0352Y02735D02*
X035015D01*
X035024Y027306D01*
X035077Y027227D01*
X035156Y027174D01*
X0352Y027165D01*
Y02735D01*
D02*
G37*
G36*
X035485D02*
X0353D01*
Y027165D01*
X035344Y027174D01*
X035423Y027227D01*
X035476Y027306D01*
X035485Y02735D01*
D02*
G37*
G36*
X0352Y027635D02*
X035156Y027626D01*
X035077Y027573D01*
X035024Y027494D01*
X035015Y02745D01*
X0352D01*
Y027635D01*
D02*
G37*
G36*
X0353D02*
Y02745D01*
X035485D01*
X035476Y027494D01*
X035423Y027573D01*
X035344Y027626D01*
X0353Y027635D01*
D02*
G37*
G36*
X03485Y025385D02*
Y0252D01*
X035035D01*
X035026Y025244D01*
X034973Y025323D01*
X034894Y025376D01*
X03485Y025385D01*
D02*
G37*
G36*
X0362Y0249D02*
X036015D01*
X036024Y024856D01*
X036077Y024777D01*
X036156Y024724D01*
X0362Y024715D01*
Y0249D01*
D02*
G37*
G36*
X036485D02*
X0363D01*
Y024715D01*
X036344Y024724D01*
X036423Y024777D01*
X036476Y024856D01*
X036485Y0249D01*
D02*
G37*
G36*
X03475Y0251D02*
X034565D01*
X034574Y025056D01*
X034627Y024977D01*
X034706Y024924D01*
X03475Y024915D01*
Y0251D01*
D02*
G37*
G36*
Y025385D02*
X034706Y025376D01*
X034627Y025323D01*
X034574Y025244D01*
X034565Y0252D01*
X03475D01*
Y025385D01*
D02*
G37*
G36*
X035035Y0251D02*
X03485D01*
Y024915D01*
X034894Y024924D01*
X034973Y024977D01*
X035026Y025056D01*
X035035Y0251D01*
D02*
G37*
G36*
X0362Y025185D02*
X036156Y025176D01*
X036077Y025123D01*
X036024Y025044D01*
X036015Y025D01*
X0362D01*
Y025185D01*
D02*
G37*
G36*
X0363D02*
Y025D01*
X036485D01*
X036476Y025044D01*
X036423Y025123D01*
X036344Y025176D01*
X0363Y025185D01*
D02*
G37*
G36*
X033785Y02305D02*
X0336D01*
Y022865D01*
X033644Y022874D01*
X033723Y022927D01*
X033776Y023006D01*
X033785Y02305D01*
D02*
G37*
G36*
X0325D02*
X032315D01*
X032324Y023006D01*
X032377Y022927D01*
X032456Y022874D01*
X0325Y022865D01*
Y02305D01*
D02*
G37*
G36*
X032785D02*
X0326D01*
Y022865D01*
X032644Y022874D01*
X032723Y022927D01*
X032776Y023006D01*
X032785Y02305D01*
D02*
G37*
G36*
X0335D02*
X033315D01*
X033324Y023006D01*
X033377Y022927D01*
X033456Y022874D01*
X0335Y022865D01*
Y02305D01*
D02*
G37*
G36*
X0325Y023335D02*
X032456Y023326D01*
X032377Y023273D01*
X032324Y023194D01*
X032315Y02315D01*
X0325D01*
Y023335D01*
D02*
G37*
G36*
X0326D02*
Y02315D01*
X032785D01*
X032776Y023194D01*
X032723Y023273D01*
X032644Y023326D01*
X0326Y023335D01*
D02*
G37*
G36*
X0335D02*
X033456Y023326D01*
X033377Y023273D01*
X033324Y023194D01*
X033315Y02315D01*
X0335D01*
Y023335D01*
D02*
G37*
G36*
X03935Y022935D02*
X039306Y022926D01*
X039227Y022873D01*
X039174Y022794D01*
X039165Y02275D01*
X03935D01*
Y022935D01*
D02*
G37*
G36*
Y02265D02*
X039165D01*
X039174Y022606D01*
X039227Y022527D01*
X039306Y022474D01*
X03935Y022465D01*
Y02265D01*
D02*
G37*
G36*
X039635D02*
X03945D01*
Y022465D01*
X039494Y022474D01*
X039573Y022527D01*
X039626Y022606D01*
X039635Y02265D01*
D02*
G37*
G36*
X0336Y023335D02*
Y02315D01*
X033785D01*
X033776Y023194D01*
X033723Y023273D01*
X033644Y023326D01*
X0336Y023335D01*
D02*
G37*
G36*
X032Y024335D02*
X031956Y024326D01*
X031877Y024273D01*
X031824Y024194D01*
X031815Y02415D01*
X032D01*
Y024335D01*
D02*
G37*
G36*
X0321D02*
Y02415D01*
X032285D01*
X032276Y024194D01*
X032223Y024273D01*
X032144Y024326D01*
X0321Y024335D01*
D02*
G37*
G36*
X0352D02*
X035156Y024326D01*
X035077Y024273D01*
X035024Y024194D01*
X035015Y02415D01*
X0352D01*
Y024335D01*
D02*
G37*
G36*
X0353D02*
Y02415D01*
X035485D01*
X035476Y024194D01*
X035423Y024273D01*
X035344Y024326D01*
X0353Y024335D01*
D02*
G37*
G36*
X0352Y02405D02*
X035015D01*
X035024Y024006D01*
X035077Y023927D01*
X035156Y023874D01*
X0352Y023865D01*
Y02405D01*
D02*
G37*
G36*
X032285D02*
X0321D01*
Y023865D01*
X032144Y023874D01*
X032223Y023927D01*
X032276Y024006D01*
X032285Y02405D01*
D02*
G37*
G36*
X035485D02*
X0353D01*
Y023865D01*
X035344Y023874D01*
X035423Y023927D01*
X035476Y024006D01*
X035485Y02405D01*
D02*
G37*
G36*
X032D02*
X031815D01*
X031824Y024006D01*
X031877Y023927D01*
X031956Y023874D01*
X032Y023865D01*
Y02405D01*
D02*
G37*
G36*
X043135Y0272D02*
X042665D01*
X042667Y027191D01*
X042663Y02718D01*
X042629Y02714D01*
X042561Y027131D01*
X042479Y027097D01*
X042408Y027042D01*
X042353Y026971D01*
X042319Y026889D01*
X042307Y0268D01*
X042319Y026711D01*
X042353Y026629D01*
X042408Y026558D01*
X042479Y026503D01*
X042561Y026469D01*
X04265Y026457D01*
X042739Y026469D01*
X042821Y026503D01*
X042892Y026558D01*
X042947Y026629D01*
X042981Y026711D01*
X042993Y0268D01*
X042981Y026889D01*
X04295Y026964D01*
X042959Y027003D01*
X042965Y027018D01*
X042994Y027024D01*
X043073Y027077D01*
X043126Y027156D01*
X043135Y0272D01*
D02*
G37*
G36*
X04285Y027485D02*
X042806Y027476D01*
X042727Y027423D01*
X042674Y027344D01*
X042665Y0273D01*
X04285D01*
Y027485D01*
D02*
G37*
G36*
X044074Y0277D02*
X043889D01*
X043898Y027656D01*
X043951Y027577D01*
X04403Y027524D01*
X044074Y027515D01*
Y0277D01*
D02*
G37*
G36*
X044359D02*
X044174D01*
Y027515D01*
X044218Y027524D01*
X044297Y027577D01*
X04435Y027656D01*
X044359Y0277D01*
D02*
G37*
G36*
X044074Y027985D02*
X04403Y027976D01*
X043951Y027923D01*
X043898Y027844D01*
X043889Y0278D01*
X044074D01*
Y027985D01*
D02*
G37*
G36*
X04295Y027485D02*
Y0273D01*
X043135D01*
X043126Y027344D01*
X043073Y027423D01*
X042994Y027476D01*
X04295Y027485D01*
D02*
G37*
G36*
X044174Y027985D02*
Y0278D01*
X044359D01*
X04435Y027844D01*
X044297Y027923D01*
X044218Y027976D01*
X044174Y027985D01*
D02*
G37*
G36*
X044562Y02945D02*
X044296D01*
Y029091D01*
X044562D01*
Y02945D01*
D02*
G37*
G36*
Y029909D02*
X044296D01*
Y02955D01*
X044562D01*
Y029909D01*
D02*
G37*
G36*
X036342Y04D02*
X036D01*
Y039658D01*
X036053Y039665D01*
X036149Y039705D01*
X036232Y039768D01*
X036295Y039851D01*
X036335Y039947D01*
X036342Y04D01*
D02*
G37*
G36*
X049474Y038326D02*
X049237D01*
Y038D01*
X049474D01*
Y038326D01*
D02*
G37*
G36*
X04965Y04D02*
X049305D01*
Y039655D01*
X04965D01*
Y04D01*
D02*
G37*
G36*
X050095D02*
X04975D01*
Y039655D01*
X050095D01*
Y04D01*
D02*
G37*
G36*
X0501Y038335D02*
Y03815D01*
X050285D01*
X050276Y038194D01*
X050223Y038273D01*
X050144Y038326D01*
X0501Y038335D01*
D02*
G37*
G36*
X0319Y037503D02*
X03182D01*
X031716Y03749D01*
X031618Y037449D01*
X031535Y037385D01*
X031471Y037302D01*
X03143Y037204D01*
X031423Y03715D01*
X0319D01*
Y037503D01*
D02*
G37*
G36*
X0383Y037993D02*
X038211Y037981D01*
X038129Y037947D01*
X038058Y037892D01*
X038003Y037821D01*
X037969Y037739D01*
X037957Y03765D01*
X037969Y037561D01*
X038003Y037479D01*
X038058Y037408D01*
X038129Y037353D01*
X038211Y037319D01*
X0383Y037307D01*
X038389Y037319D01*
X038471Y037353D01*
X038542Y037408D01*
X038597Y037479D01*
X038631Y037561D01*
X038643Y03765D01*
X038631Y037739D01*
X038597Y037821D01*
X038542Y037892D01*
X038471Y037947D01*
X038389Y037981D01*
X0383Y037993D01*
D02*
G37*
G36*
X0319Y03805D02*
X031423D01*
X03143Y037996D01*
X031471Y037898D01*
X031535Y037815D01*
X031618Y037751D01*
X031716Y03771D01*
X03182Y037697D01*
X0319D01*
Y03805D01*
D02*
G37*
G36*
X04045Y036385D02*
X040406Y036376D01*
X040327Y036323D01*
X040274Y036244D01*
X040265Y0362D01*
X04045D01*
Y036385D01*
D02*
G37*
G36*
X04055D02*
Y0362D01*
X040735D01*
X040726Y036244D01*
X040673Y036323D01*
X040594Y036376D01*
X04055Y036385D01*
D02*
G37*
G36*
X0319Y03705D02*
X031423D01*
X03143Y036996D01*
X031471Y036898D01*
X031535Y036815D01*
X031618Y036751D01*
X031716Y03671D01*
X03182Y036697D01*
X0319D01*
Y03705D01*
D02*
G37*
G36*
Y038503D02*
X03182D01*
X031716Y03849D01*
X031618Y038449D01*
X031535Y038385D01*
X031471Y038302D01*
X03143Y038204D01*
X031423Y03815D01*
X0319D01*
Y038503D01*
D02*
G37*
G36*
X03308Y038594D02*
X03282D01*
X032689Y038577D01*
X032568Y038527D01*
X032463Y038447D01*
X032416Y038385D01*
X032366D01*
X032365Y038385D01*
X032282Y038449D01*
X032184Y03849D01*
X03208Y038503D01*
X032D01*
Y0381D01*
Y037697D01*
X03208D01*
X032184Y03771D01*
X032282Y037751D01*
X032352Y037804D01*
X032365Y037815D01*
X032415Y037797D01*
X032463Y037733D01*
X032568Y037653D01*
X032643Y037622D01*
Y037568D01*
X032568Y037537D01*
X032463Y037457D01*
X032409Y037385D01*
X032365D01*
X032282Y037449D01*
X032184Y03749D01*
X03208Y037503D01*
X032D01*
Y0371D01*
Y036697D01*
X03208D01*
X032184Y03671D01*
X032282Y036751D01*
X032365Y036815D01*
X032409D01*
X032463Y036743D01*
X032568Y036663D01*
X032655Y036627D01*
Y036573D01*
X032568Y036537D01*
X032463Y036457D01*
X032409Y036385D01*
X032365D01*
X032282Y036449D01*
X032184Y03649D01*
X03208Y036503D01*
X032D01*
Y0361D01*
Y035697D01*
X03208D01*
X032184Y03571D01*
X032282Y035751D01*
X032365Y035815D01*
X032409D01*
X032463Y035743D01*
X032568Y035663D01*
X032689Y035613D01*
X03282Y035596D01*
X03308D01*
X033211Y035613D01*
X033332Y035663D01*
X033437Y035743D01*
X033517Y035848D01*
X033567Y035969D01*
X033584Y0361D01*
X033567Y036231D01*
X033517Y036352D01*
X033437Y036457D01*
X033332Y036537D01*
X033245Y036573D01*
Y036627D01*
X033332Y036663D01*
X033437Y036743D01*
X033517Y036848D01*
X033567Y036969D01*
X033584Y0371D01*
X033567Y037231D01*
X033517Y037352D01*
X033437Y037457D01*
X033332Y037537D01*
X033257Y037568D01*
Y037622D01*
X033332Y037653D01*
X033437Y037733D01*
X033517Y037838D01*
X033567Y037959D01*
X033584Y03809D01*
X033567Y038221D01*
X033517Y038342D01*
X033437Y038447D01*
X033332Y038527D01*
X033211Y038577D01*
X03308Y038594D01*
D02*
G37*
G36*
X0319Y036503D02*
X03182D01*
X031716Y03649D01*
X031618Y036449D01*
X031535Y036385D01*
X031471Y036302D01*
X03143Y036204D01*
X031423Y03615D01*
X0319D01*
Y036503D01*
D02*
G37*
G36*
X031548Y032677D02*
Y0322D01*
X031901D01*
Y03228D01*
X031888Y032384D01*
X031847Y032482D01*
X031783Y032565D01*
X0317Y032629D01*
X031602Y03267D01*
X031548Y032677D01*
D02*
G37*
G36*
X03495Y034043D02*
X034848Y03403D01*
X034753Y033991D01*
X034672Y033928D01*
X034609Y033847D01*
X03457Y033752D01*
X034557Y03365D01*
X03457Y033548D01*
X034609Y033453D01*
X034672Y033372D01*
X034753Y033309D01*
X034848Y03327D01*
X03495Y033257D01*
X035052Y03327D01*
X035147Y033309D01*
X035228Y033372D01*
X035291Y033453D01*
X03533Y033548D01*
X035343Y03365D01*
X03533Y033752D01*
X035291Y033847D01*
X035228Y033928D01*
X035147Y033991D01*
X035052Y03403D01*
X03495Y034043D01*
D02*
G37*
G36*
X0319Y03605D02*
X031423D01*
X03143Y035996D01*
X031471Y035898D01*
X031535Y035815D01*
X031618Y035751D01*
X031716Y03571D01*
X03182Y035697D01*
X0319D01*
Y03605D01*
D02*
G37*
G36*
X04045Y0361D02*
X040265D01*
X040274Y036056D01*
X040327Y035977D01*
X040406Y035924D01*
X04045Y035915D01*
Y0361D01*
D02*
G37*
G36*
X040735D02*
X04055D01*
Y035915D01*
X040594Y035924D01*
X040673Y035977D01*
X040726Y036056D01*
X040735Y0361D01*
D02*
G37*
G36*
X038681Y03555D02*
X038415D01*
Y035191D01*
X038681D01*
Y03555D01*
D02*
G37*
G36*
X039785Y036109D02*
X038952D01*
Y036009D01*
X038781D01*
Y0356D01*
Y035191D01*
X038952D01*
Y035091D01*
X039785D01*
Y035255D01*
X039827Y035283D01*
X039861Y035269D01*
X03995Y035257D01*
X040039Y035269D01*
X040121Y035303D01*
X040192Y035358D01*
X040247Y035429D01*
X040281Y035511D01*
X040293Y0356D01*
X040281Y035689D01*
X040247Y035771D01*
X040192Y035842D01*
X040121Y035897D01*
X040039Y035931D01*
X03995Y035943D01*
X039861Y035931D01*
X039827Y035917D01*
X039785Y035945D01*
Y036109D01*
D02*
G37*
G36*
X038681Y036009D02*
X038415D01*
Y03565D01*
X038681D01*
Y036009D01*
D02*
G37*
%LPD*%
G36*
X039585Y035691D02*
X039588Y035682D01*
X039593Y035675D01*
X0396Y035668D01*
X039609Y035663D01*
X03962Y035658D01*
X039633Y035654D01*
X039648Y035652D01*
X039665Y03565D01*
X039684Y03565D01*
Y03555D01*
X039665Y035549D01*
X039648Y035548D01*
X039633Y035545D01*
X03962Y035542D01*
X039609Y035538D01*
X0396Y035532D01*
X039593Y035526D01*
X039588Y035518D01*
X039585Y03551D01*
X039584Y0355D01*
Y0357D01*
X039585Y035691D01*
D02*
G37*
G36*
X03985Y035502D02*
X03984Y035511D01*
X03983Y035519D01*
X03982Y035526D01*
X039809Y035533D01*
X039798Y035538D01*
X039786Y035542D01*
X039774Y035546D01*
X039762Y035548D01*
X039749Y03555D01*
X039735Y03555D01*
Y03565D01*
X039749Y03565D01*
X039762Y035652D01*
X039774Y035654D01*
X039786Y035658D01*
X039798Y035662D01*
X039809Y035667D01*
X03982Y035674D01*
X03983Y035681D01*
X03984Y035689D01*
X03985Y035698D01*
Y035502D01*
D02*
G37*
D12*
X0486Y035738D02*
D03*
Y03625D02*
D03*
X0503Y035838D02*
D03*
Y03635D02*
D03*
X0517Y035838D02*
D03*
Y03635D02*
D03*
D18*
X043924Y0368D02*
D03*
X043176D02*
D03*
X046724Y03685D02*
D03*
X045976D02*
D03*
Y03845D02*
D03*
X046724D02*
D03*
X049524Y03795D02*
D03*
X048776D02*
D03*
D20*
X04525Y0295D02*
D03*
X044612D02*
D03*
X046219Y0355D02*
D03*
X045581D02*
D03*
X039369Y0356D02*
D03*
X038731D02*
D03*
D21*
X04605Y025712D02*
D03*
Y02635D02*
D03*
D24*
X0475Y026176D02*
D03*
Y026924D02*
D03*
D33*
X039419Y03555D02*
X039469Y0356D01*
X03795Y0401D02*
X0419Y03615D01*
X05025Y035D02*
Y03585D01*
X03495Y0401D02*
X0359Y03915D01*
X03995Y0401D02*
X04265Y0374D01*
X0486Y03635D02*
X04895D01*
X04205Y03D02*
X04215Y0301D01*
X033488Y032303D02*
X033638D01*
X03895Y0401D02*
X0424Y03665D01*
X0383Y02685D02*
X03985Y0284D01*
X0486Y035838D02*
X048712D01*
X0486Y035726D02*
X048712Y035838D01*
X05165Y035794D02*
X0517Y035844D01*
X04525Y0295D02*
X04575Y029D01*
Y028969D02*
Y029D01*
X0516Y032D02*
Y0334D01*
X0511Y0315D02*
X0516Y032D01*
X04125Y031D02*
X04155Y0307D01*
Y0268D02*
Y0307D01*
Y0268D02*
X042638Y025712D01*
X04605D01*
X04115Y03145D02*
X0423D01*
X0396Y0268D02*
X04085Y02805D01*
Y03025D01*
X0435D02*
X0438D01*
X0423Y03145D02*
X0435Y03025D01*
X04245Y03175D02*
X04335Y03085D01*
X04095Y03175D02*
X04245D01*
X043924Y0368D02*
X04445D01*
X0437Y03845D02*
Y04005D01*
X04405Y0385D02*
Y0394D01*
X04475Y03905D02*
X0488D01*
X0447Y039D02*
X04475Y03905D01*
X0488D02*
X0489Y03895D01*
X0475Y037D02*
X0482D01*
X05215Y034844D02*
Y0351D01*
X051856Y03455D02*
X05215Y034844D01*
X0435Y0376D02*
X04355D01*
X0432Y0373D02*
X0435Y0376D01*
X043176Y0368D02*
X0432Y036824D01*
Y0373D01*
X04465Y039D02*
X0447D01*
X04485Y0382D02*
X0451Y03845D01*
X045976D01*
X033488Y0291D02*
X03355D01*
X04575Y036225D02*
X045976Y036451D01*
Y03685D01*
X04585Y036724D02*
X045976Y03685D01*
X0501Y03695D02*
X0503Y03675D01*
Y03635D02*
Y03675D01*
X04895Y03635D02*
X05025Y03765D01*
X05085Y03525D02*
X05135D01*
X05165Y03555D01*
Y035794D01*
X03935Y0268D02*
X0396D01*
X04655Y0304D02*
X0501D01*
X04725Y0293D02*
X0501D01*
X0485Y0271D02*
X0501D01*
X0448Y0308D02*
X0485Y0271D01*
X04405Y0308D02*
X0448D01*
X0474Y0287D02*
X0496D01*
X0501Y0282D01*
X0444Y0332D02*
X04665Y03095D01*
X04955D01*
X0501Y0315D01*
X033488Y0301D02*
X0337D01*
X04295Y03235D02*
X0446D01*
X04655Y0304D01*
X04245Y0321D02*
X04445D01*
X04725Y0293D01*
X0437Y03145D02*
X04465D01*
X0474Y0287D01*
X04265Y0351D02*
X0431Y03465D01*
X04265Y0351D02*
Y0374D01*
X0424Y0348D02*
Y03665D01*
Y0348D02*
X0427Y0345D01*
X0359Y03915D02*
X03835D01*
X04125Y03625D01*
X0383Y0255D02*
Y02685D01*
X03985Y02835D02*
Y0284D01*
X0378Y0271D02*
X0381Y0274D01*
X04685Y0325D02*
X04695D01*
X0469Y03175D02*
Y032D01*
X04715Y0313D02*
X04735Y0315D01*
X04775Y0317D02*
X04815Y0321D01*
Y03255D01*
X05085Y03525D01*
X04735Y0315D02*
Y0321D01*
X0507Y0345D02*
X051294D01*
X051344Y03455D01*
X0469Y032D02*
X0486Y0337D01*
Y035726D01*
X05225Y0365D02*
Y037D01*
X0521Y03635D02*
X05225Y0365D01*
X0517Y03635D02*
X0521D01*
X0419Y03615D02*
X0421D01*
X04405Y0394D02*
X0447Y04005D01*
X048776Y037576D02*
Y03795D01*
X0482Y037D02*
X048776Y037576D01*
X0378Y02505D02*
Y0271D01*
Y02505D02*
X04185Y021D01*
Y02015D02*
Y021D01*
X0509Y0337D02*
X0513D01*
X0516Y0334D01*
X04605Y02635D02*
Y02665D01*
X0472Y0278D01*
X046724Y03685D02*
Y03845D01*
Y035924D02*
Y03685D01*
X0467Y0359D02*
X046724Y035924D01*
X0475Y026924D02*
X048076D01*
X0483Y0267D01*
Y02665D02*
Y0267D01*
X049524Y037574D02*
Y03795D01*
X04875Y0368D02*
X049524Y037574D01*
X04735Y0321D02*
X05025Y035D01*
X04115Y0331D02*
X0423D01*
X04215Y0328D02*
X0423Y03265D01*
X0413Y0328D02*
X04215D01*
X04045Y0342D02*
X04235D01*
X0403Y0336D02*
X04235D01*
X039Y03275D02*
X04045Y0342D01*
X033488Y0313D02*
X034638Y03245D01*
X03915D01*
X0403Y0336D01*
X0337Y03025D02*
X0342D01*
X0352Y03125D01*
X0393D01*
X04115Y0331D01*
X03355Y02925D02*
X0353Y031D01*
X0395D01*
X0413Y0328D01*
X033488Y0282D02*
X035988Y0307D01*
X0399D01*
X04095Y03175D01*
X033488Y0272D02*
X034588Y0283D01*
X038D01*
X04115Y03145D01*
X04505Y0296D02*
X04515D01*
X04525Y0295D01*
X0431Y03465D02*
X044D01*
X043176Y035974D02*
Y0368D01*
X0449Y03415D02*
Y03425D01*
X043176Y035974D02*
X0449Y03425D01*
X0469Y03525D02*
X04845Y0368D01*
X04875D01*
X0463Y0355D02*
X0467Y0359D01*
X046219Y0355D02*
X0463D01*
X039369Y0356D02*
X039419Y03555D01*
X039469Y0356D02*
X03995D01*
X034085Y03275D02*
X039D01*
X033638Y032303D02*
X034085Y03275D01*
X0448Y03495D02*
X0467Y03305D01*
X0448Y03495D02*
Y03735D01*
X0437Y03845D02*
X0448Y03735D01*
X04405Y0385D02*
X04505Y0375D01*
Y0352D02*
Y0375D01*
X04695Y0325D02*
X04715Y0327D01*
Y0331D01*
X04505Y0352D02*
X04715Y0331D01*
X045581Y035119D02*
Y0355D01*
Y035119D02*
X04575Y03495D01*
X04655D01*
X04685Y03525D01*
X0469D01*
X04265Y0284D02*
Y0304D01*
X0419Y03115D02*
X04265Y0304D01*
X0421Y03015D02*
X04215Y0301D01*
X04205Y0283D02*
Y03D01*
X0383Y0255D02*
X04285Y02095D01*
Y02015D02*
Y02095D01*
D34*
X04605Y025712D02*
X046088Y02575D01*
X047074D01*
X0475Y026176D01*
X048024D01*
X049464Y024736D02*
X04952D01*
X048024Y026176D02*
X049464Y024736D01*
D36*
X0372Y02015D02*
X0375Y02045D01*
Y0231D01*
D40*
X0521Y0315D02*
Y0326D01*
X05209Y0304D02*
X0521Y03041D01*
X05209Y0293D02*
Y0304D01*
Y0282D02*
Y0293D01*
Y0271D02*
Y0282D01*
X0521Y03041D02*
Y0315D01*
D44*
X0382Y02015D02*
D03*
X0499Y03895D02*
D03*
X0497Y04005D02*
D03*
X0491Y0326D02*
D03*
Y0315D02*
D03*
X04385Y02015D02*
D03*
X03395Y04005D02*
D03*
D45*
X0372Y02015D02*
D03*
X0362D02*
D03*
X0489Y03895D02*
D03*
X0427Y04005D02*
D03*
X0437D02*
D03*
X0447D02*
D03*
X0457D02*
D03*
X0467D02*
D03*
X0477D02*
D03*
X0487D02*
D03*
X0501Y0326D02*
D03*
X0511D02*
D03*
X0521D02*
D03*
X0501Y0315D02*
D03*
X0511D02*
D03*
X0521D02*
D03*
X04285Y02015D02*
D03*
X04185D02*
D03*
X04085D02*
D03*
X03495Y04005D02*
D03*
X03595D02*
D03*
X03695D02*
D03*
X03795D02*
D03*
X03895D02*
D03*
X03995D02*
D03*
X04095D02*
D03*
D46*
X033488Y02805D02*
D03*
X032488D02*
D03*
X031498D02*
D03*
X033488Y02705D02*
D03*
X031488D02*
D03*
X032488D02*
D03*
X033488Y0301D02*
D03*
X032488D02*
D03*
X031498D02*
D03*
X033488Y0291D02*
D03*
X031488D02*
D03*
X032488D02*
D03*
X033488Y032153D02*
D03*
X032488Y03215D02*
D03*
X031498D02*
D03*
X033488Y03115D02*
D03*
X031488D02*
D03*
X032488D02*
D03*
D47*
X033458Y026D02*
D03*
X032448D02*
D03*
X031468D02*
D03*
X0501Y0293D02*
D03*
X05111D02*
D03*
X05209D02*
D03*
X0501Y0304D02*
D03*
X05111D02*
D03*
X05209D02*
D03*
X0501Y0282D02*
D03*
X05111D02*
D03*
X05209D02*
D03*
X0501Y0271D02*
D03*
X05111D02*
D03*
X05209D02*
D03*
D48*
X05208Y024736D02*
D03*
Y022964D02*
D03*
X04952Y024736D02*
D03*
Y022964D02*
D03*
D49*
X03655Y0299D02*
D03*
Y0319D02*
D03*
D50*
X0516Y03975D02*
D03*
Y0208D02*
D03*
X032D02*
D03*
Y03975D02*
D03*
D51*
X03295Y0361D02*
D03*
Y0371D02*
D03*
Y03809D02*
D03*
X03195Y0361D02*
D03*
Y0381D02*
D03*
Y0371D02*
D03*
D52*
X03935Y0268D02*
D03*
D53*
Y0263D02*
D03*
Y0258D02*
D03*
D54*
X04575Y028969D02*
D03*
X0429Y02725D02*
D03*
X04105Y0266D02*
D03*
X04265Y0268D02*
D03*
X0457Y02475D02*
D03*
X044124Y02775D02*
D03*
X0415Y02615D02*
D03*
X0375Y0231D02*
D03*
X04115Y02795D02*
D03*
X04125Y031D02*
D03*
X03835Y02235D02*
D03*
X0421Y03015D02*
D03*
X04085Y03025D02*
D03*
X0419Y03115D02*
D03*
X04445Y0368D02*
D03*
X04075Y0332D02*
D03*
X0475Y037D02*
D03*
X05215Y0351D02*
D03*
X04355Y0376D02*
D03*
X0449Y03415D02*
D03*
X04465Y039D02*
D03*
X04485Y0382D02*
D03*
X04575Y036225D02*
D03*
X0501Y03695D02*
D03*
X05025Y03765D02*
D03*
X0444Y0332D02*
D03*
X04405Y0308D02*
D03*
X04235Y0342D02*
D03*
X0423Y03265D02*
D03*
X04295Y03235D02*
D03*
X04245Y0321D02*
D03*
X0437Y03145D02*
D03*
X04335Y03085D02*
D03*
X0438Y03025D02*
D03*
X0427Y0345D02*
D03*
X04125Y03625D02*
D03*
X04415Y0341D02*
D03*
X03985Y02835D02*
D03*
X0381Y0274D02*
D03*
X04445Y03045D02*
D03*
X04775Y0317D02*
D03*
X04685Y0325D02*
D03*
X0469Y03175D02*
D03*
X04715Y0313D02*
D03*
X0507Y0345D02*
D03*
X05225Y037D02*
D03*
X0421Y03615D02*
D03*
X0509Y0337D02*
D03*
X04035Y027D02*
D03*
X0472Y0278D02*
D03*
X0467Y0359D02*
D03*
X0383Y03765D02*
D03*
X0469Y02515D02*
D03*
X0483Y02665D02*
D03*
X03795Y02425D02*
D03*
X0405Y03615D02*
D03*
X03635Y02875D02*
D03*
X04235Y0336D02*
D03*
X0423Y0331D02*
D03*
X03705Y02895D02*
D03*
X0467Y03305D02*
D03*
X044Y03465D02*
D03*
X0469Y03525D02*
D03*
X03995Y0356D02*
D03*
X04305Y02465D02*
D03*
X0449Y0261D02*
D03*
X04265Y0284D02*
D03*
X04205Y0283D02*
D03*
X03205Y0221D02*
D03*
X03255Y0231D02*
D03*
X03205Y0241D02*
D03*
X03305Y0201D02*
D03*
X03355Y0211D02*
D03*
X03305Y0221D02*
D03*
X03355Y0231D02*
D03*
X03405Y0201D02*
D03*
X03455Y0211D02*
D03*
X03405Y0221D02*
D03*
X03505Y0201D02*
D03*
X03555Y0211D02*
D03*
X03905Y0201D02*
D03*
X03955Y0211D02*
D03*
X04005Y0201D02*
D03*
X04055Y0211D02*
D03*
X04455D02*
D03*
X04505Y0201D02*
D03*
X04555Y0211D02*
D03*
X04605Y0201D02*
D03*
X04655Y0211D02*
D03*
X04705Y0201D02*
D03*
X04755Y0211D02*
D03*
X04805Y0201D02*
D03*
X04855Y0211D02*
D03*
X04905Y0201D02*
D03*
X04955Y0211D02*
D03*
X05005Y0201D02*
D03*
X05055Y0211D02*
D03*
X05005Y0241D02*
D03*
X05055Y0251D02*
D03*
X05005Y0381D02*
D03*
X05105Y0221D02*
D03*
X047Y0239D02*
D03*
X04705Y0229D02*
D03*
X04835Y02395D02*
D03*
Y02285D02*
D03*
X0477Y0248D02*
D03*
X0348Y02515D02*
D03*
X03525Y0241D02*
D03*
X03625Y02495D02*
D03*
X0394Y0227D02*
D03*
X04165Y02345D02*
D03*
X04265Y02255D02*
D03*
X03525Y0274D02*
D03*
D55*
X03495Y03365D02*
D03*
D56*
X051344Y03455D02*
D03*
X051856D02*
D03*
D57*
X05111Y0271D02*
Y0282D01*
Y0293D01*
Y0304D01*
X0491Y0315D02*
Y0326D01*
M02*
