G04 Layer_Color=2752767*
%FSTAX24Y24*%
%MOIN*%
G70*
G01*
G75*
%ADD103C,0.0020*%
%ADD104C,0.0027*%
D103*
X03812Y02007D02*
Y02023D01*
X03828D01*
Y02007D01*
X03812D01*
X03712D02*
Y02023D01*
X03728D01*
Y02007D01*
X03712D01*
X03612D02*
Y02023D01*
X03628D01*
Y02007D01*
X03612D01*
X04982Y03887D02*
Y03903D01*
X04998D01*
Y03887D01*
X04982D01*
X04882D02*
Y03903D01*
X04898D01*
Y03887D01*
X04882D01*
X04262Y03997D02*
Y04013D01*
X04278D01*
Y03997D01*
X04262D01*
X04362D02*
Y04013D01*
X04378D01*
Y03997D01*
X04362D01*
X04462D02*
Y04013D01*
X04478D01*
Y03997D01*
X04462D01*
X04562D02*
Y04013D01*
X04578D01*
Y03997D01*
X04562D01*
X04662D02*
Y04013D01*
X04678D01*
Y03997D01*
X04662D01*
X04762D02*
Y04013D01*
X04778D01*
Y03997D01*
X04762D01*
X04862D02*
Y04013D01*
X04878D01*
Y03997D01*
X04862D01*
X04962D02*
Y04013D01*
X04978D01*
Y03997D01*
X04962D01*
X05208Y024656D02*
X052Y024816D01*
X05216D01*
X05208Y024656D01*
Y022884D02*
X052Y023044D01*
X05216D01*
X05208Y022884D01*
X04952Y024656D02*
X04944Y024816D01*
X0496D01*
X04952Y024656D01*
Y022884D02*
X04944Y023044D01*
X0496D01*
X04952Y022884D01*
X04902Y03252D02*
Y03268D01*
X04918D01*
Y03252D01*
X04902D01*
X05002D02*
Y03268D01*
X05018D01*
Y03252D01*
X05002D01*
X05102D02*
Y03268D01*
X05118D01*
Y03252D01*
X05102D01*
X05202D02*
Y03268D01*
X05218D01*
Y03252D01*
X05202D01*
X04902Y03142D02*
Y03158D01*
X04918D01*
Y03142D01*
X04902D01*
X05002D02*
Y03158D01*
X05018D01*
Y03142D01*
X05002D01*
X05102D02*
Y03158D01*
X05118D01*
Y03142D01*
X05102D01*
X05202D02*
Y03158D01*
X05218D01*
Y03142D01*
X05202D01*
X04377Y02007D02*
Y02023D01*
X04393D01*
Y02007D01*
X04377D01*
X04277D02*
Y02023D01*
X04293D01*
Y02007D01*
X04277D01*
X04177D02*
Y02023D01*
X04193D01*
Y02007D01*
X04177D01*
X04077D02*
Y02023D01*
X04093D01*
Y02007D01*
X04077D01*
X03655Y02982D02*
X03659Y02986D01*
X03663D01*
X03659Y0299D01*
X03663Y02994D01*
X03659D01*
X03655Y02998D01*
X03651Y02994D01*
X03647D01*
X03651Y0299D01*
X03647Y02986D01*
X03651D01*
X03655Y02982D01*
Y03182D02*
X03659Y03186D01*
X03663D01*
X03659Y0319D01*
X03663Y03194D01*
X03659D01*
X03655Y03198D01*
X03651Y03194D01*
X03647D01*
X03651Y0319D01*
X03647Y03186D01*
X03651D01*
X03655Y03182D01*
X05152Y03967D02*
X05156Y03975D01*
X05152Y03983D01*
X0516Y03979D01*
X05168Y03983D01*
X05164Y03975D01*
X05168Y03967D01*
X0516Y03971D01*
X05152Y03967D01*
Y02072D02*
X05156Y0208D01*
X05152Y02088D01*
X0516Y02084D01*
X05168Y02088D01*
X05164Y0208D01*
X05168Y02072D01*
X0516Y02076D01*
X05152Y02072D01*
X03192D02*
X03196Y0208D01*
X03192Y02088D01*
X032Y02084D01*
X03208Y02088D01*
X03204Y0208D01*
X03208Y02072D01*
X032Y02076D01*
X03192Y02072D01*
Y03967D02*
X03196Y03975D01*
X03192Y03983D01*
X032Y03979D01*
X03208Y03983D01*
X03204Y03975D01*
X03208Y03967D01*
X032Y03971D01*
X03192Y03967D01*
X03387Y03997D02*
Y04013D01*
X03403D01*
Y03997D01*
X03387D01*
X03487D02*
Y04013D01*
X03503D01*
Y03997D01*
X03487D01*
X03587D02*
Y04013D01*
X03603D01*
Y03997D01*
X03587D01*
X03687D02*
Y04013D01*
X03703D01*
Y03997D01*
X03687D01*
X03787D02*
Y04013D01*
X03803D01*
Y03997D01*
X03787D01*
X03887D02*
Y04013D01*
X03903D01*
Y03997D01*
X03887D01*
X03987D02*
Y04013D01*
X04003D01*
Y03997D01*
X03987D01*
X04087D02*
Y04013D01*
X04103D01*
Y03997D01*
X04087D01*
X03931Y02676D02*
Y02672D01*
X03939D01*
Y02676D01*
X03943D01*
Y02684D01*
X03939D01*
Y02688D01*
X03931D01*
Y02684D01*
X03927D01*
Y02676D01*
X03931D01*
Y02626D02*
Y02622D01*
X03939D01*
Y02626D01*
X03943D01*
Y02634D01*
X03939D01*
Y02638D01*
X03931D01*
Y02634D01*
X03927D01*
Y02626D01*
X03931D01*
Y02576D02*
Y02572D01*
X03939D01*
Y02576D01*
X03943D01*
Y02584D01*
X03939D01*
Y02588D01*
X03931D01*
Y02584D01*
X03927D01*
Y02576D01*
X03931D01*
X04567Y028888D02*
X04571D01*
X04575Y028928D01*
X04579Y028888D01*
X04583D01*
Y028928D01*
X04579Y028969D01*
X04583Y029009D01*
Y029049D01*
X04579D01*
X04575Y029009D01*
X04571Y029049D01*
X04567D01*
Y029009D01*
X04571Y028969D01*
X04567Y028928D01*
Y028888D01*
X04282Y02717D02*
X04286D01*
X0429Y02721D01*
X04294Y02717D01*
X04298D01*
Y02721D01*
X04294Y02725D01*
X04298Y02729D01*
Y02733D01*
X04294D01*
X0429Y02729D01*
X04286Y02733D01*
X04282D01*
Y02729D01*
X04286Y02725D01*
X04282Y02721D01*
Y02717D01*
X04097Y02652D02*
X04101D01*
X04105Y02656D01*
X04109Y02652D01*
X04113D01*
Y02656D01*
X04109Y0266D01*
X04113Y02664D01*
Y02668D01*
X04109D01*
X04105Y02664D01*
X04101Y02668D01*
X04097D01*
Y02664D01*
X04101Y0266D01*
X04097Y02656D01*
Y02652D01*
X04257Y02672D02*
X04261D01*
X04265Y02676D01*
X04269Y02672D01*
X04273D01*
Y02676D01*
X04269Y0268D01*
X04273Y02684D01*
Y02688D01*
X04269D01*
X04265Y02684D01*
X04261Y02688D01*
X04257D01*
Y02684D01*
X04261Y0268D01*
X04257Y02676D01*
Y02672D01*
X04562Y02467D02*
X04566D01*
X0457Y02471D01*
X04574Y02467D01*
X04578D01*
Y02471D01*
X04574Y02475D01*
X04578Y02479D01*
Y02483D01*
X04574D01*
X0457Y02479D01*
X04566Y02483D01*
X04562D01*
Y02479D01*
X04566Y02475D01*
X04562Y02471D01*
Y02467D01*
X044044Y02767D02*
X044084D01*
X044124Y02771D01*
X044164Y02767D01*
X044204D01*
Y02771D01*
X044164Y02775D01*
X044204Y02779D01*
Y02783D01*
X044164D01*
X044124Y02779D01*
X044084Y02783D01*
X044044D01*
Y02779D01*
X044084Y02775D01*
X044044Y02771D01*
Y02767D01*
X04142Y02607D02*
X04146D01*
X0415Y02611D01*
X04154Y02607D01*
X04158D01*
Y02611D01*
X04154Y02615D01*
X04158Y02619D01*
Y02623D01*
X04154D01*
X0415Y02619D01*
X04146Y02623D01*
X04142D01*
Y02619D01*
X04146Y02615D01*
X04142Y02611D01*
Y02607D01*
X03742Y02302D02*
X03746D01*
X0375Y02306D01*
X03754Y02302D01*
X03758D01*
Y02306D01*
X03754Y0231D01*
X03758Y02314D01*
Y02318D01*
X03754D01*
X0375Y02314D01*
X03746Y02318D01*
X03742D01*
Y02314D01*
X03746Y0231D01*
X03742Y02306D01*
Y02302D01*
X04107Y02787D02*
X04111D01*
X04115Y02791D01*
X04119Y02787D01*
X04123D01*
Y02791D01*
X04119Y02795D01*
X04123Y02799D01*
Y02803D01*
X04119D01*
X04115Y02799D01*
X04111Y02803D01*
X04107D01*
Y02799D01*
X04111Y02795D01*
X04107Y02791D01*
Y02787D01*
X04117Y03092D02*
X04121D01*
X04125Y03096D01*
X04129Y03092D01*
X04133D01*
Y03096D01*
X04129Y031D01*
X04133Y03104D01*
Y03108D01*
X04129D01*
X04125Y03104D01*
X04121Y03108D01*
X04117D01*
Y03104D01*
X04121Y031D01*
X04117Y03096D01*
Y03092D01*
X03827Y02227D02*
X03831D01*
X03835Y02231D01*
X03839Y02227D01*
X03843D01*
Y02231D01*
X03839Y02235D01*
X03843Y02239D01*
Y02243D01*
X03839D01*
X03835Y02239D01*
X03831Y02243D01*
X03827D01*
Y02239D01*
X03831Y02235D01*
X03827Y02231D01*
Y02227D01*
X04202Y03007D02*
X04206D01*
X0421Y03011D01*
X04214Y03007D01*
X04218D01*
Y03011D01*
X04214Y03015D01*
X04218Y03019D01*
Y03023D01*
X04214D01*
X0421Y03019D01*
X04206Y03023D01*
X04202D01*
Y03019D01*
X04206Y03015D01*
X04202Y03011D01*
Y03007D01*
X04077Y03017D02*
X04081D01*
X04085Y03021D01*
X04089Y03017D01*
X04093D01*
Y03021D01*
X04089Y03025D01*
X04093Y03029D01*
Y03033D01*
X04089D01*
X04085Y03029D01*
X04081Y03033D01*
X04077D01*
Y03029D01*
X04081Y03025D01*
X04077Y03021D01*
Y03017D01*
X04182Y03107D02*
X04186D01*
X0419Y03111D01*
X04194Y03107D01*
X04198D01*
Y03111D01*
X04194Y03115D01*
X04198Y03119D01*
Y03123D01*
X04194D01*
X0419Y03119D01*
X04186Y03123D01*
X04182D01*
Y03119D01*
X04186Y03115D01*
X04182Y03111D01*
Y03107D01*
X04437Y03672D02*
X04441D01*
X04445Y03676D01*
X04449Y03672D01*
X04453D01*
Y03676D01*
X04449Y0368D01*
X04453Y03684D01*
Y03688D01*
X04449D01*
X04445Y03684D01*
X04441Y03688D01*
X04437D01*
Y03684D01*
X04441Y0368D01*
X04437Y03676D01*
Y03672D01*
X04067Y03312D02*
X04071D01*
X04075Y03316D01*
X04079Y03312D01*
X04083D01*
Y03316D01*
X04079Y0332D01*
X04083Y03324D01*
Y03328D01*
X04079D01*
X04075Y03324D01*
X04071Y03328D01*
X04067D01*
Y03324D01*
X04071Y0332D01*
X04067Y03316D01*
Y03312D01*
X04742Y03692D02*
X04746D01*
X0475Y03696D01*
X04754Y03692D01*
X04758D01*
Y03696D01*
X04754Y037D01*
X04758Y03704D01*
Y03708D01*
X04754D01*
X0475Y03704D01*
X04746Y03708D01*
X04742D01*
Y03704D01*
X04746Y037D01*
X04742Y03696D01*
Y03692D01*
X05207Y03502D02*
X05211D01*
X05215Y03506D01*
X05219Y03502D01*
X05223D01*
Y03506D01*
X05219Y0351D01*
X05223Y03514D01*
Y03518D01*
X05219D01*
X05215Y03514D01*
X05211Y03518D01*
X05207D01*
Y03514D01*
X05211Y0351D01*
X05207Y03506D01*
Y03502D01*
X04347Y03752D02*
X04351D01*
X04355Y03756D01*
X04359Y03752D01*
X04363D01*
Y03756D01*
X04359Y0376D01*
X04363Y03764D01*
Y03768D01*
X04359D01*
X04355Y03764D01*
X04351Y03768D01*
X04347D01*
Y03764D01*
X04351Y0376D01*
X04347Y03756D01*
Y03752D01*
X04482Y03407D02*
X04486D01*
X0449Y03411D01*
X04494Y03407D01*
X04498D01*
Y03411D01*
X04494Y03415D01*
X04498Y03419D01*
Y03423D01*
X04494D01*
X0449Y03419D01*
X04486Y03423D01*
X04482D01*
Y03419D01*
X04486Y03415D01*
X04482Y03411D01*
Y03407D01*
X04457Y03892D02*
X04461D01*
X04465Y03896D01*
X04469Y03892D01*
X04473D01*
Y03896D01*
X04469Y039D01*
X04473Y03904D01*
Y03908D01*
X04469D01*
X04465Y03904D01*
X04461Y03908D01*
X04457D01*
Y03904D01*
X04461Y039D01*
X04457Y03896D01*
Y03892D01*
X04477Y03812D02*
X04481D01*
X04485Y03816D01*
X04489Y03812D01*
X04493D01*
Y03816D01*
X04489Y0382D01*
X04493Y03824D01*
Y03828D01*
X04489D01*
X04485Y03824D01*
X04481Y03828D01*
X04477D01*
Y03824D01*
X04481Y0382D01*
X04477Y03816D01*
Y03812D01*
X04567Y036145D02*
X04571D01*
X04575Y036185D01*
X04579Y036145D01*
X04583D01*
Y036185D01*
X04579Y036225D01*
X04583Y036265D01*
Y036305D01*
X04579D01*
X04575Y036265D01*
X04571Y036305D01*
X04567D01*
Y036265D01*
X04571Y036225D01*
X04567Y036185D01*
Y036145D01*
X05002Y03687D02*
X05006D01*
X0501Y03691D01*
X05014Y03687D01*
X05018D01*
Y03691D01*
X05014Y03695D01*
X05018Y03699D01*
Y03703D01*
X05014D01*
X0501Y03699D01*
X05006Y03703D01*
X05002D01*
Y03699D01*
X05006Y03695D01*
X05002Y03691D01*
Y03687D01*
X05017Y03757D02*
X05021D01*
X05025Y03761D01*
X05029Y03757D01*
X05033D01*
Y03761D01*
X05029Y03765D01*
X05033Y03769D01*
Y03773D01*
X05029D01*
X05025Y03769D01*
X05021Y03773D01*
X05017D01*
Y03769D01*
X05021Y03765D01*
X05017Y03761D01*
Y03757D01*
X04432Y03312D02*
X04436D01*
X0444Y03316D01*
X04444Y03312D01*
X04448D01*
Y03316D01*
X04444Y0332D01*
X04448Y03324D01*
Y03328D01*
X04444D01*
X0444Y03324D01*
X04436Y03328D01*
X04432D01*
Y03324D01*
X04436Y0332D01*
X04432Y03316D01*
Y03312D01*
X04397Y03072D02*
X04401D01*
X04405Y03076D01*
X04409Y03072D01*
X04413D01*
Y03076D01*
X04409Y0308D01*
X04413Y03084D01*
Y03088D01*
X04409D01*
X04405Y03084D01*
X04401Y03088D01*
X04397D01*
Y03084D01*
X04401Y0308D01*
X04397Y03076D01*
Y03072D01*
X04227Y03412D02*
X04231D01*
X04235Y03416D01*
X04239Y03412D01*
X04243D01*
Y03416D01*
X04239Y0342D01*
X04243Y03424D01*
Y03428D01*
X04239D01*
X04235Y03424D01*
X04231Y03428D01*
X04227D01*
Y03424D01*
X04231Y0342D01*
X04227Y03416D01*
Y03412D01*
X04222Y03257D02*
X04226D01*
X0423Y03261D01*
X04234Y03257D01*
X04238D01*
Y03261D01*
X04234Y03265D01*
X04238Y03269D01*
Y03273D01*
X04234D01*
X0423Y03269D01*
X04226Y03273D01*
X04222D01*
Y03269D01*
X04226Y03265D01*
X04222Y03261D01*
Y03257D01*
X04287Y03227D02*
X04291D01*
X04295Y03231D01*
X04299Y03227D01*
X04303D01*
Y03231D01*
X04299Y03235D01*
X04303Y03239D01*
Y03243D01*
X04299D01*
X04295Y03239D01*
X04291Y03243D01*
X04287D01*
Y03239D01*
X04291Y03235D01*
X04287Y03231D01*
Y03227D01*
X04237Y03202D02*
X04241D01*
X04245Y03206D01*
X04249Y03202D01*
X04253D01*
Y03206D01*
X04249Y0321D01*
X04253Y03214D01*
Y03218D01*
X04249D01*
X04245Y03214D01*
X04241Y03218D01*
X04237D01*
Y03214D01*
X04241Y0321D01*
X04237Y03206D01*
Y03202D01*
X04362Y03137D02*
X04366D01*
X0437Y03141D01*
X04374Y03137D01*
X04378D01*
Y03141D01*
X04374Y03145D01*
X04378Y03149D01*
Y03153D01*
X04374D01*
X0437Y03149D01*
X04366Y03153D01*
X04362D01*
Y03149D01*
X04366Y03145D01*
X04362Y03141D01*
Y03137D01*
X04327Y03077D02*
X04331D01*
X04335Y03081D01*
X04339Y03077D01*
X04343D01*
Y03081D01*
X04339Y03085D01*
X04343Y03089D01*
Y03093D01*
X04339D01*
X04335Y03089D01*
X04331Y03093D01*
X04327D01*
Y03089D01*
X04331Y03085D01*
X04327Y03081D01*
Y03077D01*
X04372Y03017D02*
X04376D01*
X0438Y03021D01*
X04384Y03017D01*
X04388D01*
Y03021D01*
X04384Y03025D01*
X04388Y03029D01*
Y03033D01*
X04384D01*
X0438Y03029D01*
X04376Y03033D01*
X04372D01*
Y03029D01*
X04376Y03025D01*
X04372Y03021D01*
Y03017D01*
X04262Y03442D02*
X04266D01*
X0427Y03446D01*
X04274Y03442D01*
X04278D01*
Y03446D01*
X04274Y0345D01*
X04278Y03454D01*
Y03458D01*
X04274D01*
X0427Y03454D01*
X04266Y03458D01*
X04262D01*
Y03454D01*
X04266Y0345D01*
X04262Y03446D01*
Y03442D01*
X04117Y03617D02*
X04121D01*
X04125Y03621D01*
X04129Y03617D01*
X04133D01*
Y03621D01*
X04129Y03625D01*
X04133Y03629D01*
Y03633D01*
X04129D01*
X04125Y03629D01*
X04121Y03633D01*
X04117D01*
Y03629D01*
X04121Y03625D01*
X04117Y03621D01*
Y03617D01*
X04407Y03402D02*
X04411D01*
X04415Y03406D01*
X04419Y03402D01*
X04423D01*
Y03406D01*
X04419Y0341D01*
X04423Y03414D01*
Y03418D01*
X04419D01*
X04415Y03414D01*
X04411Y03418D01*
X04407D01*
Y03414D01*
X04411Y0341D01*
X04407Y03406D01*
Y03402D01*
X03977Y02827D02*
X03981D01*
X03985Y02831D01*
X03989Y02827D01*
X03993D01*
Y02831D01*
X03989Y02835D01*
X03993Y02839D01*
Y02843D01*
X03989D01*
X03985Y02839D01*
X03981Y02843D01*
X03977D01*
Y02839D01*
X03981Y02835D01*
X03977Y02831D01*
Y02827D01*
X03802Y02732D02*
X03806D01*
X0381Y02736D01*
X03814Y02732D01*
X03818D01*
Y02736D01*
X03814Y0274D01*
X03818Y02744D01*
Y02748D01*
X03814D01*
X0381Y02744D01*
X03806Y02748D01*
X03802D01*
Y02744D01*
X03806Y0274D01*
X03802Y02736D01*
Y02732D01*
X04437Y03037D02*
X04441D01*
X04445Y03041D01*
X04449Y03037D01*
X04453D01*
Y03041D01*
X04449Y03045D01*
X04453Y03049D01*
Y03053D01*
X04449D01*
X04445Y03049D01*
X04441Y03053D01*
X04437D01*
Y03049D01*
X04441Y03045D01*
X04437Y03041D01*
Y03037D01*
X04767Y03162D02*
X04771D01*
X04775Y03166D01*
X04779Y03162D01*
X04783D01*
Y03166D01*
X04779Y0317D01*
X04783Y03174D01*
Y03178D01*
X04779D01*
X04775Y03174D01*
X04771Y03178D01*
X04767D01*
Y03174D01*
X04771Y0317D01*
X04767Y03166D01*
Y03162D01*
X04677Y03242D02*
X04681D01*
X04685Y03246D01*
X04689Y03242D01*
X04693D01*
Y03246D01*
X04689Y0325D01*
X04693Y03254D01*
Y03258D01*
X04689D01*
X04685Y03254D01*
X04681Y03258D01*
X04677D01*
Y03254D01*
X04681Y0325D01*
X04677Y03246D01*
Y03242D01*
X04682Y03167D02*
X04686D01*
X0469Y03171D01*
X04694Y03167D01*
X04698D01*
Y03171D01*
X04694Y03175D01*
X04698Y03179D01*
Y03183D01*
X04694D01*
X0469Y03179D01*
X04686Y03183D01*
X04682D01*
Y03179D01*
X04686Y03175D01*
X04682Y03171D01*
Y03167D01*
X04707Y03122D02*
X04711D01*
X04715Y03126D01*
X04719Y03122D01*
X04723D01*
Y03126D01*
X04719Y0313D01*
X04723Y03134D01*
Y03138D01*
X04719D01*
X04715Y03134D01*
X04711Y03138D01*
X04707D01*
Y03134D01*
X04711Y0313D01*
X04707Y03126D01*
Y03122D01*
X05062Y03442D02*
X05066D01*
X0507Y03446D01*
X05074Y03442D01*
X05078D01*
Y03446D01*
X05074Y0345D01*
X05078Y03454D01*
Y03458D01*
X05074D01*
X0507Y03454D01*
X05066Y03458D01*
X05062D01*
Y03454D01*
X05066Y0345D01*
X05062Y03446D01*
Y03442D01*
X05217Y03692D02*
X05221D01*
X05225Y03696D01*
X05229Y03692D01*
X05233D01*
Y03696D01*
X05229Y037D01*
X05233Y03704D01*
Y03708D01*
X05229D01*
X05225Y03704D01*
X05221Y03708D01*
X05217D01*
Y03704D01*
X05221Y037D01*
X05217Y03696D01*
Y03692D01*
X04202Y03607D02*
X04206D01*
X0421Y03611D01*
X04214Y03607D01*
X04218D01*
Y03611D01*
X04214Y03615D01*
X04218Y03619D01*
Y03623D01*
X04214D01*
X0421Y03619D01*
X04206Y03623D01*
X04202D01*
Y03619D01*
X04206Y03615D01*
X04202Y03611D01*
Y03607D01*
X05082Y03362D02*
X05086D01*
X0509Y03366D01*
X05094Y03362D01*
X05098D01*
Y03366D01*
X05094Y0337D01*
X05098Y03374D01*
Y03378D01*
X05094D01*
X0509Y03374D01*
X05086Y03378D01*
X05082D01*
Y03374D01*
X05086Y0337D01*
X05082Y03366D01*
Y03362D01*
X04027Y02692D02*
X04031D01*
X04035Y02696D01*
X04039Y02692D01*
X04043D01*
Y02696D01*
X04039Y027D01*
X04043Y02704D01*
Y02708D01*
X04039D01*
X04035Y02704D01*
X04031Y02708D01*
X04027D01*
Y02704D01*
X04031Y027D01*
X04027Y02696D01*
Y02692D01*
X04712Y02772D02*
X04716D01*
X0472Y02776D01*
X04724Y02772D01*
X04728D01*
Y02776D01*
X04724Y0278D01*
X04728Y02784D01*
Y02788D01*
X04724D01*
X0472Y02784D01*
X04716Y02788D01*
X04712D01*
Y02784D01*
X04716Y0278D01*
X04712Y02776D01*
Y02772D01*
X04662Y03582D02*
X04666D01*
X0467Y03586D01*
X04674Y03582D01*
X04678D01*
Y03586D01*
X04674Y0359D01*
X04678Y03594D01*
Y03598D01*
X04674D01*
X0467Y03594D01*
X04666Y03598D01*
X04662D01*
Y03594D01*
X04666Y0359D01*
X04662Y03586D01*
Y03582D01*
X03822Y03757D02*
X03826D01*
X0383Y03761D01*
X03834Y03757D01*
X03838D01*
Y03761D01*
X03834Y03765D01*
X03838Y03769D01*
Y03773D01*
X03834D01*
X0383Y03769D01*
X03826Y03773D01*
X03822D01*
Y03769D01*
X03826Y03765D01*
X03822Y03761D01*
Y03757D01*
X04682Y02507D02*
X04686D01*
X0469Y02511D01*
X04694Y02507D01*
X04698D01*
Y02511D01*
X04694Y02515D01*
X04698Y02519D01*
Y02523D01*
X04694D01*
X0469Y02519D01*
X04686Y02523D01*
X04682D01*
Y02519D01*
X04686Y02515D01*
X04682Y02511D01*
Y02507D01*
X04822Y02657D02*
X04826D01*
X0483Y02661D01*
X04834Y02657D01*
X04838D01*
Y02661D01*
X04834Y02665D01*
X04838Y02669D01*
Y02673D01*
X04834D01*
X0483Y02669D01*
X04826Y02673D01*
X04822D01*
Y02669D01*
X04826Y02665D01*
X04822Y02661D01*
Y02657D01*
X03787Y02417D02*
X03791D01*
X03795Y02421D01*
X03799Y02417D01*
X03803D01*
Y02421D01*
X03799Y02425D01*
X03803Y02429D01*
Y02433D01*
X03799D01*
X03795Y02429D01*
X03791Y02433D01*
X03787D01*
Y02429D01*
X03791Y02425D01*
X03787Y02421D01*
Y02417D01*
X04042Y03607D02*
X04046D01*
X0405Y03611D01*
X04054Y03607D01*
X04058D01*
Y03611D01*
X04054Y03615D01*
X04058Y03619D01*
Y03623D01*
X04054D01*
X0405Y03619D01*
X04046Y03623D01*
X04042D01*
Y03619D01*
X04046Y03615D01*
X04042Y03611D01*
Y03607D01*
X03627Y02867D02*
X03631D01*
X03635Y02871D01*
X03639Y02867D01*
X03643D01*
Y02871D01*
X03639Y02875D01*
X03643Y02879D01*
Y02883D01*
X03639D01*
X03635Y02879D01*
X03631Y02883D01*
X03627D01*
Y02879D01*
X03631Y02875D01*
X03627Y02871D01*
Y02867D01*
X04227Y03352D02*
X04231D01*
X04235Y03356D01*
X04239Y03352D01*
X04243D01*
Y03356D01*
X04239Y0336D01*
X04243Y03364D01*
Y03368D01*
X04239D01*
X04235Y03364D01*
X04231Y03368D01*
X04227D01*
Y03364D01*
X04231Y0336D01*
X04227Y03356D01*
Y03352D01*
X04222Y03302D02*
X04226D01*
X0423Y03306D01*
X04234Y03302D01*
X04238D01*
Y03306D01*
X04234Y0331D01*
X04238Y03314D01*
Y03318D01*
X04234D01*
X0423Y03314D01*
X04226Y03318D01*
X04222D01*
Y03314D01*
X04226Y0331D01*
X04222Y03306D01*
Y03302D01*
X03697Y02887D02*
X03701D01*
X03705Y02891D01*
X03709Y02887D01*
X03713D01*
Y02891D01*
X03709Y02895D01*
X03713Y02899D01*
Y02903D01*
X03709D01*
X03705Y02899D01*
X03701Y02903D01*
X03697D01*
Y02899D01*
X03701Y02895D01*
X03697Y02891D01*
Y02887D01*
X04662Y03297D02*
X04666D01*
X0467Y03301D01*
X04674Y03297D01*
X04678D01*
Y03301D01*
X04674Y03305D01*
X04678Y03309D01*
Y03313D01*
X04674D01*
X0467Y03309D01*
X04666Y03313D01*
X04662D01*
Y03309D01*
X04666Y03305D01*
X04662Y03301D01*
Y03297D01*
X04392Y03457D02*
X04396D01*
X044Y03461D01*
X04404Y03457D01*
X04408D01*
Y03461D01*
X04404Y03465D01*
X04408Y03469D01*
Y03473D01*
X04404D01*
X044Y03469D01*
X04396Y03473D01*
X04392D01*
Y03469D01*
X04396Y03465D01*
X04392Y03461D01*
Y03457D01*
X04682Y03517D02*
X04686D01*
X0469Y03521D01*
X04694Y03517D01*
X04698D01*
Y03521D01*
X04694Y03525D01*
X04698Y03529D01*
Y03533D01*
X04694D01*
X0469Y03529D01*
X04686Y03533D01*
X04682D01*
Y03529D01*
X04686Y03525D01*
X04682Y03521D01*
Y03517D01*
X03487Y03357D02*
X03491D01*
X03495Y03361D01*
X03499Y03357D01*
X03503D01*
Y03361D01*
X03499Y03365D01*
X03503Y03369D01*
Y03373D01*
X03499D01*
X03495Y03369D01*
X03491Y03373D01*
X03487D01*
Y03369D01*
X03491Y03365D01*
X03487Y03361D01*
Y03357D01*
X03987Y03552D02*
X03991D01*
X03995Y03556D01*
X03999Y03552D01*
X04003D01*
Y03556D01*
X03999Y0356D01*
X04003Y03564D01*
Y03568D01*
X03999D01*
X03995Y03564D01*
X03991Y03568D01*
X03987D01*
Y03564D01*
X03991Y0356D01*
X03987Y03556D01*
Y03552D01*
X04297Y02457D02*
X04301D01*
X04305Y02461D01*
X04309Y02457D01*
X04313D01*
Y02461D01*
X04309Y02465D01*
X04313Y02469D01*
Y02473D01*
X04309D01*
X04305Y02469D01*
X04301Y02473D01*
X04297D01*
Y02469D01*
X04301Y02465D01*
X04297Y02461D01*
Y02457D01*
X04482Y02602D02*
X04486D01*
X0449Y02606D01*
X04494Y02602D01*
X04498D01*
Y02606D01*
X04494Y0261D01*
X04498Y02614D01*
Y02618D01*
X04494D01*
X0449Y02614D01*
X04486Y02618D01*
X04482D01*
Y02614D01*
X04486Y0261D01*
X04482Y02606D01*
Y02602D01*
X04257Y02832D02*
X04261D01*
X04265Y02836D01*
X04269Y02832D01*
X04273D01*
Y02836D01*
X04269Y0284D01*
X04273Y02844D01*
Y02848D01*
X04269D01*
X04265Y02844D01*
X04261Y02848D01*
X04257D01*
Y02844D01*
X04261Y0284D01*
X04257Y02836D01*
Y02832D01*
X04197Y02822D02*
X04201D01*
X04205Y02826D01*
X04209Y02822D01*
X04213D01*
Y02826D01*
X04209Y0283D01*
X04213Y02834D01*
Y02838D01*
X04209D01*
X04205Y02834D01*
X04201Y02838D01*
X04197D01*
Y02834D01*
X04201Y0283D01*
X04197Y02826D01*
Y02822D01*
X03197Y0221D02*
X03205Y02218D01*
X03213Y0221D01*
X03205Y02202D01*
X03197Y0221D01*
X03247Y0231D02*
X03255Y02318D01*
X03263Y0231D01*
X03255Y02302D01*
X03247Y0231D01*
X03197Y0241D02*
X03205Y02418D01*
X03213Y0241D01*
X03205Y02402D01*
X03197Y0241D01*
X03297Y0201D02*
X03305Y02018D01*
X03313Y0201D01*
X03305Y02002D01*
X03297Y0201D01*
X03347Y0211D02*
X03355Y02118D01*
X03363Y0211D01*
X03355Y02102D01*
X03347Y0211D01*
X03297Y0221D02*
X03305Y02218D01*
X03313Y0221D01*
X03305Y02202D01*
X03297Y0221D01*
X03347Y0231D02*
X03355Y02318D01*
X03363Y0231D01*
X03355Y02302D01*
X03347Y0231D01*
X03397Y0201D02*
X03405Y02018D01*
X03413Y0201D01*
X03405Y02002D01*
X03397Y0201D01*
X03447Y0211D02*
X03455Y02118D01*
X03463Y0211D01*
X03455Y02102D01*
X03447Y0211D01*
X03397Y0221D02*
X03405Y02218D01*
X03413Y0221D01*
X03405Y02202D01*
X03397Y0221D01*
X03497Y0201D02*
X03505Y02018D01*
X03513Y0201D01*
X03505Y02002D01*
X03497Y0201D01*
X03547Y0211D02*
X03555Y02118D01*
X03563Y0211D01*
X03555Y02102D01*
X03547Y0211D01*
X03897Y0201D02*
X03905Y02018D01*
X03913Y0201D01*
X03905Y02002D01*
X03897Y0201D01*
X03947Y0211D02*
X03955Y02118D01*
X03963Y0211D01*
X03955Y02102D01*
X03947Y0211D01*
X03997Y0201D02*
X04005Y02018D01*
X04013Y0201D01*
X04005Y02002D01*
X03997Y0201D01*
X04047Y0211D02*
X04055Y02118D01*
X04063Y0211D01*
X04055Y02102D01*
X04047Y0211D01*
X04447D02*
X04455Y02118D01*
X04463Y0211D01*
X04455Y02102D01*
X04447Y0211D01*
X04497Y0201D02*
X04505Y02018D01*
X04513Y0201D01*
X04505Y02002D01*
X04497Y0201D01*
X04547Y0211D02*
X04555Y02118D01*
X04563Y0211D01*
X04555Y02102D01*
X04547Y0211D01*
X04597Y0201D02*
X04605Y02018D01*
X04613Y0201D01*
X04605Y02002D01*
X04597Y0201D01*
X04647Y0211D02*
X04655Y02118D01*
X04663Y0211D01*
X04655Y02102D01*
X04647Y0211D01*
X04697Y0201D02*
X04705Y02018D01*
X04713Y0201D01*
X04705Y02002D01*
X04697Y0201D01*
X04747Y0211D02*
X04755Y02118D01*
X04763Y0211D01*
X04755Y02102D01*
X04747Y0211D01*
X04797Y0201D02*
X04805Y02018D01*
X04813Y0201D01*
X04805Y02002D01*
X04797Y0201D01*
X04847Y0211D02*
X04855Y02118D01*
X04863Y0211D01*
X04855Y02102D01*
X04847Y0211D01*
X04897Y0201D02*
X04905Y02018D01*
X04913Y0201D01*
X04905Y02002D01*
X04897Y0201D01*
X04947Y0211D02*
X04955Y02118D01*
X04963Y0211D01*
X04955Y02102D01*
X04947Y0211D01*
X04997Y0201D02*
X05005Y02018D01*
X05013Y0201D01*
X05005Y02002D01*
X04997Y0201D01*
X05047Y0211D02*
X05055Y02118D01*
X05063Y0211D01*
X05055Y02102D01*
X05047Y0211D01*
X04997Y0241D02*
X05005Y02418D01*
X05013Y0241D01*
X05005Y02402D01*
X04997Y0241D01*
X05047Y0251D02*
X05055Y02518D01*
X05063Y0251D01*
X05055Y02502D01*
X05047Y0251D01*
X04997Y0381D02*
X05005Y03818D01*
X05013Y0381D01*
X05005Y03802D01*
X04997Y0381D01*
X05097Y0221D02*
X05105Y02218D01*
X05113Y0221D01*
X05105Y02202D01*
X05097Y0221D01*
X04692Y0239D02*
X047Y02398D01*
X04708Y0239D01*
X047Y02382D01*
X04692Y0239D01*
X04697Y0229D02*
X04705Y02298D01*
X04713Y0229D01*
X04705Y02282D01*
X04697Y0229D01*
X04827Y02395D02*
X04835Y02403D01*
X04843Y02395D01*
X04835Y02387D01*
X04827Y02395D01*
Y02285D02*
X04835Y02293D01*
X04843Y02285D01*
X04835Y02277D01*
X04827Y02285D01*
X04762Y0248D02*
X0477Y02488D01*
X04778Y0248D01*
X0477Y02472D01*
X04762Y0248D01*
X03472Y02515D02*
X0348Y02523D01*
X03488Y02515D01*
X0348Y02507D01*
X03472Y02515D01*
X03517Y0241D02*
X03525Y02418D01*
X03533Y0241D01*
X03525Y02402D01*
X03517Y0241D01*
X03617Y02495D02*
X03625Y02503D01*
X03633Y02495D01*
X03625Y02487D01*
X03617Y02495D01*
X03932Y0227D02*
X0394Y02278D01*
X03948Y0227D01*
X0394Y02262D01*
X03932Y0227D01*
X04157Y02345D02*
X04165Y02353D01*
X04173Y02345D01*
X04165Y02337D01*
X04157Y02345D01*
X04257Y02255D02*
X04265Y02263D01*
X04273Y02255D01*
X04265Y02247D01*
X04257Y02255D01*
X03517Y0274D02*
X03525Y02748D01*
X03533Y0274D01*
X03525Y02732D01*
X03517Y0274D01*
D104*
X033568Y02805D02*
G03*
X033568Y02805I-00008J0D01*
G01*
X032568D02*
G03*
X032568Y02805I-00008J0D01*
G01*
X031578D02*
G03*
X031578Y02805I-00008J0D01*
G01*
X033568Y02705D02*
G03*
X033568Y02705I-00008J0D01*
G01*
X031568D02*
G03*
X031568Y02705I-00008J0D01*
G01*
X032568D02*
G03*
X032568Y02705I-00008J0D01*
G01*
X033568Y0301D02*
G03*
X033568Y0301I-00008J0D01*
G01*
X032568D02*
G03*
X032568Y0301I-00008J0D01*
G01*
X031578D02*
G03*
X031578Y0301I-00008J0D01*
G01*
X033568Y0291D02*
G03*
X033568Y0291I-00008J0D01*
G01*
X031568D02*
G03*
X031568Y0291I-00008J0D01*
G01*
X032568D02*
G03*
X032568Y0291I-00008J0D01*
G01*
X033568Y032153D02*
G03*
X033568Y032153I-00008J0D01*
G01*
X032568Y03215D02*
G03*
X032568Y03215I-00008J0D01*
G01*
X031578D02*
G03*
X031578Y03215I-00008J0D01*
G01*
X033568Y03115D02*
G03*
X033568Y03115I-00008J0D01*
G01*
X031568D02*
G03*
X031568Y03115I-00008J0D01*
G01*
X032568D02*
G03*
X032568Y03115I-00008J0D01*
G01*
X033538Y026D02*
G03*
X033538Y026I-00008J0D01*
G01*
X032528D02*
G03*
X032528Y026I-00008J0D01*
G01*
X031548D02*
G03*
X031548Y026I-00008J0D01*
G01*
X05018Y0293D02*
G03*
X05018Y0293I-00008J0D01*
G01*
X05119D02*
G03*
X05119Y0293I-00008J0D01*
G01*
X05217D02*
G03*
X05217Y0293I-00008J0D01*
G01*
X03303Y0361D02*
G03*
X03303Y0361I-00008J0D01*
G01*
Y0371D02*
G03*
X03303Y0371I-00008J0D01*
G01*
Y03809D02*
G03*
X03303Y03809I-00008J0D01*
G01*
X03203Y0361D02*
G03*
X03203Y0361I-00008J0D01*
G01*
Y0381D02*
G03*
X03203Y0381I-00008J0D01*
G01*
Y0371D02*
G03*
X03203Y0371I-00008J0D01*
G01*
X05018Y0304D02*
G03*
X05018Y0304I-00008J0D01*
G01*
X05119D02*
G03*
X05119Y0304I-00008J0D01*
G01*
X05217D02*
G03*
X05217Y0304I-00008J0D01*
G01*
X05018Y0282D02*
G03*
X05018Y0282I-00008J0D01*
G01*
X05119D02*
G03*
X05119Y0282I-00008J0D01*
G01*
X05217D02*
G03*
X05217Y0282I-00008J0D01*
G01*
X05018Y0271D02*
G03*
X05018Y0271I-00008J0D01*
G01*
X05119D02*
G03*
X05119Y0271I-00008J0D01*
G01*
X05217D02*
G03*
X05217Y0271I-00008J0D01*
G01*
M02*
