G04 Layer_Color=8421504*
%FSTAX24Y24*%
%MOIN*%
G70*
G01*
G75*
%ADD10R,0.0315X0.0118*%
%ADD11R,0.0118X0.0315*%
%ADD12R,0.0394X0.0433*%
%ADD13R,0.0689X0.1260*%
%ADD14R,0.0689X0.0374*%
%ADD15O,0.0118X0.0709*%
%ADD16O,0.0709X0.0118*%
%ADD17R,0.0717X0.0402*%
%ADD18R,0.0374X0.0551*%
%ADD19R,0.0906X0.0709*%
%ADD20R,0.0433X0.0618*%
%ADD21R,0.0618X0.0433*%
%ADD22R,0.0390X0.0579*%
%ADD23R,0.0394X0.0551*%
%ADD24R,0.0551X0.0374*%
%ADD25R,0.0386X0.0339*%
%ADD26R,0.0339X0.0386*%
%ADD27R,0.0512X0.0669*%
%ADD28R,0.0579X0.0390*%
%ADD29R,0.0402X0.0717*%
%ADD30R,0.0370X0.0295*%
%ADD31R,0.0532X0.0217*%
%ADD32R,0.0295X0.0370*%
D10*
X041982Y027492D02*
D03*
Y027295D02*
D03*
Y027098D02*
D03*
Y026902D02*
D03*
Y026705D02*
D03*
Y026508D02*
D03*
X043518D02*
D03*
Y026705D02*
D03*
Y026902D02*
D03*
Y027098D02*
D03*
Y027295D02*
D03*
Y027492D02*
D03*
D11*
X042258Y026232D02*
D03*
X042455D02*
D03*
X042652D02*
D03*
X042848D02*
D03*
X043045D02*
D03*
X043242D02*
D03*
Y027768D02*
D03*
X043045D02*
D03*
X042848D02*
D03*
X042652D02*
D03*
X042455D02*
D03*
X042258D02*
D03*
D12*
X03165Y034D02*
D03*
Y034512D02*
D03*
D13*
X03954Y03695D02*
D03*
D14*
X03706Y036044D02*
D03*
Y03695D02*
D03*
Y037856D02*
D03*
D15*
X040624Y035315D02*
D03*
X040821D02*
D03*
X041018D02*
D03*
X041215D02*
D03*
X041412D02*
D03*
X041609D02*
D03*
X041806D02*
D03*
X042002D02*
D03*
X042199D02*
D03*
X042396D02*
D03*
X042593D02*
D03*
X04279D02*
D03*
X042987D02*
D03*
X043183D02*
D03*
X04338D02*
D03*
X043577D02*
D03*
X043774D02*
D03*
X043971D02*
D03*
X044168D02*
D03*
X044365D02*
D03*
X044561D02*
D03*
X044758D02*
D03*
X044955D02*
D03*
X045152D02*
D03*
X045349D02*
D03*
Y02937D02*
D03*
X045152D02*
D03*
X044955D02*
D03*
X044758D02*
D03*
X044561D02*
D03*
X044365D02*
D03*
X044168D02*
D03*
X043971D02*
D03*
X043774D02*
D03*
X043577D02*
D03*
X04338D02*
D03*
X043183D02*
D03*
X042987D02*
D03*
X04279D02*
D03*
X042593D02*
D03*
X042396D02*
D03*
X042199D02*
D03*
X042002D02*
D03*
X041806D02*
D03*
X041609D02*
D03*
X041412D02*
D03*
X041215D02*
D03*
X041018D02*
D03*
X040821D02*
D03*
X040624D02*
D03*
D16*
X045959Y034704D02*
D03*
Y034507D02*
D03*
Y034311D02*
D03*
Y034114D02*
D03*
Y033917D02*
D03*
Y03372D02*
D03*
Y033523D02*
D03*
Y033326D02*
D03*
Y03313D02*
D03*
Y032933D02*
D03*
Y032736D02*
D03*
Y032539D02*
D03*
Y032342D02*
D03*
Y032145D02*
D03*
Y031948D02*
D03*
Y031752D02*
D03*
Y031555D02*
D03*
Y031358D02*
D03*
Y031161D02*
D03*
Y030964D02*
D03*
Y030767D02*
D03*
Y03057D02*
D03*
Y030374D02*
D03*
Y030177D02*
D03*
Y02998D02*
D03*
X040014D02*
D03*
Y030177D02*
D03*
Y030374D02*
D03*
Y03057D02*
D03*
Y030767D02*
D03*
Y030964D02*
D03*
Y031161D02*
D03*
Y031358D02*
D03*
Y031555D02*
D03*
Y031752D02*
D03*
Y031948D02*
D03*
Y032145D02*
D03*
Y032342D02*
D03*
Y032539D02*
D03*
Y032736D02*
D03*
Y032933D02*
D03*
Y03313D02*
D03*
Y033326D02*
D03*
Y033523D02*
D03*
Y03372D02*
D03*
Y033917D02*
D03*
Y034114D02*
D03*
Y034311D02*
D03*
Y034507D02*
D03*
Y034704D02*
D03*
D17*
X042Y036949D02*
D03*
Y038051D02*
D03*
X0408Y036949D02*
D03*
Y038051D02*
D03*
X0344Y036D02*
D03*
Y037102D02*
D03*
X0442Y024949D02*
D03*
Y026051D02*
D03*
D18*
X040676Y03895D02*
D03*
X041424D02*
D03*
X040074Y02475D02*
D03*
X039326D02*
D03*
X035626Y02615D02*
D03*
X036374D02*
D03*
X046376Y02655D02*
D03*
X047124D02*
D03*
X043376Y0284D02*
D03*
X044124D02*
D03*
X047326Y03585D02*
D03*
X048074D02*
D03*
X050802D02*
D03*
X05155D02*
D03*
X042276Y0389D02*
D03*
X043024D02*
D03*
D19*
X03575Y037071D02*
D03*
Y035929D02*
D03*
D20*
X039169Y0351D02*
D03*
X038531D02*
D03*
D21*
X036087Y033681D02*
D03*
Y034319D02*
D03*
X036896Y033681D02*
D03*
Y034319D02*
D03*
X037706Y033681D02*
D03*
Y034319D02*
D03*
X038516Y033681D02*
D03*
Y034319D02*
D03*
X0381Y028769D02*
D03*
Y028131D02*
D03*
X04305Y023331D02*
D03*
Y023969D02*
D03*
D22*
X044177Y0268D02*
D03*
X044823D02*
D03*
D23*
X035304Y03825D02*
D03*
X034596D02*
D03*
X04795Y0378D02*
D03*
X047241D02*
D03*
X051535D02*
D03*
X050826D02*
D03*
D24*
X03925Y032941D02*
D03*
Y032193D02*
D03*
X0457Y026048D02*
D03*
Y0253D02*
D03*
D25*
X0381Y032226D02*
D03*
Y031707D02*
D03*
D26*
X03926Y031717D02*
D03*
X03874D02*
D03*
D27*
X03905Y029069D02*
D03*
Y030131D02*
D03*
D28*
X04205Y025673D02*
D03*
Y025027D02*
D03*
D29*
X048051Y0344D02*
D03*
X046949D02*
D03*
X046401Y02835D02*
D03*
X045299D02*
D03*
D30*
X0392Y033624D02*
D03*
Y034176D02*
D03*
D31*
X045122Y023988D02*
D03*
Y023496D02*
D03*
Y023004D02*
D03*
Y022512D02*
D03*
X044178D02*
D03*
Y023004D02*
D03*
Y023496D02*
D03*
Y023988D02*
D03*
D32*
X042874Y0257D02*
D03*
X043426D02*
D03*
M02*
