G04 Layer_Color=255*
%FSTAX24Y24*%
%MOIN*%
G70*
G01*
G75*
%ADD12R,0.0394X0.0433*%
%ADD18R,0.0374X0.0551*%
%ADD20R,0.0433X0.0618*%
%ADD21R,0.0618X0.0433*%
%ADD24R,0.0551X0.0374*%
%ADD44R,0.0591X0.0591*%
%ADD45C,0.0591*%
%ADD46O,0.0600X0.0860*%
%ADD47O,0.0650X0.0750*%
%ADD48C,0.0587*%
%ADD49C,0.0750*%
%ADD50C,0.1260*%
%ADD51O,0.0860X0.0600*%
%ADD52O,0.0787X0.0394*%
%ADD53O,0.0787X0.0394*%
%ADD56R,0.0433X0.0394*%
D12*
X0486Y035738D02*
D03*
Y03625D02*
D03*
X0503Y035838D02*
D03*
Y03635D02*
D03*
X0517Y035838D02*
D03*
Y03635D02*
D03*
D18*
X043924Y0368D02*
D03*
X043176D02*
D03*
X046724Y03685D02*
D03*
X045976D02*
D03*
Y03845D02*
D03*
X046724D02*
D03*
X049524Y03795D02*
D03*
X048776D02*
D03*
D20*
X04525Y0295D02*
D03*
X044612D02*
D03*
X046219Y0355D02*
D03*
X045581D02*
D03*
X039369Y0356D02*
D03*
X038731D02*
D03*
D21*
X04605Y025712D02*
D03*
Y02635D02*
D03*
D24*
X0475Y026176D02*
D03*
Y026924D02*
D03*
D44*
X0382Y02015D02*
D03*
X0499Y03895D02*
D03*
X0497Y04005D02*
D03*
X0491Y0326D02*
D03*
Y0315D02*
D03*
X04385Y02015D02*
D03*
X03395Y04005D02*
D03*
D45*
X0372Y02015D02*
D03*
X0362D02*
D03*
X0489Y03895D02*
D03*
X0427Y04005D02*
D03*
X0437D02*
D03*
X0447D02*
D03*
X0457D02*
D03*
X0467D02*
D03*
X0477D02*
D03*
X0487D02*
D03*
X0501Y0326D02*
D03*
X0511D02*
D03*
X0521D02*
D03*
X0501Y0315D02*
D03*
X0511D02*
D03*
X0521D02*
D03*
X04285Y02015D02*
D03*
X04185D02*
D03*
X04085D02*
D03*
X03495Y04005D02*
D03*
X03595D02*
D03*
X03695D02*
D03*
X03795D02*
D03*
X03895D02*
D03*
X03995D02*
D03*
X04095D02*
D03*
D46*
X033488Y02805D02*
D03*
X032488D02*
D03*
X031498D02*
D03*
X033488Y02705D02*
D03*
X031488D02*
D03*
X032488D02*
D03*
X033488Y0301D02*
D03*
X032488D02*
D03*
X031498D02*
D03*
X033488Y0291D02*
D03*
X031488D02*
D03*
X032488D02*
D03*
X033488Y032153D02*
D03*
X032488Y03215D02*
D03*
X031498D02*
D03*
X033488Y03115D02*
D03*
X031488D02*
D03*
X032488D02*
D03*
D47*
X033458Y026D02*
D03*
X032448D02*
D03*
X031468D02*
D03*
X0501Y0293D02*
D03*
X05111D02*
D03*
X05209D02*
D03*
X0501Y0304D02*
D03*
X05111D02*
D03*
X05209D02*
D03*
X0501Y0282D02*
D03*
X05111D02*
D03*
X05209D02*
D03*
X0501Y0271D02*
D03*
X05111D02*
D03*
X05209D02*
D03*
D48*
X05208Y024736D02*
D03*
Y022964D02*
D03*
X04952Y024736D02*
D03*
Y022964D02*
D03*
D49*
X03655Y0299D02*
D03*
Y0319D02*
D03*
D50*
X0516Y03975D02*
D03*
Y0208D02*
D03*
X032D02*
D03*
Y03975D02*
D03*
D51*
X03295Y0361D02*
D03*
Y0371D02*
D03*
Y03809D02*
D03*
X03195Y0361D02*
D03*
Y0381D02*
D03*
Y0371D02*
D03*
D52*
X03935Y0268D02*
D03*
D53*
Y0263D02*
D03*
Y0258D02*
D03*
D56*
X051344Y03455D02*
D03*
X051856D02*
D03*
M02*
