G04 Layer_Physical_Order=3*
G04 Layer_Color=36540*
%FSTAX24Y24*%
%MOIN*%
G70*
G01*
G75*
%ADD44R,0.0591X0.0591*%
%ADD45C,0.0591*%
%ADD46O,0.0600X0.0860*%
%ADD47O,0.0650X0.0750*%
%ADD48C,0.0587*%
%ADD51O,0.0860X0.0600*%
%ADD53O,0.0787X0.0394*%
%ADD54C,0.0280*%
G36*
X051143Y040447D02*
X051137Y040443D01*
X05101Y04034D01*
X050907Y040213D01*
X050829Y040069D01*
X050782Y039913D01*
X050766Y03975D01*
X050782Y039587D01*
X050829Y039431D01*
X050907Y039287D01*
X05101Y03916D01*
X051137Y039057D01*
X051281Y038979D01*
X051437Y038932D01*
X0516Y038916D01*
X051763Y038932D01*
X051919Y038979D01*
X052063Y039057D01*
X05219Y03916D01*
X052293Y039287D01*
X052371Y039431D01*
X0524Y039528D01*
X05245Y039521D01*
Y037334D01*
X0524Y037306D01*
X052339Y037331D01*
X05225Y037343D01*
X052161Y037331D01*
X052079Y037297D01*
X052008Y037242D01*
X051953Y037171D01*
X051919Y037089D01*
X051907Y037D01*
X051919Y036911D01*
X051953Y036829D01*
X052008Y036758D01*
X052079Y036703D01*
X052161Y036669D01*
X05225Y036657D01*
X052339Y036669D01*
X0524Y036694D01*
X05245Y036666D01*
Y03535D01*
X0524Y035333D01*
X052392Y035342D01*
X052321Y035397D01*
X052239Y035431D01*
X05215Y035443D01*
X052061Y035431D01*
X051979Y035397D01*
X051908Y035342D01*
X051853Y035271D01*
X051819Y035189D01*
X051807Y0351D01*
X051819Y035011D01*
X051853Y034929D01*
X051908Y034858D01*
X051979Y034803D01*
X052061Y034769D01*
X05215Y034757D01*
X052239Y034769D01*
X052321Y034803D01*
X052392Y034858D01*
X0524Y034867D01*
X05245Y03485D01*
Y032875D01*
X0524Y032858D01*
X052382Y032882D01*
X052299Y032945D01*
X052203Y032985D01*
X05215Y032992D01*
Y0326D01*
Y032208D01*
X052203Y032215D01*
X052299Y032255D01*
X052382Y032318D01*
X0524Y032342D01*
X05245Y032325D01*
Y031775D01*
X0524Y031758D01*
X052382Y031782D01*
X052299Y031845D01*
X052203Y031885D01*
X05215Y031892D01*
Y0315D01*
Y031108D01*
X052203Y031115D01*
X052299Y031155D01*
X052382Y031218D01*
X0524Y031242D01*
X05245Y031225D01*
Y030757D01*
X052403Y030741D01*
X052393Y030753D01*
X052304Y030821D01*
X052201Y030864D01*
X05214Y030872D01*
Y0304D01*
Y029928D01*
X052201Y029936D01*
X052304Y029979D01*
X052393Y030047D01*
X052403Y030059D01*
X05245Y030043D01*
Y029657D01*
X052403Y029641D01*
X052393Y029653D01*
X052304Y029721D01*
X052201Y029764D01*
X05214Y029772D01*
Y0293D01*
Y028828D01*
X052201Y028836D01*
X052304Y028879D01*
X052393Y028947D01*
X052403Y028959D01*
X05245Y028943D01*
Y028557D01*
X052403Y028541D01*
X052393Y028553D01*
X052304Y028621D01*
X052201Y028664D01*
X05214Y028672D01*
Y0282D01*
Y027728D01*
X052201Y027736D01*
X052304Y027779D01*
X052393Y027847D01*
X052403Y027859D01*
X05245Y027843D01*
Y027457D01*
X052403Y027441D01*
X052393Y027453D01*
X052304Y027521D01*
X052201Y027564D01*
X05214Y027572D01*
Y0271D01*
Y026628D01*
X052201Y026636D01*
X052304Y026679D01*
X052393Y026747D01*
X052403Y026759D01*
X05245Y026743D01*
Y025136D01*
X0524Y025112D01*
X052328Y025167D01*
X052208Y025216D01*
X05208Y025233D01*
X051951Y025216D01*
X051831Y025167D01*
X051728Y025088D01*
X051649Y024985D01*
X051599Y024865D01*
X051582Y024736D01*
X051599Y024607D01*
X051649Y024487D01*
X051728Y024384D01*
X051831Y024305D01*
X051951Y024255D01*
X05208Y024238D01*
X052208Y024255D01*
X052328Y024305D01*
X0524Y02436D01*
X05245Y024335D01*
Y023365D01*
X0524Y02334D01*
X052328Y023395D01*
X052208Y023445D01*
X05208Y023462D01*
X051951Y023445D01*
X051831Y023395D01*
X051728Y023316D01*
X051649Y023213D01*
X051599Y023093D01*
X051582Y022964D01*
X051599Y022835D01*
X051649Y022715D01*
X051728Y022612D01*
X051831Y022533D01*
X051951Y022484D01*
X05208Y022467D01*
X052208Y022484D01*
X052328Y022533D01*
X0524Y022588D01*
X05245Y022564D01*
Y021029D01*
X0524Y021022D01*
X052371Y021119D01*
X052293Y021263D01*
X05219Y02139D01*
X052063Y021493D01*
X051919Y021571D01*
X051763Y021618D01*
X0516Y021634D01*
X051437Y021618D01*
X051281Y021571D01*
X051137Y021493D01*
X05101Y02139D01*
X050907Y021263D01*
X050839Y021136D01*
X050786Y021144D01*
X050776Y021194D01*
X050723Y021273D01*
X050644Y021326D01*
X0506Y021335D01*
Y0211D01*
Y020865D01*
X050644Y020874D01*
X050723Y020927D01*
X050729Y020936D01*
X050778Y020919D01*
X050766Y0208D01*
X050782Y020637D01*
X050829Y020481D01*
X050907Y020337D01*
X05101Y02021D01*
X051137Y020107D01*
X051281Y020029D01*
X051437Y019982D01*
X0516Y019966D01*
X051763Y019982D01*
X051919Y020029D01*
X052063Y020107D01*
X05219Y02021D01*
X052293Y020337D01*
X052371Y020481D01*
X0524Y020578D01*
X05245Y020571D01*
Y019805D01*
X044345D01*
Y020645D01*
X043355D01*
Y020356D01*
X043305Y020346D01*
X043283Y0204D01*
X043203Y020503D01*
X0431Y020583D01*
X042979Y020633D01*
X04285Y02065D01*
X042721Y020633D01*
X0426Y020583D01*
X042497Y020503D01*
X042417Y0204D01*
X042377Y020302D01*
X042323D01*
X042283Y0204D01*
X042203Y020503D01*
X0421Y020583D01*
X041979Y020633D01*
X04185Y02065D01*
X041721Y020633D01*
X0416Y020583D01*
X041497Y020503D01*
X041417Y0204D01*
X041367Y020279D01*
X04135Y02015D01*
X041367Y020021D01*
X041417Y0199D01*
X041456Y01985D01*
X041434Y019805D01*
X041127D01*
X041111Y019852D01*
X041132Y019868D01*
X041195Y019951D01*
X041235Y020047D01*
X041242Y0201D01*
X04085D01*
X040458D01*
X040465Y020047D01*
X040505Y019951D01*
X040568Y019868D01*
X040589Y019852D01*
X040573Y019805D01*
X038695D01*
Y020645D01*
X037705D01*
Y020356D01*
X037655Y020346D01*
X037633Y0204D01*
X037553Y020503D01*
X03745Y020583D01*
X037329Y020633D01*
X0372Y02065D01*
X037071Y020633D01*
X03695Y020583D01*
X036847Y020503D01*
X036767Y0204D01*
X036727Y020302D01*
X036673D01*
X036633Y0204D01*
X036553Y020503D01*
X03645Y020583D01*
X036329Y020633D01*
X0362Y02065D01*
X036071Y020633D01*
X03595Y020583D01*
X035847Y020503D01*
X035767Y0204D01*
X035717Y020279D01*
X0357Y02015D01*
X035717Y020021D01*
X035767Y0199D01*
X035806Y01985D01*
X035784Y019805D01*
X031055D01*
Y025713D01*
X031105Y025725D01*
X031165Y025647D01*
X031254Y025579D01*
X031357Y025536D01*
X031418Y025528D01*
Y026D01*
X031518D01*
Y025528D01*
X031579Y025536D01*
X031682Y025579D01*
X031771Y025647D01*
X031839Y025736D01*
X031882Y025839D01*
X031882Y025841D01*
X031933D01*
X031936Y025813D01*
X031989Y025685D01*
X032073Y025576D01*
X032183Y025491D01*
X032311Y025439D01*
X032448Y02542D01*
X032585Y025439D01*
X032713Y025491D01*
X032822Y025576D01*
X032906Y025685D01*
X032928Y025737D01*
X032978D01*
X032999Y025685D01*
X033083Y025576D01*
X033193Y025491D01*
X033321Y025439D01*
X033458Y02542D01*
X033595Y025439D01*
X033723Y025491D01*
X033832Y025576D01*
X033916Y025685D01*
X033969Y025813D01*
X033987Y02595D01*
Y02605D01*
X033969Y026187D01*
X033916Y026315D01*
X033832Y026424D01*
X03378Y026464D01*
Y026514D01*
X033844Y026563D01*
X033925Y026668D01*
X033975Y026789D01*
X033992Y02692D01*
Y02718D01*
X033975Y027311D01*
X033925Y027432D01*
X033844Y027537D01*
Y027563D01*
X033925Y027668D01*
X033975Y027789D01*
X033992Y02792D01*
Y02818D01*
X033975Y028311D01*
X033925Y028432D01*
X033844Y028537D01*
X033827Y02855D01*
Y0286D01*
X033844Y028613D01*
X033925Y028718D01*
X033975Y028839D01*
X033992Y02897D01*
Y02923D01*
X033975Y029361D01*
X033925Y029482D01*
X033844Y029587D01*
Y029613D01*
X033925Y029718D01*
X033975Y029839D01*
X033992Y02997D01*
Y03023D01*
X033975Y030361D01*
X033925Y030482D01*
X033844Y030587D01*
X033827Y0306D01*
Y03065D01*
X033844Y030663D01*
X033925Y030768D01*
X033975Y030889D01*
X033992Y03102D01*
Y03128D01*
X033975Y031411D01*
X033925Y031532D01*
X033861Y031615D01*
X033849Y031651D01*
X033861Y031687D01*
X033925Y03177D01*
X033975Y031892D01*
X033992Y032023D01*
Y032283D01*
X033975Y032413D01*
X033925Y032535D01*
X033844Y032639D01*
X03374Y032719D01*
X033618Y03277D01*
X033488Y032787D01*
X033357Y03277D01*
X033236Y032719D01*
X033131Y032639D01*
X033051Y032535D01*
X033014Y032446D01*
X03296D01*
X032925Y032532D01*
X032844Y032637D01*
X03274Y032717D01*
X032618Y032767D01*
X032488Y032784D01*
X032357Y032767D01*
X032236Y032717D01*
X032131Y032637D01*
X032051Y032532D01*
X032001Y032411D01*
X031984Y03228D01*
Y03202D01*
X032001Y031889D01*
X032051Y031768D01*
X032131Y031663D01*
Y031637D01*
X032051Y031532D01*
X032001Y031411D01*
X031984Y03128D01*
Y03102D01*
X032001Y030889D01*
X032051Y030768D01*
X032131Y030663D01*
X032149Y03065D01*
Y0306D01*
X032131Y030587D01*
X032051Y030482D01*
X032001Y030361D01*
X031984Y03023D01*
Y02997D01*
X032001Y029839D01*
X032051Y029718D01*
X032131Y029613D01*
Y029587D01*
X032051Y029482D01*
X032001Y029361D01*
X031984Y02923D01*
Y02897D01*
X032001Y028839D01*
X032051Y028718D01*
X032131Y028613D01*
X032149Y0286D01*
Y02855D01*
X032131Y028537D01*
X032051Y028432D01*
X032001Y028311D01*
X031984Y02818D01*
Y02792D01*
X032001Y027789D01*
X032051Y027668D01*
X032131Y027563D01*
Y027537D01*
X032051Y027432D01*
X032001Y027311D01*
X031984Y02718D01*
Y02692D01*
X032001Y026789D01*
X032051Y026668D01*
X032131Y026563D01*
X032152Y026548D01*
Y026485D01*
X032073Y026424D01*
X031989Y026315D01*
X031936Y026187D01*
X031933Y026159D01*
X031882D01*
X031882Y026161D01*
X031839Y026264D01*
X031771Y026353D01*
X031682Y026421D01*
X031579Y026464D01*
X031526Y026471D01*
Y026522D01*
X031592Y02653D01*
X03169Y026571D01*
X031773Y026635D01*
X031837Y026718D01*
X031878Y026816D01*
X031891Y02692D01*
Y027D01*
X031488D01*
Y0271D01*
X031891D01*
Y02718D01*
X031878Y027284D01*
X031837Y027382D01*
X031773Y027465D01*
X031704Y027518D01*
X031701Y027551D01*
X031703Y027564D01*
X031707Y027576D01*
X031783Y027635D01*
X031847Y027718D01*
X031888Y027816D01*
X031901Y02792D01*
Y028D01*
X031498D01*
Y0281D01*
X031901D01*
Y02818D01*
X031888Y028284D01*
X031847Y028382D01*
X031783Y028465D01*
X0317Y028529D01*
X03165Y02855D01*
Y028604D01*
X03169Y028621D01*
X031773Y028685D01*
X031837Y028768D01*
X031878Y028866D01*
X031891Y02897D01*
Y02905D01*
X031488D01*
Y02915D01*
X031891D01*
Y02923D01*
X031878Y029334D01*
X031837Y029432D01*
X031773Y029515D01*
X031704Y029568D01*
X031701Y029601D01*
X031703Y029614D01*
X031707Y029626D01*
X031783Y029685D01*
X031847Y029768D01*
X031888Y029866D01*
X031901Y02997D01*
Y03005D01*
X031498D01*
Y03015D01*
X031901D01*
Y03023D01*
X031888Y030334D01*
X031847Y030432D01*
X031783Y030515D01*
X0317Y030579D01*
X03165Y0306D01*
Y030654D01*
X03169Y030671D01*
X031773Y030735D01*
X031837Y030818D01*
X031878Y030916D01*
X031891Y03102D01*
Y0311D01*
X031488D01*
Y0312D01*
X031891D01*
Y03128D01*
X031878Y031384D01*
X031837Y031482D01*
X031773Y031565D01*
X031704Y031618D01*
X031701Y031651D01*
X031703Y031664D01*
X031707Y031676D01*
X031783Y031735D01*
X031847Y031818D01*
X031888Y031916D01*
X031901Y03202D01*
Y0321D01*
X031498D01*
Y03215D01*
X031448D01*
Y032677D01*
X031393Y03267D01*
X031296Y032629D01*
X031213Y032565D01*
X031148Y032482D01*
X031108Y032384D01*
X031105Y03236D01*
X031055Y032363D01*
Y040495D01*
X03153D01*
X031543Y040447D01*
X031537Y040443D01*
X03141Y04034D01*
X031307Y040213D01*
X031229Y040069D01*
X031182Y039913D01*
X031166Y03975D01*
X031182Y039587D01*
X031229Y039431D01*
X031307Y039287D01*
X03141Y03916D01*
X031537Y039057D01*
X031681Y038979D01*
X031837Y038932D01*
X032Y038916D01*
X032163Y038932D01*
X032319Y038979D01*
X032463Y039057D01*
X03259Y03916D01*
X032693Y039287D01*
X032771Y039431D01*
X032818Y039587D01*
X032834Y03975D01*
X032818Y039913D01*
X032771Y040069D01*
X032693Y040213D01*
X03259Y04034D01*
X032463Y040443D01*
X032457Y040447D01*
X03247Y040495D01*
X033455D01*
Y039555D01*
X034445D01*
Y039844D01*
X034495Y039854D01*
X034517Y0398D01*
X034597Y039697D01*
X0347Y039617D01*
X034821Y039567D01*
X03495Y03955D01*
X035079Y039567D01*
X0352Y039617D01*
X035303Y039697D01*
X035383Y0398D01*
X035433Y039921D01*
X03545Y04005D01*
X035433Y040179D01*
X035383Y0403D01*
X035303Y040403D01*
X035249Y040445D01*
X035266Y040495D01*
X035919D01*
X035923Y040445D01*
X035847Y040435D01*
X035751Y040395D01*
X035668Y040332D01*
X035605Y040249D01*
X035565Y040153D01*
X035558Y0401D01*
X036342D01*
X036335Y040153D01*
X036295Y040249D01*
X036232Y040332D01*
X036149Y040395D01*
X036053Y040435D01*
X035977Y040445D01*
X035981Y040495D01*
X036634D01*
X036651Y040445D01*
X036597Y040403D01*
X036517Y0403D01*
X036467Y040179D01*
X03645Y04005D01*
X036467Y039921D01*
X036517Y0398D01*
X036597Y039697D01*
X0367Y039617D01*
X036821Y039567D01*
X03695Y03955D01*
X037079Y039567D01*
X0372Y039617D01*
X037303Y039697D01*
X037383Y0398D01*
X037423Y039898D01*
X037477D01*
X037517Y0398D01*
X037597Y039697D01*
X0377Y039617D01*
X037821Y039567D01*
X03795Y03955D01*
X038079Y039567D01*
X0382Y039617D01*
X038303Y039697D01*
X038383Y0398D01*
X038423Y039898D01*
X038477D01*
X038517Y0398D01*
X038597Y039697D01*
X0387Y039617D01*
X038821Y039567D01*
X03895Y03955D01*
X039079Y039567D01*
X0392Y039617D01*
X039303Y039697D01*
X039383Y0398D01*
X039423Y039898D01*
X039477D01*
X039517Y0398D01*
X039597Y039697D01*
X0397Y039617D01*
X039821Y039567D01*
X03995Y03955D01*
X040079Y039567D01*
X0402Y039617D01*
X040303Y039697D01*
X040383Y0398D01*
X040423Y039898D01*
X040477D01*
X040517Y0398D01*
X040597Y039697D01*
X0407Y039617D01*
X040821Y039567D01*
X04095Y03955D01*
X041079Y039567D01*
X0412Y039617D01*
X041303Y039697D01*
X041383Y0398D01*
X041433Y039921D01*
X04145Y04005D01*
X041433Y040179D01*
X041383Y0403D01*
X041303Y040403D01*
X041249Y040445D01*
X041266Y040495D01*
X042384D01*
X042401Y040445D01*
X042347Y040403D01*
X042267Y0403D01*
X042217Y040179D01*
X0422Y04005D01*
X042217Y039921D01*
X042267Y0398D01*
X042347Y039697D01*
X04245Y039617D01*
X042571Y039567D01*
X0427Y03955D01*
X042829Y039567D01*
X04295Y039617D01*
X043053Y039697D01*
X043133Y0398D01*
X043173Y039898D01*
X043227D01*
X043267Y0398D01*
X043347Y039697D01*
X04345Y039617D01*
X043571Y039567D01*
X0437Y03955D01*
X043829Y039567D01*
X04395Y039617D01*
X044053Y039697D01*
X044133Y0398D01*
X044173Y039898D01*
X044227D01*
X044267Y0398D01*
X044347Y039697D01*
X04445Y039617D01*
X044571Y039567D01*
X0447Y03955D01*
X044829Y039567D01*
X04495Y039617D01*
X045053Y039697D01*
X045133Y0398D01*
X045173Y039898D01*
X045227D01*
X045267Y0398D01*
X045347Y039697D01*
X04545Y039617D01*
X045571Y039567D01*
X0457Y03955D01*
X045829Y039567D01*
X04595Y039617D01*
X046053Y039697D01*
X046133Y0398D01*
X046173Y039898D01*
X046227D01*
X046267Y0398D01*
X046347Y039697D01*
X04645Y039617D01*
X046571Y039567D01*
X0467Y03955D01*
X046829Y039567D01*
X04695Y039617D01*
X047053Y039697D01*
X047133Y0398D01*
X047173Y039898D01*
X047227D01*
X047267Y0398D01*
X047347Y039697D01*
X04745Y039617D01*
X047571Y039567D01*
X0477Y03955D01*
X047829Y039567D01*
X04795Y039617D01*
X048053Y039697D01*
X048133Y0398D01*
X048173Y039898D01*
X048227D01*
X048267Y0398D01*
X048347Y039697D01*
X04845Y039617D01*
X048571Y039567D01*
X0487Y03955D01*
X048829Y039567D01*
X04895Y039617D01*
X049053Y039697D01*
X049133Y0398D01*
X049183Y039921D01*
X0492Y04005D01*
X049183Y040179D01*
X049133Y0403D01*
X049053Y040403D01*
X048999Y040445D01*
X049016Y040495D01*
X049304D01*
X049305Y040445D01*
Y0401D01*
X0497D01*
X050095D01*
Y040445D01*
X050096Y040495D01*
X05113D01*
X051143Y040447D01*
D02*
G37*
%LPC*%
G36*
X0505Y021335D02*
X050456Y021326D01*
X050377Y021273D01*
X050324Y021194D01*
X050315Y02115D01*
X0505D01*
Y021335D01*
D02*
G37*
G36*
X0496D02*
Y02115D01*
X049785D01*
X049776Y021194D01*
X049723Y021273D01*
X049644Y021326D01*
X0496Y021335D01*
D02*
G37*
G36*
X032285Y02205D02*
X0321D01*
Y021865D01*
X032144Y021874D01*
X032223Y021927D01*
X032276Y022006D01*
X032285Y02205D01*
D02*
G37*
G36*
X032D02*
X031815D01*
X031824Y022006D01*
X031877Y021927D01*
X031956Y021874D01*
X032Y021865D01*
Y02205D01*
D02*
G37*
G36*
X0485Y021335D02*
X048456Y021326D01*
X048377Y021273D01*
X048324Y021194D01*
X048315Y02115D01*
X0485D01*
Y021335D01*
D02*
G37*
G36*
X0476D02*
Y02115D01*
X047785D01*
X047776Y021194D01*
X047723Y021273D01*
X047644Y021326D01*
X0476Y021335D01*
D02*
G37*
G36*
X0495D02*
X049456Y021326D01*
X049377Y021273D01*
X049324Y021194D01*
X049315Y02115D01*
X0495D01*
Y021335D01*
D02*
G37*
G36*
X0486D02*
Y02115D01*
X048785D01*
X048776Y021194D01*
X048723Y021273D01*
X048644Y021326D01*
X0486Y021335D01*
D02*
G37*
G36*
X033Y02205D02*
X032815D01*
X032824Y022006D01*
X032877Y021927D01*
X032956Y021874D01*
X033Y021865D01*
Y02205D01*
D02*
G37*
G36*
X03835Y022693D02*
X038261Y022681D01*
X038179Y022647D01*
X038108Y022592D01*
X038053Y022521D01*
X038019Y022439D01*
X038007Y02235D01*
X038019Y022261D01*
X038053Y022179D01*
X038108Y022108D01*
X038179Y022053D01*
X038261Y022019D01*
X03835Y022007D01*
X038439Y022019D01*
X038521Y022053D01*
X038592Y022108D01*
X038647Y022179D01*
X038681Y022261D01*
X038693Y02235D01*
X038681Y022439D01*
X038647Y022521D01*
X038592Y022592D01*
X038521Y022647D01*
X038439Y022681D01*
X03835Y022693D01*
D02*
G37*
G36*
X051285Y02205D02*
X0511D01*
Y021865D01*
X051144Y021874D01*
X051223Y021927D01*
X051276Y022006D01*
X051285Y02205D01*
D02*
G37*
G36*
X0321Y022335D02*
Y02215D01*
X032285D01*
X032276Y022194D01*
X032223Y022273D01*
X032144Y022326D01*
X0321Y022335D01*
D02*
G37*
G36*
X032D02*
X031956Y022326D01*
X031877Y022273D01*
X031824Y022194D01*
X031815Y02215D01*
X032D01*
Y022335D01*
D02*
G37*
G36*
X034Y02205D02*
X033815D01*
X033824Y022006D01*
X033877Y021927D01*
X033956Y021874D01*
X034Y021865D01*
Y02205D01*
D02*
G37*
G36*
X033285D02*
X0331D01*
Y021865D01*
X033144Y021874D01*
X033223Y021927D01*
X033276Y022006D01*
X033285Y02205D01*
D02*
G37*
G36*
X051D02*
X050815D01*
X050824Y022006D01*
X050877Y021927D01*
X050956Y021874D01*
X051Y021865D01*
Y02205D01*
D02*
G37*
G36*
X034285D02*
X0341D01*
Y021865D01*
X034144Y021874D01*
X034223Y021927D01*
X034276Y022006D01*
X034285Y02205D01*
D02*
G37*
G36*
X0356Y021335D02*
Y02115D01*
X035785D01*
X035776Y021194D01*
X035723Y021273D01*
X035644Y021326D01*
X0356Y021335D01*
D02*
G37*
G36*
X0355D02*
X035456Y021326D01*
X035377Y021273D01*
X035324Y021194D01*
X035315Y02115D01*
X0355D01*
Y021335D01*
D02*
G37*
G36*
X0396D02*
Y02115D01*
X039785D01*
X039776Y021194D01*
X039723Y021273D01*
X039644Y021326D01*
X0396Y021335D01*
D02*
G37*
G36*
X0395D02*
X039456Y021326D01*
X039377Y021273D01*
X039324Y021194D01*
X039315Y02115D01*
X0395D01*
Y021335D01*
D02*
G37*
G36*
X0336D02*
Y02115D01*
X033785D01*
X033776Y021194D01*
X033723Y021273D01*
X033644Y021326D01*
X0336Y021335D01*
D02*
G37*
G36*
X0335D02*
X033456Y021326D01*
X033377Y021273D01*
X033324Y021194D01*
X033315Y02115D01*
X0335D01*
Y021335D01*
D02*
G37*
G36*
X0346D02*
Y02115D01*
X034785D01*
X034776Y021194D01*
X034723Y021273D01*
X034644Y021326D01*
X0346Y021335D01*
D02*
G37*
G36*
X0345D02*
X034456Y021326D01*
X034377Y021273D01*
X034324Y021194D01*
X034315Y02115D01*
X0345D01*
Y021335D01*
D02*
G37*
G36*
X0405D02*
X040456Y021326D01*
X040377Y021273D01*
X040324Y021194D01*
X040315Y02115D01*
X0405D01*
Y021335D01*
D02*
G37*
G36*
X0465D02*
X046456Y021326D01*
X046377Y021273D01*
X046324Y021194D01*
X046315Y02115D01*
X0465D01*
Y021335D01*
D02*
G37*
G36*
X0456D02*
Y02115D01*
X045785D01*
X045776Y021194D01*
X045723Y021273D01*
X045644Y021326D01*
X0456Y021335D01*
D02*
G37*
G36*
X0475D02*
X047456Y021326D01*
X047377Y021273D01*
X047324Y021194D01*
X047315Y02115D01*
X0475D01*
Y021335D01*
D02*
G37*
G36*
X0466D02*
Y02115D01*
X046785D01*
X046776Y021194D01*
X046723Y021273D01*
X046644Y021326D01*
X0466Y021335D01*
D02*
G37*
G36*
X0445D02*
X044456Y021326D01*
X044377Y021273D01*
X044324Y021194D01*
X044315Y02115D01*
X0445D01*
Y021335D01*
D02*
G37*
G36*
X0406D02*
Y02115D01*
X040785D01*
X040776Y021194D01*
X040723Y021273D01*
X040644Y021326D01*
X0406Y021335D01*
D02*
G37*
G36*
X0455D02*
X045456Y021326D01*
X045377Y021273D01*
X045324Y021194D01*
X045315Y02115D01*
X0455D01*
Y021335D01*
D02*
G37*
G36*
X0446D02*
Y02115D01*
X044785D01*
X044776Y021194D01*
X044723Y021273D01*
X044644Y021326D01*
X0446Y021335D01*
D02*
G37*
G36*
X033Y022335D02*
X032956Y022326D01*
X032877Y022273D01*
X032824Y022194D01*
X032815Y02215D01*
X033D01*
Y022335D01*
D02*
G37*
G36*
X0335Y02305D02*
X033315D01*
X033324Y023006D01*
X033377Y022927D01*
X033456Y022874D01*
X0335Y022865D01*
Y02305D01*
D02*
G37*
G36*
X032785D02*
X0326D01*
Y022865D01*
X032644Y022874D01*
X032723Y022927D01*
X032776Y023006D01*
X032785Y02305D01*
D02*
G37*
G36*
X0483Y023085D02*
X048256Y023076D01*
X048177Y023023D01*
X048124Y022944D01*
X048115Y0229D01*
X0483D01*
Y023085D01*
D02*
G37*
G36*
X033785Y02305D02*
X0336D01*
Y022865D01*
X033644Y022874D01*
X033723Y022927D01*
X033776Y023006D01*
X033785Y02305D01*
D02*
G37*
G36*
X03945Y022935D02*
Y02275D01*
X039635D01*
X039626Y022794D01*
X039573Y022873D01*
X039494Y022926D01*
X03945Y022935D01*
D02*
G37*
G36*
X03935D02*
X039306Y022926D01*
X039227Y022873D01*
X039174Y022794D01*
X039165Y02275D01*
X03935D01*
Y022935D01*
D02*
G37*
G36*
X0325Y02305D02*
X032315D01*
X032324Y023006D01*
X032377Y022927D01*
X032456Y022874D01*
X0325Y022865D01*
Y02305D01*
D02*
G37*
G36*
X0375Y023443D02*
X037411Y023431D01*
X037329Y023397D01*
X037258Y023342D01*
X037203Y023271D01*
X037169Y023189D01*
X037157Y0231D01*
X037169Y023011D01*
X037203Y022929D01*
X037258Y022858D01*
X037329Y022803D01*
X037411Y022769D01*
X0375Y022757D01*
X037589Y022769D01*
X037671Y022803D01*
X037742Y022858D01*
X037797Y022929D01*
X037831Y023011D01*
X037843Y0231D01*
X037831Y023189D01*
X037797Y023271D01*
X037742Y023342D01*
X037671Y023397D01*
X037589Y023431D01*
X0375Y023443D01*
D02*
G37*
G36*
X0484Y023085D02*
Y0229D01*
X048585D01*
X048576Y022944D01*
X048523Y023023D01*
X048444Y023076D01*
X0484Y023085D01*
D02*
G37*
G36*
X0326Y023335D02*
Y02315D01*
X032785D01*
X032776Y023194D01*
X032723Y023273D01*
X032644Y023326D01*
X0326Y023335D01*
D02*
G37*
G36*
X0325D02*
X032456Y023326D01*
X032377Y023273D01*
X032324Y023194D01*
X032315Y02315D01*
X0325D01*
Y023335D01*
D02*
G37*
G36*
X0336D02*
Y02315D01*
X033785D01*
X033776Y023194D01*
X033723Y023273D01*
X033644Y023326D01*
X0336Y023335D01*
D02*
G37*
G36*
X0335D02*
X033456Y023326D01*
X033377Y023273D01*
X033324Y023194D01*
X033315Y02315D01*
X0335D01*
Y023335D01*
D02*
G37*
G36*
X0471Y023135D02*
Y02295D01*
X047285D01*
X047276Y022994D01*
X047223Y023073D01*
X047144Y023126D01*
X0471Y023135D01*
D02*
G37*
G36*
X047D02*
X046956Y023126D01*
X046877Y023073D01*
X046824Y022994D01*
X046815Y02295D01*
X047D01*
Y023135D01*
D02*
G37*
G36*
X04957Y023354D02*
Y023014D01*
X049911D01*
X049904Y023067D01*
X049864Y023163D01*
X049801Y023245D01*
X049719Y023308D01*
X049623Y023347D01*
X04957Y023354D01*
D02*
G37*
G36*
X04947D02*
X049418Y023347D01*
X049322Y023308D01*
X04924Y023245D01*
X049177Y023163D01*
X049137Y023067D01*
X04913Y023014D01*
X04947D01*
Y023354D01*
D02*
G37*
G36*
X0426Y0225D02*
X042415D01*
X042424Y022456D01*
X042477Y022377D01*
X042556Y022324D01*
X0426Y022315D01*
Y0225D01*
D02*
G37*
G36*
X0511Y022335D02*
Y02215D01*
X051285D01*
X051276Y022194D01*
X051223Y022273D01*
X051144Y022326D01*
X0511Y022335D01*
D02*
G37*
G36*
X03935Y02265D02*
X039165D01*
X039174Y022606D01*
X039227Y022527D01*
X039306Y022474D01*
X03935Y022465D01*
Y02265D01*
D02*
G37*
G36*
X042885Y0225D02*
X0427D01*
Y022315D01*
X042744Y022324D01*
X042823Y022377D01*
X042876Y022456D01*
X042885Y0225D01*
D02*
G37*
G36*
X034Y022335D02*
X033956Y022326D01*
X033877Y022273D01*
X033824Y022194D01*
X033815Y02215D01*
X034D01*
Y022335D01*
D02*
G37*
G36*
X0331D02*
Y02215D01*
X033285D01*
X033276Y022194D01*
X033223Y022273D01*
X033144Y022326D01*
X0331Y022335D01*
D02*
G37*
G36*
X051D02*
X050956Y022326D01*
X050877Y022273D01*
X050824Y022194D01*
X050815Y02215D01*
X051D01*
Y022335D01*
D02*
G37*
G36*
X0341D02*
Y02215D01*
X034285D01*
X034276Y022194D01*
X034223Y022273D01*
X034144Y022326D01*
X0341Y022335D01*
D02*
G37*
G36*
X039635Y02265D02*
X03945D01*
Y022465D01*
X039494Y022474D01*
X039573Y022527D01*
X039626Y022606D01*
X039635Y02265D01*
D02*
G37*
G36*
X048585Y0228D02*
X0484D01*
Y022615D01*
X048444Y022624D01*
X048523Y022677D01*
X048576Y022756D01*
X048585Y0228D01*
D02*
G37*
G36*
X0483D02*
X048115D01*
X048124Y022756D01*
X048177Y022677D01*
X048256Y022624D01*
X0483Y022615D01*
Y0228D01*
D02*
G37*
G36*
X047285Y02285D02*
X0471D01*
Y022665D01*
X047144Y022674D01*
X047223Y022727D01*
X047276Y022806D01*
X047285Y02285D01*
D02*
G37*
G36*
X047D02*
X046815D01*
X046824Y022806D01*
X046877Y022727D01*
X046956Y022674D01*
X047Y022665D01*
Y02285D01*
D02*
G37*
G36*
X049911Y022914D02*
X04957D01*
Y022574D01*
X049623Y022581D01*
X049719Y022621D01*
X049801Y022684D01*
X049864Y022766D01*
X049904Y022861D01*
X049911Y022914D01*
D02*
G37*
G36*
X04947D02*
X04913D01*
X049137Y022861D01*
X049177Y022766D01*
X04924Y022684D01*
X049322Y022621D01*
X049418Y022581D01*
X04947Y022574D01*
Y022914D01*
D02*
G37*
G36*
X0427Y022785D02*
Y0226D01*
X042885D01*
X042876Y022644D01*
X042823Y022723D01*
X042744Y022776D01*
X0427Y022785D01*
D02*
G37*
G36*
X0426D02*
X042556Y022776D01*
X042477Y022723D01*
X042424Y022644D01*
X042415Y0226D01*
X0426D01*
Y022785D01*
D02*
G37*
G36*
X0505Y02105D02*
X050315D01*
X050324Y021006D01*
X050377Y020927D01*
X050456Y020874D01*
X0505Y020865D01*
Y02105D01*
D02*
G37*
G36*
X032Y021634D02*
X031837Y021618D01*
X031681Y021571D01*
X031537Y021493D01*
X03141Y02139D01*
X031307Y021263D01*
X031229Y021119D01*
X031182Y020963D01*
X031166Y0208D01*
X031182Y020637D01*
X031229Y020481D01*
X031307Y020337D01*
X03141Y02021D01*
X031537Y020107D01*
X031681Y020029D01*
X031837Y019982D01*
X032Y019966D01*
X032163Y019982D01*
X032319Y020029D01*
X032463Y020107D01*
X03259Y02021D01*
X032693Y020337D01*
X032771Y020481D01*
X032818Y020637D01*
X032834Y0208D01*
X032818Y020963D01*
X032771Y021119D01*
X032693Y021263D01*
X03259Y02139D01*
X032463Y021493D01*
X032319Y021571D01*
X032163Y021618D01*
X032Y021634D01*
D02*
G37*
G36*
X050285Y02005D02*
X0501D01*
Y019865D01*
X050144Y019874D01*
X050223Y019927D01*
X050276Y020006D01*
X050285Y02005D01*
D02*
G37*
G36*
X0331Y020335D02*
Y02015D01*
X033285D01*
X033276Y020194D01*
X033223Y020273D01*
X033144Y020326D01*
X0331Y020335D01*
D02*
G37*
G36*
X033D02*
X032956Y020326D01*
X032877Y020273D01*
X032824Y020194D01*
X032815Y02015D01*
X033D01*
Y020335D01*
D02*
G37*
G36*
X049Y02005D02*
X048815D01*
X048824Y020006D01*
X048877Y019927D01*
X048956Y019874D01*
X049Y019865D01*
Y02005D01*
D02*
G37*
G36*
X048285D02*
X0481D01*
Y019865D01*
X048144Y019874D01*
X048223Y019927D01*
X048276Y020006D01*
X048285Y02005D01*
D02*
G37*
G36*
X05D02*
X049815D01*
X049824Y020006D01*
X049877Y019927D01*
X049956Y019874D01*
X05Y019865D01*
Y02005D01*
D02*
G37*
G36*
X049285D02*
X0491D01*
Y019865D01*
X049144Y019874D01*
X049223Y019927D01*
X049276Y020006D01*
X049285Y02005D01*
D02*
G37*
G36*
X034Y020335D02*
X033956Y020326D01*
X033877Y020273D01*
X033824Y020194D01*
X033815Y02015D01*
X034D01*
Y020335D01*
D02*
G37*
G36*
X04D02*
X039956Y020326D01*
X039877Y020273D01*
X039824Y020194D01*
X039815Y02015D01*
X04D01*
Y020335D01*
D02*
G37*
G36*
X0391D02*
Y02015D01*
X039285D01*
X039276Y020194D01*
X039223Y020273D01*
X039144Y020326D01*
X0391Y020335D01*
D02*
G37*
G36*
X045D02*
X044956Y020326D01*
X044877Y020273D01*
X044824Y020194D01*
X044815Y02015D01*
X045D01*
Y020335D01*
D02*
G37*
G36*
X0401D02*
Y02015D01*
X040285D01*
X040276Y020194D01*
X040223Y020273D01*
X040144Y020326D01*
X0401Y020335D01*
D02*
G37*
G36*
X035D02*
X034956Y020326D01*
X034877Y020273D01*
X034824Y020194D01*
X034815Y02015D01*
X035D01*
Y020335D01*
D02*
G37*
G36*
X0341D02*
Y02015D01*
X034285D01*
X034276Y020194D01*
X034223Y020273D01*
X034144Y020326D01*
X0341Y020335D01*
D02*
G37*
G36*
X039D02*
X038956Y020326D01*
X038877Y020273D01*
X038824Y020194D01*
X038815Y02015D01*
X039D01*
Y020335D01*
D02*
G37*
G36*
X0351D02*
Y02015D01*
X035285D01*
X035276Y020194D01*
X035223Y020273D01*
X035144Y020326D01*
X0351Y020335D01*
D02*
G37*
G36*
X035285Y02005D02*
X0351D01*
Y019865D01*
X035144Y019874D01*
X035223Y019927D01*
X035276Y020006D01*
X035285Y02005D01*
D02*
G37*
G36*
X035D02*
X034815D01*
X034824Y020006D01*
X034877Y019927D01*
X034956Y019874D01*
X035Y019865D01*
Y02005D01*
D02*
G37*
G36*
X039285D02*
X0391D01*
Y019865D01*
X039144Y019874D01*
X039223Y019927D01*
X039276Y020006D01*
X039285Y02005D01*
D02*
G37*
G36*
X039D02*
X038815D01*
X038824Y020006D01*
X038877Y019927D01*
X038956Y019874D01*
X039Y019865D01*
Y02005D01*
D02*
G37*
G36*
X033285D02*
X0331D01*
Y019865D01*
X033144Y019874D01*
X033223Y019927D01*
X033276Y020006D01*
X033285Y02005D01*
D02*
G37*
G36*
X033D02*
X032815D01*
X032824Y020006D01*
X032877Y019927D01*
X032956Y019874D01*
X033Y019865D01*
Y02005D01*
D02*
G37*
G36*
X034285D02*
X0341D01*
Y019865D01*
X034144Y019874D01*
X034223Y019927D01*
X034276Y020006D01*
X034285Y02005D01*
D02*
G37*
G36*
X034D02*
X033815D01*
X033824Y020006D01*
X033877Y019927D01*
X033956Y019874D01*
X034Y019865D01*
Y02005D01*
D02*
G37*
G36*
X04D02*
X039815D01*
X039824Y020006D01*
X039877Y019927D01*
X039956Y019874D01*
X04Y019865D01*
Y02005D01*
D02*
G37*
G36*
X047D02*
X046815D01*
X046824Y020006D01*
X046877Y019927D01*
X046956Y019874D01*
X047Y019865D01*
Y02005D01*
D02*
G37*
G36*
X046285D02*
X0461D01*
Y019865D01*
X046144Y019874D01*
X046223Y019927D01*
X046276Y020006D01*
X046285Y02005D01*
D02*
G37*
G36*
X048D02*
X047815D01*
X047824Y020006D01*
X047877Y019927D01*
X047956Y019874D01*
X048Y019865D01*
Y02005D01*
D02*
G37*
G36*
X047285D02*
X0471D01*
Y019865D01*
X047144Y019874D01*
X047223Y019927D01*
X047276Y020006D01*
X047285Y02005D01*
D02*
G37*
G36*
X045D02*
X044815D01*
X044824Y020006D01*
X044877Y019927D01*
X044956Y019874D01*
X045Y019865D01*
Y02005D01*
D02*
G37*
G36*
X040285D02*
X0401D01*
Y019865D01*
X040144Y019874D01*
X040223Y019927D01*
X040276Y020006D01*
X040285Y02005D01*
D02*
G37*
G36*
X046D02*
X045815D01*
X045824Y020006D01*
X045877Y019927D01*
X045956Y019874D01*
X046Y019865D01*
Y02005D01*
D02*
G37*
G36*
X045285D02*
X0451D01*
Y019865D01*
X045144Y019874D01*
X045223Y019927D01*
X045276Y020006D01*
X045285Y02005D01*
D02*
G37*
G36*
X0451Y020335D02*
Y02015D01*
X045285D01*
X045276Y020194D01*
X045223Y020273D01*
X045144Y020326D01*
X0451Y020335D01*
D02*
G37*
G36*
X0445Y02105D02*
X044315D01*
X044324Y021006D01*
X044377Y020927D01*
X044456Y020874D01*
X0445Y020865D01*
Y02105D01*
D02*
G37*
G36*
X040785D02*
X0406D01*
Y020865D01*
X040644Y020874D01*
X040723Y020927D01*
X040776Y021006D01*
X040785Y02105D01*
D02*
G37*
G36*
X0455D02*
X045315D01*
X045324Y021006D01*
X045377Y020927D01*
X045456Y020874D01*
X0455Y020865D01*
Y02105D01*
D02*
G37*
G36*
X044785D02*
X0446D01*
Y020865D01*
X044644Y020874D01*
X044723Y020927D01*
X044776Y021006D01*
X044785Y02105D01*
D02*
G37*
G36*
X0395D02*
X039315D01*
X039324Y021006D01*
X039377Y020927D01*
X039456Y020874D01*
X0395Y020865D01*
Y02105D01*
D02*
G37*
G36*
X035785D02*
X0356D01*
Y020865D01*
X035644Y020874D01*
X035723Y020927D01*
X035776Y021006D01*
X035785Y02105D01*
D02*
G37*
G36*
X0405D02*
X040315D01*
X040324Y021006D01*
X040377Y020927D01*
X040456Y020874D01*
X0405Y020865D01*
Y02105D01*
D02*
G37*
G36*
X039785D02*
X0396D01*
Y020865D01*
X039644Y020874D01*
X039723Y020927D01*
X039776Y021006D01*
X039785Y02105D01*
D02*
G37*
G36*
X045785D02*
X0456D01*
Y020865D01*
X045644Y020874D01*
X045723Y020927D01*
X045776Y021006D01*
X045785Y02105D01*
D02*
G37*
G36*
X048785D02*
X0486D01*
Y020865D01*
X048644Y020874D01*
X048723Y020927D01*
X048776Y021006D01*
X048785Y02105D01*
D02*
G37*
G36*
X0485D02*
X048315D01*
X048324Y021006D01*
X048377Y020927D01*
X048456Y020874D01*
X0485Y020865D01*
Y02105D01*
D02*
G37*
G36*
X049785D02*
X0496D01*
Y020865D01*
X049644Y020874D01*
X049723Y020927D01*
X049776Y021006D01*
X049785Y02105D01*
D02*
G37*
G36*
X0495D02*
X049315D01*
X049324Y021006D01*
X049377Y020927D01*
X049456Y020874D01*
X0495Y020865D01*
Y02105D01*
D02*
G37*
G36*
X046785D02*
X0466D01*
Y020865D01*
X046644Y020874D01*
X046723Y020927D01*
X046776Y021006D01*
X046785Y02105D01*
D02*
G37*
G36*
X0465D02*
X046315D01*
X046324Y021006D01*
X046377Y020927D01*
X046456Y020874D01*
X0465Y020865D01*
Y02105D01*
D02*
G37*
G36*
X047785D02*
X0476D01*
Y020865D01*
X047644Y020874D01*
X047723Y020927D01*
X047776Y021006D01*
X047785Y02105D01*
D02*
G37*
G36*
X0475D02*
X047315D01*
X047324Y021006D01*
X047377Y020927D01*
X047456Y020874D01*
X0475Y020865D01*
Y02105D01*
D02*
G37*
G36*
X0481Y020335D02*
Y02015D01*
X048285D01*
X048276Y020194D01*
X048223Y020273D01*
X048144Y020326D01*
X0481Y020335D01*
D02*
G37*
G36*
X048D02*
X047956Y020326D01*
X047877Y020273D01*
X047824Y020194D01*
X047815Y02015D01*
X048D01*
Y020335D01*
D02*
G37*
G36*
X0491D02*
Y02015D01*
X049285D01*
X049276Y020194D01*
X049223Y020273D01*
X049144Y020326D01*
X0491Y020335D01*
D02*
G37*
G36*
X049D02*
X048956Y020326D01*
X048877Y020273D01*
X048824Y020194D01*
X048815Y02015D01*
X049D01*
Y020335D01*
D02*
G37*
G36*
X0461D02*
Y02015D01*
X046285D01*
X046276Y020194D01*
X046223Y020273D01*
X046144Y020326D01*
X0461Y020335D01*
D02*
G37*
G36*
X046D02*
X045956Y020326D01*
X045877Y020273D01*
X045824Y020194D01*
X045815Y02015D01*
X046D01*
Y020335D01*
D02*
G37*
G36*
X0471D02*
Y02015D01*
X047285D01*
X047276Y020194D01*
X047223Y020273D01*
X047144Y020326D01*
X0471Y020335D01*
D02*
G37*
G36*
X047D02*
X046956Y020326D01*
X046877Y020273D01*
X046824Y020194D01*
X046815Y02015D01*
X047D01*
Y020335D01*
D02*
G37*
G36*
X05D02*
X049956Y020326D01*
X049877Y020273D01*
X049824Y020194D01*
X049815Y02015D01*
X05D01*
Y020335D01*
D02*
G37*
G36*
X0345Y02105D02*
X034315D01*
X034324Y021006D01*
X034377Y020927D01*
X034456Y020874D01*
X0345Y020865D01*
Y02105D01*
D02*
G37*
G36*
X033785D02*
X0336D01*
Y020865D01*
X033644Y020874D01*
X033723Y020927D01*
X033776Y021006D01*
X033785Y02105D01*
D02*
G37*
G36*
X0355D02*
X035315D01*
X035324Y021006D01*
X035377Y020927D01*
X035456Y020874D01*
X0355Y020865D01*
Y02105D01*
D02*
G37*
G36*
X034785D02*
X0346D01*
Y020865D01*
X034644Y020874D01*
X034723Y020927D01*
X034776Y021006D01*
X034785Y02105D01*
D02*
G37*
G36*
X0408Y020542D02*
X040747Y020535D01*
X040651Y020495D01*
X040568Y020432D01*
X040505Y020349D01*
X040465Y020253D01*
X040458Y0202D01*
X0408D01*
Y020542D01*
D02*
G37*
G36*
X0501Y020335D02*
Y02015D01*
X050285D01*
X050276Y020194D01*
X050223Y020273D01*
X050144Y020326D01*
X0501Y020335D01*
D02*
G37*
G36*
X0335Y02105D02*
X033315D01*
X033324Y021006D01*
X033377Y020927D01*
X033456Y020874D01*
X0335Y020865D01*
Y02105D01*
D02*
G37*
G36*
X0409Y020542D02*
Y0202D01*
X041242D01*
X041235Y020253D01*
X041195Y020349D01*
X041132Y020432D01*
X041049Y020495D01*
X040953Y020535D01*
X0409Y020542D01*
D02*
G37*
G36*
X0416Y0234D02*
X041415D01*
X041424Y023356D01*
X041477Y023277D01*
X041556Y023224D01*
X0416Y023215D01*
Y0234D01*
D02*
G37*
G36*
X05205Y032992D02*
X051997Y032985D01*
X051901Y032945D01*
X051818Y032882D01*
X051755Y032799D01*
X051715Y032703D01*
X051708Y03265D01*
X05205D01*
Y032992D01*
D02*
G37*
G36*
Y03255D02*
X051708D01*
X051715Y032497D01*
X051755Y032401D01*
X051818Y032318D01*
X051901Y032255D01*
X051997Y032215D01*
X05205Y032208D01*
Y03255D01*
D02*
G37*
G36*
X0444Y033543D02*
X044311Y033531D01*
X044229Y033497D01*
X044158Y033442D01*
X044103Y033371D01*
X044069Y033289D01*
X044057Y0332D01*
X044069Y033111D01*
X044103Y033029D01*
X044158Y032958D01*
X044229Y032903D01*
X044311Y032869D01*
X0444Y032857D01*
X044489Y032869D01*
X044571Y032903D01*
X044642Y032958D01*
X044697Y033029D01*
X044731Y033111D01*
X044743Y0332D01*
X044731Y033289D01*
X044697Y033371D01*
X044642Y033442D01*
X044571Y033497D01*
X044489Y033531D01*
X0444Y033543D01*
D02*
G37*
G36*
X0511Y0331D02*
X050971Y033083D01*
X05085Y033033D01*
X050747Y032953D01*
X050667Y03285D01*
X050627Y032752D01*
X050573D01*
X050533Y03285D01*
X050453Y032953D01*
X05035Y033033D01*
X050229Y033083D01*
X0501Y0331D01*
X049971Y033083D01*
X04985Y033033D01*
X049747Y032953D01*
X049667Y03285D01*
X049645Y032796D01*
X049595Y032806D01*
Y033095D01*
X048605D01*
Y032105D01*
X049595D01*
Y032394D01*
X049645Y032404D01*
X049667Y03235D01*
X049747Y032247D01*
X04985Y032167D01*
X049971Y032117D01*
X0501Y0321D01*
X050229Y032117D01*
X05035Y032167D01*
X050453Y032247D01*
X050533Y03235D01*
X050573Y032448D01*
X050627D01*
X050667Y03235D01*
X050747Y032247D01*
X05085Y032167D01*
X050971Y032117D01*
X0511Y0321D01*
X051229Y032117D01*
X05135Y032167D01*
X051453Y032247D01*
X051533Y03235D01*
X051583Y032471D01*
X0516Y0326D01*
X051583Y032729D01*
X051533Y03285D01*
X051453Y032953D01*
X05135Y033033D01*
X051229Y033083D01*
X0511Y0331D01*
D02*
G37*
G36*
Y032D02*
X050971Y031983D01*
X05085Y031933D01*
X050747Y031853D01*
X050667Y03175D01*
X050627Y031652D01*
X050573D01*
X050533Y03175D01*
X050453Y031853D01*
X05035Y031933D01*
X050229Y031983D01*
X0501Y032D01*
X049971Y031983D01*
X04985Y031933D01*
X049747Y031853D01*
X049667Y03175D01*
X049645Y031696D01*
X049595Y031706D01*
Y031995D01*
X048605D01*
Y031005D01*
X049595D01*
Y031294D01*
X049645Y031304D01*
X049667Y03125D01*
X049747Y031147D01*
X04985Y031067D01*
X049971Y031017D01*
X049988Y031015D01*
Y030965D01*
X049963Y030961D01*
X049835Y030909D01*
X049726Y030824D01*
X049641Y030715D01*
X049589Y030587D01*
X04957Y03045D01*
Y03035D01*
X049589Y030213D01*
X049641Y030085D01*
X049726Y029976D01*
X049835Y029891D01*
X049875Y029875D01*
Y029825D01*
X049835Y029809D01*
X049726Y029724D01*
X049641Y029615D01*
X049589Y029487D01*
X04957Y02935D01*
Y02925D01*
X049589Y029113D01*
X049641Y028985D01*
X049726Y028876D01*
X049835Y028791D01*
X049875Y028775D01*
Y028725D01*
X049835Y028709D01*
X049726Y028624D01*
X049641Y028515D01*
X049589Y028387D01*
X04957Y02825D01*
Y02815D01*
X049589Y028013D01*
X049641Y027885D01*
X049726Y027776D01*
X049835Y027691D01*
X049875Y027675D01*
Y027625D01*
X049835Y027609D01*
X049726Y027524D01*
X049641Y027415D01*
X049589Y027287D01*
X04957Y02715D01*
Y02705D01*
X049589Y026913D01*
X049641Y026785D01*
X049726Y026676D01*
X049835Y026591D01*
X049963Y026539D01*
X0501Y02652D01*
X050237Y026539D01*
X050365Y026591D01*
X050474Y026676D01*
X050559Y026785D01*
X05058Y026837D01*
X05063D01*
X050651Y026785D01*
X050736Y026676D01*
X050845Y026591D01*
X050973Y026539D01*
X05111Y02652D01*
X051247Y026539D01*
X051375Y026591D01*
X051484Y026676D01*
X051569Y026785D01*
X051621Y026913D01*
X051625Y026941D01*
X051676D01*
X051676Y026939D01*
X051719Y026836D01*
X051787Y026747D01*
X051876Y026679D01*
X051979Y026636D01*
X05204Y026628D01*
Y0271D01*
Y027572D01*
X051979Y027564D01*
X051876Y027521D01*
X051787Y027453D01*
X051719Y027364D01*
X051676Y027261D01*
X051676Y027259D01*
X051625D01*
X051621Y027287D01*
X051569Y027415D01*
X051484Y027524D01*
X051375Y027609D01*
X051335Y027625D01*
Y027675D01*
X051375Y027691D01*
X051484Y027776D01*
X051569Y027885D01*
X051621Y028013D01*
X051625Y028041D01*
X051676D01*
X051676Y028039D01*
X051719Y027936D01*
X051787Y027847D01*
X051876Y027779D01*
X051979Y027736D01*
X05204Y027728D01*
Y0282D01*
Y028672D01*
X051979Y028664D01*
X051876Y028621D01*
X051787Y028553D01*
X051719Y028464D01*
X051676Y028361D01*
X051676Y028359D01*
X051625D01*
X051621Y028387D01*
X051569Y028515D01*
X051484Y028624D01*
X051375Y028709D01*
X051335Y028725D01*
Y028775D01*
X051375Y028791D01*
X051484Y028876D01*
X051569Y028985D01*
X051621Y029113D01*
X051625Y029141D01*
X051676D01*
X051676Y029139D01*
X051719Y029036D01*
X051787Y028947D01*
X051876Y028879D01*
X051979Y028836D01*
X05204Y028828D01*
Y0293D01*
Y029772D01*
X051979Y029764D01*
X051876Y029721D01*
X051787Y029653D01*
X051719Y029564D01*
X051676Y029461D01*
X051676Y029459D01*
X051625D01*
X051621Y029487D01*
X051569Y029615D01*
X051484Y029724D01*
X051375Y029809D01*
X051335Y029825D01*
Y029875D01*
X051375Y029891D01*
X051484Y029976D01*
X051569Y030085D01*
X051621Y030213D01*
X051625Y030241D01*
X051676D01*
X051676Y030239D01*
X051719Y030136D01*
X051787Y030047D01*
X051876Y029979D01*
X051979Y029936D01*
X05204Y029928D01*
Y0304D01*
Y030872D01*
X051979Y030864D01*
X051876Y030821D01*
X051787Y030753D01*
X051719Y030664D01*
X051676Y030561D01*
X051676Y030559D01*
X051625D01*
X051621Y030587D01*
X051569Y030715D01*
X051484Y030824D01*
X051375Y030909D01*
X051247Y030961D01*
X051217Y030965D01*
Y031016D01*
X051229Y031017D01*
X05135Y031067D01*
X051453Y031147D01*
X051533Y03125D01*
X051583Y031371D01*
X0516Y0315D01*
X051583Y031629D01*
X051533Y03175D01*
X051453Y031853D01*
X05135Y031933D01*
X051229Y031983D01*
X0511Y032D01*
D02*
G37*
G36*
X05205Y031892D02*
X051997Y031885D01*
X051901Y031845D01*
X051818Y031782D01*
X051755Y031699D01*
X051715Y031603D01*
X051708Y03155D01*
X05205D01*
Y031892D01*
D02*
G37*
G36*
X031548Y032677D02*
Y0322D01*
X031901D01*
Y03228D01*
X031888Y032384D01*
X031847Y032482D01*
X031783Y032565D01*
X0317Y032629D01*
X031602Y03267D01*
X031548Y032677D01*
D02*
G37*
G36*
X0467Y033393D02*
X046611Y033381D01*
X046529Y033347D01*
X046458Y033292D01*
X046403Y033221D01*
X046369Y033139D01*
X046357Y03305D01*
X046369Y032961D01*
X046403Y032879D01*
X046458Y032808D01*
X046529Y032753D01*
X046557Y032741D01*
X04657Y032693D01*
X046553Y032671D01*
X046519Y032589D01*
X046507Y0325D01*
X046519Y032411D01*
X046553Y032329D01*
X046608Y032258D01*
X046679Y032203D01*
X046761Y032169D01*
X04685Y032157D01*
X046939Y032169D01*
X047021Y032203D01*
X047092Y032258D01*
X047147Y032329D01*
X047181Y032411D01*
X047193Y0325D01*
X047181Y032589D01*
X047147Y032671D01*
X047092Y032742D01*
X047021Y032797D01*
X046993Y032809D01*
X04698Y032857D01*
X046997Y032879D01*
X047031Y032961D01*
X047043Y03305D01*
X047031Y033139D01*
X046997Y033221D01*
X046942Y033292D01*
X046871Y033347D01*
X046789Y033381D01*
X0467Y033393D01*
D02*
G37*
G36*
X0407Y03315D02*
X040515D01*
X040524Y033106D01*
X040577Y033027D01*
X040656Y032974D01*
X0407Y032965D01*
Y03315D01*
D02*
G37*
G36*
X044Y034993D02*
X043911Y034981D01*
X043829Y034947D01*
X043758Y034892D01*
X043703Y034821D01*
X043669Y034739D01*
X043657Y03465D01*
X043669Y034561D01*
X043703Y034479D01*
X043758Y034408D01*
X043829Y034353D01*
X043857Y034341D01*
X04387Y034293D01*
X043853Y034271D01*
X043819Y034189D01*
X043807Y0341D01*
X043819Y034011D01*
X043853Y033929D01*
X043908Y033858D01*
X043979Y033803D01*
X044061Y033769D01*
X04415Y033757D01*
X044239Y033769D01*
X044321Y033803D01*
X044392Y033858D01*
X044447Y033929D01*
X044481Y034011D01*
X044493Y0341D01*
X044481Y034189D01*
X044447Y034271D01*
X044392Y034342D01*
X044321Y034397D01*
X044293Y034409D01*
X04428Y034457D01*
X044297Y034479D01*
X044331Y034561D01*
X044343Y03465D01*
X044331Y034739D01*
X044297Y034821D01*
X044242Y034892D01*
X044171Y034947D01*
X044089Y034981D01*
X044Y034993D01*
D02*
G37*
G36*
X0509Y034043D02*
X050811Y034031D01*
X050729Y033997D01*
X050658Y033942D01*
X050603Y033871D01*
X050569Y033789D01*
X050557Y0337D01*
X050569Y033611D01*
X050603Y033529D01*
X050658Y033458D01*
X050729Y033403D01*
X050811Y033369D01*
X0509Y033357D01*
X050989Y033369D01*
X051071Y033403D01*
X051142Y033458D01*
X051197Y033529D01*
X051231Y033611D01*
X051243Y0337D01*
X051231Y033789D01*
X051197Y033871D01*
X051142Y033942D01*
X051071Y033997D01*
X050989Y034031D01*
X0509Y034043D01*
D02*
G37*
G36*
X0507Y034843D02*
X050611Y034831D01*
X050529Y034797D01*
X050458Y034742D01*
X050403Y034671D01*
X050369Y034589D01*
X050357Y0345D01*
X050369Y034411D01*
X050403Y034329D01*
X050458Y034258D01*
X050529Y034203D01*
X050611Y034169D01*
X0507Y034157D01*
X050789Y034169D01*
X050871Y034203D01*
X050942Y034258D01*
X050997Y034329D01*
X051031Y034411D01*
X051043Y0345D01*
X051031Y034589D01*
X050997Y034671D01*
X050942Y034742D01*
X050871Y034797D01*
X050789Y034831D01*
X0507Y034843D01*
D02*
G37*
G36*
X0449Y034493D02*
X044811Y034481D01*
X044729Y034447D01*
X044658Y034392D01*
X044603Y034321D01*
X044569Y034239D01*
X044557Y03415D01*
X044569Y034061D01*
X044603Y033979D01*
X044658Y033908D01*
X044729Y033853D01*
X044811Y033819D01*
X0449Y033807D01*
X044989Y033819D01*
X045071Y033853D01*
X045142Y033908D01*
X045197Y033979D01*
X045231Y034061D01*
X045243Y03415D01*
X045231Y034239D01*
X045197Y034321D01*
X045142Y034392D01*
X045071Y034447D01*
X044989Y034481D01*
X0449Y034493D01*
D02*
G37*
G36*
X0407Y033435D02*
X040656Y033426D01*
X040577Y033373D01*
X040524Y033294D01*
X040515Y03325D01*
X0407D01*
Y033435D01*
D02*
G37*
G36*
X040985Y03315D02*
X0408D01*
Y032965D01*
X040844Y032974D01*
X040923Y033027D01*
X040976Y033106D01*
X040985Y03315D01*
D02*
G37*
G36*
X03495Y034043D02*
X034848Y03403D01*
X034753Y033991D01*
X034672Y033928D01*
X034609Y033847D01*
X03457Y033752D01*
X034557Y03365D01*
X03457Y033548D01*
X034609Y033453D01*
X034672Y033372D01*
X034753Y033309D01*
X034848Y03327D01*
X03495Y033257D01*
X035052Y03327D01*
X035147Y033309D01*
X035228Y033372D01*
X035291Y033453D01*
X03533Y033548D01*
X035343Y03365D01*
X03533Y033752D01*
X035291Y033847D01*
X035228Y033928D01*
X035147Y033991D01*
X035052Y03403D01*
X03495Y034043D01*
D02*
G37*
G36*
X0408Y033435D02*
Y03325D01*
X040985D01*
X040976Y033294D01*
X040923Y033373D01*
X040844Y033426D01*
X0408Y033435D01*
D02*
G37*
G36*
X03705Y029293D02*
X036961Y029281D01*
X036879Y029247D01*
X036808Y029192D01*
X036753Y029121D01*
X036719Y029039D01*
X036707Y02895D01*
X036719Y028861D01*
X036753Y028779D01*
X036808Y028708D01*
X036879Y028653D01*
X036961Y028619D01*
X03705Y028607D01*
X037139Y028619D01*
X037221Y028653D01*
X037292Y028708D01*
X037347Y028779D01*
X037381Y028861D01*
X037393Y02895D01*
X037381Y029039D01*
X037347Y029121D01*
X037292Y029192D01*
X037221Y029247D01*
X037139Y029281D01*
X03705Y029293D01*
D02*
G37*
G36*
X04265Y028743D02*
X042561Y028731D01*
X042479Y028697D01*
X042408Y028642D01*
X042353Y028571D01*
X042343Y028548D01*
X042307Y028543D01*
X042288Y028546D01*
X042221Y028597D01*
X042139Y028631D01*
X04205Y028643D01*
X041961Y028631D01*
X041879Y028597D01*
X041808Y028542D01*
X041753Y028471D01*
X041719Y028389D01*
X041707Y0283D01*
X041719Y028211D01*
X041753Y028129D01*
X041808Y028058D01*
X041879Y028003D01*
X041961Y027969D01*
X04205Y027957D01*
X042139Y027969D01*
X042221Y028003D01*
X042292Y028058D01*
X042347Y028129D01*
X042357Y028152D01*
X042393Y028157D01*
X042412Y028154D01*
X042479Y028103D01*
X042561Y028069D01*
X04265Y028057D01*
X042739Y028069D01*
X042821Y028103D01*
X042892Y028158D01*
X042947Y028229D01*
X042981Y028311D01*
X042993Y0284D01*
X042981Y028489D01*
X042947Y028571D01*
X042892Y028642D01*
X042821Y028697D01*
X042739Y028731D01*
X04265Y028743D01*
D02*
G37*
G36*
X0363Y028985D02*
X036256Y028976D01*
X036177Y028923D01*
X036124Y028844D01*
X036115Y0288D01*
X0363D01*
Y028985D01*
D02*
G37*
G36*
X04575Y029311D02*
X045661Y0293D01*
X045579Y029265D01*
X045508Y029211D01*
X045453Y02914D01*
X045419Y029057D01*
X045407Y028969D01*
X045419Y02888D01*
X045453Y028797D01*
X045508Y028726D01*
X045579Y028672D01*
X045661Y028637D01*
X04575Y028626D01*
X045839Y028637D01*
X045921Y028672D01*
X045992Y028726D01*
X046047Y028797D01*
X046081Y02888D01*
X046093Y028969D01*
X046081Y029057D01*
X046047Y02914D01*
X045992Y029211D01*
X045921Y029265D01*
X045839Y0293D01*
X04575Y029311D01*
D02*
G37*
G36*
X03985Y028693D02*
X039761Y028681D01*
X039679Y028647D01*
X039608Y028592D01*
X039553Y028521D01*
X039519Y028439D01*
X039507Y02835D01*
X039519Y028261D01*
X039553Y028179D01*
X039608Y028108D01*
X039679Y028053D01*
X039761Y028019D01*
X03985Y028007D01*
X039939Y028019D01*
X040021Y028053D01*
X040092Y028108D01*
X040147Y028179D01*
X040181Y028261D01*
X040193Y02835D01*
X040181Y028439D01*
X040147Y028521D01*
X040092Y028592D01*
X040021Y028647D01*
X039939Y028681D01*
X03985Y028693D01*
D02*
G37*
G36*
X04725Y028035D02*
Y02785D01*
X047435D01*
X047426Y027894D01*
X047373Y027973D01*
X047294Y028026D01*
X04725Y028035D01*
D02*
G37*
G36*
X036585Y0287D02*
X0364D01*
Y028515D01*
X036444Y028524D01*
X036523Y028577D01*
X036576Y028656D01*
X036585Y0287D01*
D02*
G37*
G36*
X0363D02*
X036115D01*
X036124Y028656D01*
X036177Y028577D01*
X036256Y028524D01*
X0363Y028515D01*
Y0287D01*
D02*
G37*
G36*
X0364Y028985D02*
Y0288D01*
X036585D01*
X036576Y028844D01*
X036523Y028923D01*
X036444Y028976D01*
X0364Y028985D01*
D02*
G37*
G36*
X0419Y031493D02*
X041811Y031481D01*
X041729Y031447D01*
X041658Y031392D01*
X041603Y031321D01*
X041569Y031239D01*
X041567Y031227D01*
X041515Y031213D01*
X041492Y031242D01*
X041421Y031297D01*
X041339Y031331D01*
X04125Y031343D01*
X041161Y031331D01*
X041079Y031297D01*
X041008Y031242D01*
X040953Y031171D01*
X040919Y031089D01*
X040907Y031D01*
X040919Y030911D01*
X040953Y030829D01*
X041008Y030758D01*
X041079Y030703D01*
X041161Y030669D01*
X04125Y030657D01*
X041339Y030669D01*
X041421Y030703D01*
X041492Y030758D01*
X041547Y030829D01*
X041581Y030911D01*
X041583Y030923D01*
X041635Y030937D01*
X041658Y030908D01*
X041729Y030853D01*
X041811Y030819D01*
X0419Y030807D01*
X041989Y030819D01*
X042071Y030853D01*
X042142Y030908D01*
X042197Y030979D01*
X042231Y031061D01*
X042243Y03115D01*
X042231Y031239D01*
X042197Y031321D01*
X042142Y031392D01*
X042071Y031447D01*
X041989Y031481D01*
X0419Y031493D01*
D02*
G37*
G36*
X0437Y031793D02*
X043611Y031781D01*
X043529Y031747D01*
X043458Y031692D01*
X043403Y031621D01*
X043369Y031539D01*
X043357Y03145D01*
X043369Y031361D01*
X043403Y031279D01*
X043439Y031232D01*
X043412Y031185D01*
X04335Y031193D01*
X043261Y031181D01*
X043179Y031147D01*
X043108Y031092D01*
X043053Y031021D01*
X043019Y030939D01*
X043007Y03085D01*
X043019Y030761D01*
X043053Y030679D01*
X043108Y030608D01*
X043179Y030553D01*
X043261Y030519D01*
X04335Y030507D01*
X043439Y030519D01*
X043521Y030553D01*
X043592Y030608D01*
X043647Y030679D01*
X043666Y030726D01*
X043718Y030719D01*
X043719Y030711D01*
X04375Y030637D01*
X043732Y030584D01*
X043711Y030581D01*
X043629Y030547D01*
X043558Y030492D01*
X043503Y030421D01*
X043469Y030339D01*
X043457Y03025D01*
X043469Y030161D01*
X043503Y030079D01*
X043558Y030008D01*
X043629Y029953D01*
X043711Y029919D01*
X0438Y029907D01*
X043889Y029919D01*
X043971Y029953D01*
X044042Y030008D01*
X044097Y030079D01*
X044131Y030161D01*
X044138Y030215D01*
X044191Y030229D01*
X044208Y030208D01*
X044279Y030153D01*
X044361Y030119D01*
X04445Y030107D01*
X044539Y030119D01*
X044621Y030153D01*
X044692Y030208D01*
X044747Y030279D01*
X044781Y030361D01*
X044793Y03045D01*
X044781Y030539D01*
X044747Y030621D01*
X044692Y030692D01*
X044621Y030747D01*
X044539Y030781D01*
X04445Y030793D01*
X044406Y030787D01*
X044393Y0308D01*
X044381Y030889D01*
X044347Y030971D01*
X044292Y031042D01*
X044221Y031097D01*
X044139Y031131D01*
X04405Y031143D01*
X043961Y031131D01*
X043879Y031097D01*
X043808Y031042D01*
X043753Y030971D01*
X043734Y030924D01*
X043682Y030931D01*
X043681Y030939D01*
X043647Y031021D01*
X043611Y031068D01*
X043638Y031115D01*
X0437Y031107D01*
X043789Y031119D01*
X043871Y031153D01*
X043942Y031208D01*
X043997Y031279D01*
X044031Y031361D01*
X044043Y03145D01*
X044031Y031539D01*
X043997Y031621D01*
X043942Y031692D01*
X043871Y031747D01*
X043789Y031781D01*
X0437Y031793D01*
D02*
G37*
G36*
X0469Y032093D02*
X046811Y032081D01*
X046729Y032047D01*
X046658Y031992D01*
X046603Y031921D01*
X046569Y031839D01*
X046557Y03175D01*
X046569Y031661D01*
X046603Y031579D01*
X046658Y031508D01*
X046729Y031453D01*
X046787Y031429D01*
X046819Y031389D01*
X046807Y0313D01*
X046819Y031211D01*
X046853Y031129D01*
X046908Y031058D01*
X046979Y031003D01*
X047061Y030969D01*
X04715Y030957D01*
X047239Y030969D01*
X047321Y031003D01*
X047392Y031058D01*
X047447Y031129D01*
X047481Y031211D01*
X047493Y0313D01*
X047481Y031389D01*
X047462Y031434D01*
X047506Y031459D01*
X047508Y031458D01*
X047579Y031403D01*
X047661Y031369D01*
X04775Y031357D01*
X047839Y031369D01*
X047921Y031403D01*
X047992Y031458D01*
X048047Y031529D01*
X048081Y031611D01*
X048093Y0317D01*
X048081Y031789D01*
X048047Y031871D01*
X047992Y031942D01*
X047921Y031997D01*
X047839Y032031D01*
X04775Y032043D01*
X047661Y032031D01*
X047579Y031997D01*
X047508Y031942D01*
X047453Y031871D01*
X047419Y031789D01*
X047407Y0317D01*
X047419Y031611D01*
X047438Y031566D01*
X047394Y031541D01*
X047392Y031542D01*
X047321Y031597D01*
X047263Y031621D01*
X047231Y031661D01*
X047243Y03175D01*
X047231Y031839D01*
X047197Y031921D01*
X047142Y031992D01*
X047071Y032047D01*
X046989Y032081D01*
X0469Y032093D01*
D02*
G37*
G36*
X03655Y03248D02*
X0364Y03246D01*
X03626Y032402D01*
X03614Y03231D01*
X036048Y03219D01*
X03599Y03205D01*
X03597Y0319D01*
X03599Y03175D01*
X036048Y03161D01*
X03614Y03149D01*
X03626Y031398D01*
X0364Y03134D01*
X03655Y03132D01*
X0367Y03134D01*
X03684Y031398D01*
X03696Y03149D01*
X037052Y03161D01*
X03711Y03175D01*
X03713Y0319D01*
X03711Y03205D01*
X037052Y03219D01*
X03696Y03231D01*
X03684Y032402D01*
X0367Y03246D01*
X03655Y03248D01*
D02*
G37*
G36*
X0421Y030493D02*
X042011Y030481D01*
X041929Y030447D01*
X041858Y030392D01*
X041803Y030321D01*
X041769Y030239D01*
X041757Y03015D01*
X041769Y030061D01*
X041803Y029979D01*
X041858Y029908D01*
X041929Y029853D01*
X042011Y029819D01*
X0421Y029807D01*
X042189Y029819D01*
X042271Y029853D01*
X042342Y029908D01*
X042397Y029979D01*
X042431Y030061D01*
X042443Y03015D01*
X042431Y030239D01*
X042397Y030321D01*
X042342Y030392D01*
X042271Y030447D01*
X042189Y030481D01*
X0421Y030493D01*
D02*
G37*
G36*
X03655Y03048D02*
X0364Y03046D01*
X03626Y030402D01*
X03614Y03031D01*
X036048Y03019D01*
X03599Y03005D01*
X03597Y0299D01*
X03599Y02975D01*
X036048Y02961D01*
X03614Y02949D01*
X03626Y029398D01*
X0364Y02934D01*
X03655Y02932D01*
X0367Y02934D01*
X03684Y029398D01*
X03696Y02949D01*
X037052Y02961D01*
X03711Y02975D01*
X03713Y0299D01*
X03711Y03005D01*
X037052Y03019D01*
X03696Y03031D01*
X03684Y030402D01*
X0367Y03046D01*
X03655Y03048D01*
D02*
G37*
G36*
X05205Y03145D02*
X051708D01*
X051715Y031397D01*
X051755Y031301D01*
X051818Y031218D01*
X051901Y031155D01*
X051997Y031115D01*
X05205Y031108D01*
Y03145D01*
D02*
G37*
G36*
X04085Y030593D02*
X040761Y030581D01*
X040679Y030547D01*
X040608Y030492D01*
X040553Y030421D01*
X040519Y030339D01*
X040507Y03025D01*
X040519Y030161D01*
X040553Y030079D01*
X040608Y030008D01*
X040679Y029953D01*
X040761Y029919D01*
X04085Y029907D01*
X040939Y029919D01*
X041021Y029953D01*
X041092Y030008D01*
X041147Y030079D01*
X041181Y030161D01*
X041193Y03025D01*
X041181Y030339D01*
X041147Y030421D01*
X041092Y030492D01*
X041021Y030547D01*
X040939Y030581D01*
X04085Y030593D01*
D02*
G37*
G36*
X0427Y034843D02*
X042611Y034831D01*
X042529Y034797D01*
X042458Y034742D01*
X042403Y034671D01*
X042369Y034589D01*
X042362Y034541D01*
X04235Y034543D01*
X042261Y034531D01*
X042179Y034497D01*
X042108Y034442D01*
X042053Y034371D01*
X042019Y034289D01*
X042007Y0342D01*
X042019Y034111D01*
X042053Y034029D01*
X042108Y033958D01*
X042141Y033932D01*
Y033868D01*
X042108Y033842D01*
X042053Y033771D01*
X042019Y033689D01*
X042007Y0336D01*
X042019Y033511D01*
X042053Y033429D01*
X042096Y033372D01*
X042058Y033342D01*
X042003Y033271D01*
X041969Y033189D01*
X041957Y0331D01*
X041969Y033011D01*
X042003Y032929D01*
X042044Y032875D01*
X042003Y032821D01*
X041969Y032739D01*
X041957Y03265D01*
X041969Y032561D01*
X042003Y032479D01*
X042058Y032408D01*
X042129Y032353D01*
X042157Y032341D01*
X04217Y032293D01*
X042153Y032271D01*
X042119Y032189D01*
X042107Y0321D01*
X042119Y032011D01*
X042153Y031929D01*
X042208Y031858D01*
X042279Y031803D01*
X042361Y031769D01*
X04245Y031757D01*
X042539Y031769D01*
X042621Y031803D01*
X042692Y031858D01*
X042747Y031929D01*
X042776Y032D01*
X042823Y032034D01*
X042861Y032019D01*
X04295Y032007D01*
X043039Y032019D01*
X043121Y032053D01*
X043192Y032108D01*
X043247Y032179D01*
X043281Y032261D01*
X043293Y03235D01*
X043281Y032439D01*
X043247Y032521D01*
X043192Y032592D01*
X043121Y032647D01*
X043039Y032681D01*
X04295Y032693D01*
X042861Y032681D01*
X042779Y032647D01*
X042708Y032592D01*
X042681Y032558D01*
X042633Y032578D01*
X042643Y03265D01*
X042631Y032739D01*
X042597Y032821D01*
X042556Y032875D01*
X042597Y032929D01*
X042631Y033011D01*
X042643Y0331D01*
X042631Y033189D01*
X042597Y033271D01*
X042554Y033328D01*
X042592Y033358D01*
X042647Y033429D01*
X042681Y033511D01*
X042693Y0336D01*
X042681Y033689D01*
X042647Y033771D01*
X042592Y033842D01*
X042559Y033868D01*
Y033932D01*
X042592Y033958D01*
X042647Y034029D01*
X042681Y034111D01*
X042688Y034159D01*
X0427Y034157D01*
X042789Y034169D01*
X042871Y034203D01*
X042942Y034258D01*
X042997Y034329D01*
X043031Y034411D01*
X043043Y0345D01*
X043031Y034589D01*
X042997Y034671D01*
X042942Y034742D01*
X042871Y034797D01*
X042789Y034831D01*
X0427Y034843D01*
D02*
G37*
G36*
X0319Y03805D02*
X031423D01*
X03143Y037996D01*
X031471Y037898D01*
X031535Y037815D01*
X031618Y037751D01*
X031716Y03771D01*
X03182Y037697D01*
X0319D01*
Y03805D01*
D02*
G37*
G36*
X0383Y037993D02*
X038211Y037981D01*
X038129Y037947D01*
X038058Y037892D01*
X038003Y037821D01*
X037969Y037739D01*
X037957Y03765D01*
X037969Y037561D01*
X038003Y037479D01*
X038058Y037408D01*
X038129Y037353D01*
X038211Y037319D01*
X0383Y037307D01*
X038389Y037319D01*
X038471Y037353D01*
X038542Y037408D01*
X038597Y037479D01*
X038631Y037561D01*
X038643Y03765D01*
X038631Y037739D01*
X038597Y037821D01*
X038542Y037892D01*
X038471Y037947D01*
X038389Y037981D01*
X0383Y037993D01*
D02*
G37*
G36*
X0319Y038503D02*
X03182D01*
X031716Y03849D01*
X031618Y038449D01*
X031535Y038385D01*
X031471Y038302D01*
X03143Y038204D01*
X031423Y03815D01*
X0319D01*
Y038503D01*
D02*
G37*
G36*
X04485Y038543D02*
X044761Y038531D01*
X044679Y038497D01*
X044608Y038442D01*
X044553Y038371D01*
X044519Y038289D01*
X044507Y0382D01*
X044519Y038111D01*
X044553Y038029D01*
X044608Y037958D01*
X044679Y037903D01*
X044761Y037869D01*
X04485Y037857D01*
X044939Y037869D01*
X045021Y037903D01*
X045092Y037958D01*
X045147Y038029D01*
X045181Y038111D01*
X045193Y0382D01*
X045181Y038289D01*
X045147Y038371D01*
X045092Y038442D01*
X045021Y038497D01*
X044939Y038531D01*
X04485Y038543D01*
D02*
G37*
G36*
X0319Y03705D02*
X031423D01*
X03143Y036996D01*
X031471Y036898D01*
X031535Y036815D01*
X031618Y036751D01*
X031716Y03671D01*
X03182Y036697D01*
X0319D01*
Y03705D01*
D02*
G37*
G36*
X0475Y037343D02*
X047411Y037331D01*
X047329Y037297D01*
X047258Y037242D01*
X047203Y037171D01*
X047169Y037089D01*
X047157Y037D01*
X047169Y036911D01*
X047203Y036829D01*
X047258Y036758D01*
X047329Y036703D01*
X047411Y036669D01*
X0475Y036657D01*
X047589Y036669D01*
X047671Y036703D01*
X047742Y036758D01*
X047797Y036829D01*
X047831Y036911D01*
X047843Y037D01*
X047831Y037089D01*
X047797Y037171D01*
X047742Y037242D01*
X047671Y037297D01*
X047589Y037331D01*
X0475Y037343D01*
D02*
G37*
G36*
X04355Y037943D02*
X043461Y037931D01*
X043379Y037897D01*
X043308Y037842D01*
X043253Y037771D01*
X043219Y037689D01*
X043207Y0376D01*
X043219Y037511D01*
X043253Y037429D01*
X043308Y037358D01*
X043379Y037303D01*
X043461Y037269D01*
X04355Y037257D01*
X043639Y037269D01*
X043721Y037303D01*
X043792Y037358D01*
X043847Y037429D01*
X043881Y037511D01*
X043893Y0376D01*
X043881Y037689D01*
X043847Y037771D01*
X043792Y037842D01*
X043721Y037897D01*
X043639Y037931D01*
X04355Y037943D01*
D02*
G37*
G36*
X0319Y037503D02*
X03182D01*
X031716Y03749D01*
X031618Y037449D01*
X031535Y037385D01*
X031471Y037302D01*
X03143Y037204D01*
X031423Y03715D01*
X0319D01*
Y037503D01*
D02*
G37*
G36*
X05Y038335D02*
X049956Y038326D01*
X049877Y038273D01*
X049824Y038194D01*
X049815Y03815D01*
X05D01*
Y038335D01*
D02*
G37*
G36*
X050095Y04D02*
X04975D01*
Y039655D01*
X050095D01*
Y04D01*
D02*
G37*
G36*
X04965D02*
X049305D01*
Y039655D01*
X04965D01*
Y04D01*
D02*
G37*
G36*
X036342D02*
X036D01*
Y039658D01*
X036053Y039665D01*
X036149Y039705D01*
X036232Y039768D01*
X036295Y039851D01*
X036335Y039947D01*
X036342Y04D01*
D02*
G37*
G36*
X0359D02*
X035558D01*
X035565Y039947D01*
X035605Y039851D01*
X035668Y039768D01*
X035751Y039705D01*
X035847Y039665D01*
X0359Y039658D01*
Y04D01*
D02*
G37*
G36*
X03308Y038594D02*
X03282D01*
X032689Y038577D01*
X032568Y038527D01*
X032463Y038447D01*
X032416Y038385D01*
X032366D01*
X032365Y038385D01*
X032282Y038449D01*
X032184Y03849D01*
X03208Y038503D01*
X032D01*
Y0381D01*
Y037697D01*
X03208D01*
X032184Y03771D01*
X032282Y037751D01*
X032352Y037804D01*
X032365Y037815D01*
X032415Y037797D01*
X032463Y037733D01*
X032568Y037653D01*
X032643Y037622D01*
Y037568D01*
X032568Y037537D01*
X032463Y037457D01*
X032409Y037385D01*
X032365D01*
X032282Y037449D01*
X032184Y03749D01*
X03208Y037503D01*
X032D01*
Y0371D01*
Y036697D01*
X03208D01*
X032184Y03671D01*
X032282Y036751D01*
X032365Y036815D01*
X032409D01*
X032463Y036743D01*
X032568Y036663D01*
X032655Y036627D01*
Y036573D01*
X032568Y036537D01*
X032463Y036457D01*
X032409Y036385D01*
X032365D01*
X032282Y036449D01*
X032184Y03649D01*
X03208Y036503D01*
X032D01*
Y0361D01*
Y035697D01*
X03208D01*
X032184Y03571D01*
X032282Y035751D01*
X032365Y035815D01*
X032409D01*
X032463Y035743D01*
X032568Y035663D01*
X032689Y035613D01*
X03282Y035596D01*
X03308D01*
X033211Y035613D01*
X033332Y035663D01*
X033437Y035743D01*
X033517Y035848D01*
X033567Y035969D01*
X033584Y0361D01*
X033567Y036231D01*
X033517Y036352D01*
X033437Y036457D01*
X033332Y036537D01*
X033245Y036573D01*
Y036627D01*
X033332Y036663D01*
X033437Y036743D01*
X033517Y036848D01*
X033567Y036969D01*
X033584Y0371D01*
X033567Y037231D01*
X033517Y037352D01*
X033437Y037457D01*
X033332Y037537D01*
X033257Y037568D01*
Y037622D01*
X033332Y037653D01*
X033437Y037733D01*
X033517Y037838D01*
X033567Y037959D01*
X033584Y03809D01*
X033567Y038221D01*
X033517Y038342D01*
X033437Y038447D01*
X033332Y038527D01*
X033211Y038577D01*
X03308Y038594D01*
D02*
G37*
G36*
X0501Y038335D02*
Y03815D01*
X050285D01*
X050276Y038194D01*
X050223Y038273D01*
X050144Y038326D01*
X0501Y038335D01*
D02*
G37*
G36*
X04465Y039343D02*
X044561Y039331D01*
X044479Y039297D01*
X044408Y039242D01*
X044353Y039171D01*
X044319Y039089D01*
X044307Y039D01*
X044319Y038911D01*
X044353Y038829D01*
X044408Y038758D01*
X044479Y038703D01*
X044561Y038669D01*
X04465Y038657D01*
X044739Y038669D01*
X044821Y038703D01*
X044892Y038758D01*
X044947Y038829D01*
X044981Y038911D01*
X044993Y039D01*
X044981Y039089D01*
X044947Y039171D01*
X044892Y039242D01*
X044821Y039297D01*
X044739Y039331D01*
X04465Y039343D01*
D02*
G37*
G36*
X0489Y03945D02*
X048771Y039433D01*
X04865Y039383D01*
X048547Y039303D01*
X048467Y0392D01*
X048417Y039079D01*
X0484Y03895D01*
X048417Y038821D01*
X048467Y0387D01*
X048547Y038597D01*
X04865Y038517D01*
X048771Y038467D01*
X0489Y03845D01*
X049029Y038467D01*
X04915Y038517D01*
X049253Y038597D01*
X049333Y0387D01*
X049355Y038754D01*
X049405Y038744D01*
Y038455D01*
X050395D01*
Y039445D01*
X049405D01*
Y039156D01*
X049355Y039146D01*
X049333Y0392D01*
X049253Y039303D01*
X04915Y039383D01*
X049029Y039433D01*
X0489Y03945D01*
D02*
G37*
G36*
X0467Y036243D02*
X046611Y036231D01*
X046529Y036197D01*
X046458Y036142D01*
X046403Y036071D01*
X046369Y035989D01*
X046357Y0359D01*
X046369Y035811D01*
X046403Y035729D01*
X046458Y035658D01*
X046529Y035603D01*
X046611Y035569D01*
X0467Y035557D01*
X046789Y035569D01*
X046871Y035603D01*
X046942Y035658D01*
X046997Y035729D01*
X047031Y035811D01*
X047043Y0359D01*
X047031Y035989D01*
X046997Y036071D01*
X046942Y036142D01*
X046871Y036197D01*
X046789Y036231D01*
X0467Y036243D01*
D02*
G37*
G36*
X04695Y035485D02*
Y0353D01*
X047135D01*
X047126Y035344D01*
X047073Y035423D01*
X046994Y035476D01*
X04695Y035485D01*
D02*
G37*
G36*
X0421Y036493D02*
X042011Y036481D01*
X041929Y036447D01*
X041858Y036392D01*
X041803Y036321D01*
X041769Y036239D01*
X041757Y03615D01*
X041769Y036061D01*
X041803Y035979D01*
X041858Y035908D01*
X041929Y035853D01*
X042011Y035819D01*
X0421Y035807D01*
X042189Y035819D01*
X042271Y035853D01*
X042342Y035908D01*
X042397Y035979D01*
X042431Y036061D01*
X042443Y03615D01*
X042431Y036239D01*
X042397Y036321D01*
X042342Y036392D01*
X042271Y036447D01*
X042189Y036481D01*
X0421Y036493D01*
D02*
G37*
G36*
X0319Y03605D02*
X031423D01*
X03143Y035996D01*
X031471Y035898D01*
X031535Y035815D01*
X031618Y035751D01*
X031716Y03571D01*
X03182Y035697D01*
X0319D01*
Y03605D01*
D02*
G37*
G36*
X047135Y0352D02*
X04695D01*
Y035015D01*
X046994Y035024D01*
X047073Y035077D01*
X047126Y035156D01*
X047135Y0352D01*
D02*
G37*
G36*
X04685D02*
X046665D01*
X046674Y035156D01*
X046727Y035077D01*
X046806Y035024D01*
X04685Y035015D01*
Y0352D01*
D02*
G37*
G36*
Y035485D02*
X046806Y035476D01*
X046727Y035423D01*
X046674Y035344D01*
X046665Y0353D01*
X04685D01*
Y035485D01*
D02*
G37*
G36*
X03995Y035943D02*
X039861Y035931D01*
X039779Y035897D01*
X039708Y035842D01*
X039653Y035771D01*
X039619Y035689D01*
X039607Y0356D01*
X039619Y035511D01*
X039653Y035429D01*
X039708Y035358D01*
X039779Y035303D01*
X039861Y035269D01*
X03995Y035257D01*
X040039Y035269D01*
X040121Y035303D01*
X040192Y035358D01*
X040247Y035429D01*
X040281Y035511D01*
X040293Y0356D01*
X040281Y035689D01*
X040247Y035771D01*
X040192Y035842D01*
X040121Y035897D01*
X040039Y035931D01*
X03995Y035943D01*
D02*
G37*
G36*
X04575Y036568D02*
X045661Y036556D01*
X045579Y036522D01*
X045508Y036467D01*
X045453Y036396D01*
X045419Y036314D01*
X045407Y036225D01*
X045419Y036136D01*
X045453Y036054D01*
X045508Y035983D01*
X045579Y035928D01*
X045661Y035894D01*
X04575Y035882D01*
X045839Y035894D01*
X045921Y035928D01*
X045992Y035983D01*
X046047Y036054D01*
X046081Y036136D01*
X046093Y036225D01*
X046081Y036314D01*
X046047Y036396D01*
X045992Y036467D01*
X045921Y036522D01*
X045839Y036556D01*
X04575Y036568D01*
D02*
G37*
G36*
X04055Y036385D02*
Y0362D01*
X040735D01*
X040726Y036244D01*
X040673Y036323D01*
X040594Y036376D01*
X04055Y036385D01*
D02*
G37*
G36*
X04045D02*
X040406Y036376D01*
X040327Y036323D01*
X040274Y036244D01*
X040265Y0362D01*
X04045D01*
Y036385D01*
D02*
G37*
G36*
X050285Y03805D02*
X049815D01*
X049824Y038006D01*
X049877Y037927D01*
X049939Y037885D01*
X049957Y037827D01*
X049953Y037821D01*
X049919Y037739D01*
X049907Y03765D01*
X049919Y037561D01*
X049953Y037479D01*
X050008Y037408D01*
X050079Y037353D01*
X050089Y037349D01*
X05009Y037341D01*
X050049Y037286D01*
X050011Y037281D01*
X049929Y037247D01*
X049858Y037192D01*
X049803Y037121D01*
X049769Y037039D01*
X049757Y03695D01*
X049769Y036861D01*
X049803Y036779D01*
X049858Y036708D01*
X049929Y036653D01*
X050011Y036619D01*
X0501Y036607D01*
X050189Y036619D01*
X050271Y036653D01*
X050342Y036708D01*
X050397Y036779D01*
X050431Y036861D01*
X050443Y03695D01*
X050431Y037039D01*
X050397Y037121D01*
X050342Y037192D01*
X050271Y037247D01*
X050261Y037251D01*
X05026Y037259D01*
X050301Y037314D01*
X050339Y037319D01*
X050421Y037353D01*
X050492Y037408D01*
X050547Y037479D01*
X050581Y037561D01*
X050593Y03765D01*
X050581Y037739D01*
X050547Y037821D01*
X050492Y037892D01*
X050421Y037947D01*
X050339Y037981D01*
X050317Y037984D01*
X050283Y038039D01*
X050285Y03805D01*
D02*
G37*
G36*
X04445Y037143D02*
X044361Y037131D01*
X044279Y037097D01*
X044208Y037042D01*
X044153Y036971D01*
X044119Y036889D01*
X044107Y0368D01*
X044119Y036711D01*
X044153Y036629D01*
X044208Y036558D01*
X044279Y036503D01*
X044361Y036469D01*
X04445Y036457D01*
X044539Y036469D01*
X044621Y036503D01*
X044692Y036558D01*
X044747Y036629D01*
X044781Y036711D01*
X044793Y0368D01*
X044781Y036889D01*
X044747Y036971D01*
X044692Y037042D01*
X044621Y037097D01*
X044539Y037131D01*
X04445Y037143D01*
D02*
G37*
G36*
X04045Y0361D02*
X040265D01*
X040274Y036056D01*
X040327Y035977D01*
X040406Y035924D01*
X04045Y035915D01*
Y0361D01*
D02*
G37*
G36*
X04125Y036593D02*
X041161Y036581D01*
X041079Y036547D01*
X041008Y036492D01*
X040953Y036421D01*
X040919Y036339D01*
X040907Y03625D01*
X040919Y036161D01*
X040953Y036079D01*
X041008Y036008D01*
X041079Y035953D01*
X041161Y035919D01*
X04125Y035907D01*
X041339Y035919D01*
X041421Y035953D01*
X041492Y036008D01*
X041547Y036079D01*
X041581Y036161D01*
X041593Y03625D01*
X041581Y036339D01*
X041547Y036421D01*
X041492Y036492D01*
X041421Y036547D01*
X041339Y036581D01*
X04125Y036593D01*
D02*
G37*
G36*
X0319Y036503D02*
X03182D01*
X031716Y03649D01*
X031618Y036449D01*
X031535Y036385D01*
X031471Y036302D01*
X03143Y036204D01*
X031423Y03615D01*
X0319D01*
Y036503D01*
D02*
G37*
G36*
X040735Y0361D02*
X04055D01*
Y035915D01*
X040594Y035924D01*
X040673Y035977D01*
X040726Y036056D01*
X040735Y0361D01*
D02*
G37*
G36*
X04715Y028035D02*
X047106Y028026D01*
X047027Y027973D01*
X046974Y027894D01*
X046965Y02785D01*
X04715D01*
Y028035D01*
D02*
G37*
G36*
X05Y024335D02*
X049956Y024326D01*
X049877Y024273D01*
X049824Y024194D01*
X049815Y02415D01*
X05D01*
Y024335D01*
D02*
G37*
G36*
X0353D02*
Y02415D01*
X035485D01*
X035476Y024194D01*
X035423Y024273D01*
X035344Y024326D01*
X0353Y024335D01*
D02*
G37*
G36*
X04952Y025233D02*
X049392Y025216D01*
X049272Y025167D01*
X049169Y025088D01*
X04909Y024985D01*
X04904Y024865D01*
X049023Y024736D01*
X04904Y024607D01*
X04909Y024487D01*
X049169Y024384D01*
X049272Y024305D01*
X049392Y024255D01*
X04952Y024238D01*
X049649Y024255D01*
X049769Y024305D01*
X049872Y024384D01*
X049951Y024487D01*
X050001Y024607D01*
X050018Y024736D01*
X050001Y024865D01*
X049951Y024985D01*
X049872Y025088D01*
X049769Y025167D01*
X049649Y025216D01*
X04952Y025233D01*
D02*
G37*
G36*
X0501Y024335D02*
Y02415D01*
X050285D01*
X050276Y024194D01*
X050223Y024273D01*
X050144Y024326D01*
X0501Y024335D01*
D02*
G37*
G36*
X032D02*
X031956Y024326D01*
X031877Y024273D01*
X031824Y024194D01*
X031815Y02415D01*
X032D01*
Y024335D01*
D02*
G37*
G36*
X0484Y024185D02*
Y024D01*
X048585D01*
X048576Y024044D01*
X048523Y024123D01*
X048444Y024176D01*
X0484Y024185D01*
D02*
G37*
G36*
X0352Y024335D02*
X035156Y024326D01*
X035077Y024273D01*
X035024Y024194D01*
X035015Y02415D01*
X0352D01*
Y024335D01*
D02*
G37*
G36*
X0321D02*
Y02415D01*
X032285D01*
X032276Y024194D01*
X032223Y024273D01*
X032144Y024326D01*
X0321Y024335D01*
D02*
G37*
G36*
X04305Y024993D02*
X042961Y024981D01*
X042879Y024947D01*
X042808Y024892D01*
X042753Y024821D01*
X042719Y024739D01*
X042707Y02465D01*
X042719Y024561D01*
X042753Y024479D01*
X042808Y024408D01*
X042879Y024353D01*
X042961Y024319D01*
X04305Y024307D01*
X043139Y024319D01*
X043221Y024353D01*
X043292Y024408D01*
X043347Y024479D01*
X043381Y024561D01*
X043393Y02465D01*
X043381Y024739D01*
X043347Y024821D01*
X043292Y024892D01*
X043221Y024947D01*
X043139Y024981D01*
X04305Y024993D01*
D02*
G37*
G36*
X0469Y025493D02*
X046811Y025481D01*
X046729Y025447D01*
X046658Y025392D01*
X046603Y025321D01*
X046569Y025239D01*
X046557Y02515D01*
X046569Y025061D01*
X046603Y024979D01*
X046658Y024908D01*
X046729Y024853D01*
X046811Y024819D01*
X0469Y024807D01*
X046989Y024819D01*
X047071Y024853D01*
X047142Y024908D01*
X047197Y024979D01*
X047231Y025061D01*
X047243Y02515D01*
X047231Y025239D01*
X047197Y025321D01*
X047142Y025392D01*
X047071Y025447D01*
X046989Y025481D01*
X0469Y025493D01*
D02*
G37*
G36*
X036485Y0249D02*
X0363D01*
Y024715D01*
X036344Y024724D01*
X036423Y024777D01*
X036476Y024856D01*
X036485Y0249D01*
D02*
G37*
G36*
X04775Y025035D02*
Y02485D01*
X047935D01*
X047926Y024894D01*
X047873Y024973D01*
X047794Y025026D01*
X04775Y025035D01*
D02*
G37*
G36*
X04765D02*
X047606Y025026D01*
X047527Y024973D01*
X047474Y024894D01*
X047465Y02485D01*
X04765D01*
Y025035D01*
D02*
G37*
G36*
Y02475D02*
X047465D01*
X047474Y024706D01*
X047527Y024627D01*
X047606Y024574D01*
X04765Y024565D01*
Y02475D01*
D02*
G37*
G36*
X0457Y025093D02*
X045611Y025081D01*
X045529Y025047D01*
X045458Y024992D01*
X045403Y024921D01*
X045369Y024839D01*
X045357Y02475D01*
X045369Y024661D01*
X045403Y024579D01*
X045458Y024508D01*
X045529Y024453D01*
X045611Y024419D01*
X0457Y024407D01*
X045789Y024419D01*
X045871Y024453D01*
X045942Y024508D01*
X045997Y024579D01*
X046031Y024661D01*
X046043Y02475D01*
X046031Y024839D01*
X045997Y024921D01*
X045942Y024992D01*
X045871Y025047D01*
X045789Y025081D01*
X0457Y025093D01*
D02*
G37*
G36*
X0362Y0249D02*
X036015D01*
X036024Y024856D01*
X036077Y024777D01*
X036156Y024724D01*
X0362Y024715D01*
Y0249D01*
D02*
G37*
G36*
X047935Y02475D02*
X04775D01*
Y024565D01*
X047794Y024574D01*
X047873Y024627D01*
X047926Y024706D01*
X047935Y02475D01*
D02*
G37*
G36*
X0483Y0239D02*
X048115D01*
X048124Y023856D01*
X048177Y023777D01*
X048256Y023724D01*
X0483Y023715D01*
Y0239D01*
D02*
G37*
G36*
X047235Y02385D02*
X04705D01*
Y023665D01*
X047094Y023674D01*
X047173Y023727D01*
X047226Y023806D01*
X047235Y02385D01*
D02*
G37*
G36*
X032Y02405D02*
X031815D01*
X031824Y024006D01*
X031877Y023927D01*
X031956Y023874D01*
X032Y023865D01*
Y02405D01*
D02*
G37*
G36*
X048585Y0239D02*
X0484D01*
Y023715D01*
X048444Y023724D01*
X048523Y023777D01*
X048576Y023856D01*
X048585Y0239D01*
D02*
G37*
G36*
X0416Y023685D02*
X041556Y023676D01*
X041477Y023623D01*
X041424Y023544D01*
X041415Y0235D01*
X0416D01*
Y023685D01*
D02*
G37*
G36*
X041885Y0234D02*
X0417D01*
Y023215D01*
X041744Y023224D01*
X041823Y023277D01*
X041876Y023356D01*
X041885Y0234D01*
D02*
G37*
G36*
X04695Y02385D02*
X046765D01*
X046774Y023806D01*
X046827Y023727D01*
X046906Y023674D01*
X04695Y023665D01*
Y02385D01*
D02*
G37*
G36*
X0417Y023685D02*
Y0235D01*
X041885D01*
X041876Y023544D01*
X041823Y023623D01*
X041744Y023676D01*
X0417Y023685D01*
D02*
G37*
G36*
X032285Y02405D02*
X0321D01*
Y023865D01*
X032144Y023874D01*
X032223Y023927D01*
X032276Y024006D01*
X032285Y02405D01*
D02*
G37*
G36*
X04695Y024135D02*
X046906Y024126D01*
X046827Y024073D01*
X046774Y023994D01*
X046765Y02395D01*
X04695D01*
Y024135D01*
D02*
G37*
G36*
X03795Y024593D02*
X037861Y024581D01*
X037779Y024547D01*
X037708Y024492D01*
X037653Y024421D01*
X037619Y024339D01*
X037607Y02425D01*
X037619Y024161D01*
X037653Y024079D01*
X037708Y024008D01*
X037779Y023953D01*
X037861Y023919D01*
X03795Y023907D01*
X038039Y023919D01*
X038121Y023953D01*
X038192Y024008D01*
X038247Y024079D01*
X038281Y024161D01*
X038293Y02425D01*
X038281Y024339D01*
X038247Y024421D01*
X038192Y024492D01*
X038121Y024547D01*
X038039Y024581D01*
X03795Y024593D01*
D02*
G37*
G36*
X0483Y024185D02*
X048256Y024176D01*
X048177Y024123D01*
X048124Y024044D01*
X048115Y024D01*
X0483D01*
Y024185D01*
D02*
G37*
G36*
X04705Y024135D02*
Y02395D01*
X047235D01*
X047226Y023994D01*
X047173Y024073D01*
X047094Y024126D01*
X04705Y024135D01*
D02*
G37*
G36*
X035485Y02405D02*
X0353D01*
Y023865D01*
X035344Y023874D01*
X035423Y023927D01*
X035476Y024006D01*
X035485Y02405D01*
D02*
G37*
G36*
X0352D02*
X035015D01*
X035024Y024006D01*
X035077Y023927D01*
X035156Y023874D01*
X0352Y023865D01*
Y02405D01*
D02*
G37*
G36*
X050285D02*
X0501D01*
Y023865D01*
X050144Y023874D01*
X050223Y023927D01*
X050276Y024006D01*
X050285Y02405D01*
D02*
G37*
G36*
X05D02*
X049815D01*
X049824Y024006D01*
X049877Y023927D01*
X049956Y023874D01*
X05Y023865D01*
Y02405D01*
D02*
G37*
G36*
X0505Y02505D02*
X050315D01*
X050324Y025006D01*
X050377Y024927D01*
X050456Y024874D01*
X0505Y024865D01*
Y02505D01*
D02*
G37*
G36*
X035485Y02735D02*
X0353D01*
Y027165D01*
X035344Y027174D01*
X035423Y027227D01*
X035476Y027306D01*
X035485Y02735D01*
D02*
G37*
G36*
X0352D02*
X035015D01*
X035024Y027306D01*
X035077Y027227D01*
X035156Y027174D01*
X0352Y027165D01*
Y02735D01*
D02*
G37*
G36*
X04295Y027485D02*
Y0273D01*
X043135D01*
X043126Y027344D01*
X043073Y027423D01*
X042994Y027476D01*
X04295Y027485D01*
D02*
G37*
G36*
X04285D02*
X042806Y027476D01*
X042727Y027423D01*
X042674Y027344D01*
X042665Y0273D01*
X04285D01*
Y027485D01*
D02*
G37*
G36*
X0403Y027235D02*
X040256Y027226D01*
X040177Y027173D01*
X040124Y027094D01*
X040115Y02705D01*
X0403D01*
Y027235D01*
D02*
G37*
G36*
X040585Y02695D02*
X0404D01*
Y026765D01*
X040444Y026774D01*
X040523Y026827D01*
X040576Y026906D01*
X040585Y02695D01*
D02*
G37*
G36*
X0381Y027743D02*
X038011Y027731D01*
X037929Y027697D01*
X037858Y027642D01*
X037803Y027571D01*
X037769Y027489D01*
X037757Y0274D01*
X037769Y027311D01*
X037803Y027229D01*
X037858Y027158D01*
X037929Y027103D01*
X038011Y027069D01*
X0381Y027057D01*
X038189Y027069D01*
X038271Y027103D01*
X038342Y027158D01*
X038397Y027229D01*
X038431Y027311D01*
X038443Y0274D01*
X038431Y027489D01*
X038397Y027571D01*
X038342Y027642D01*
X038271Y027697D01*
X038189Y027731D01*
X0381Y027743D01*
D02*
G37*
G36*
X0404Y027235D02*
Y02705D01*
X040585D01*
X040576Y027094D01*
X040523Y027173D01*
X040444Y027226D01*
X0404Y027235D01*
D02*
G37*
G36*
X0352Y027635D02*
X035156Y027626D01*
X035077Y027573D01*
X035024Y027494D01*
X035015Y02745D01*
X0352D01*
Y027635D01*
D02*
G37*
G36*
X04115Y028293D02*
X041061Y028281D01*
X040979Y028247D01*
X040908Y028192D01*
X040853Y028121D01*
X040819Y028039D01*
X040807Y02795D01*
X040819Y027861D01*
X040853Y027779D01*
X040908Y027708D01*
X040979Y027653D01*
X041061Y027619D01*
X04115Y027607D01*
X041239Y027619D01*
X041321Y027653D01*
X041392Y027708D01*
X041447Y027779D01*
X041481Y027861D01*
X041493Y02795D01*
X041481Y028039D01*
X041447Y028121D01*
X041392Y028192D01*
X041321Y028247D01*
X041239Y028281D01*
X04115Y028293D01*
D02*
G37*
G36*
X047435Y02775D02*
X04725D01*
Y027565D01*
X047294Y027574D01*
X047373Y027627D01*
X047426Y027706D01*
X047435Y02775D01*
D02*
G37*
G36*
X044174Y027985D02*
Y0278D01*
X044359D01*
X04435Y027844D01*
X044297Y027923D01*
X044218Y027976D01*
X044174Y027985D01*
D02*
G37*
G36*
X044074D02*
X04403Y027976D01*
X043951Y027923D01*
X043898Y027844D01*
X043889Y0278D01*
X044074D01*
Y027985D01*
D02*
G37*
G36*
Y0277D02*
X043889D01*
X043898Y027656D01*
X043951Y027577D01*
X04403Y027524D01*
X044074Y027515D01*
Y0277D01*
D02*
G37*
G36*
X0353Y027635D02*
Y02745D01*
X035485D01*
X035476Y027494D01*
X035423Y027573D01*
X035344Y027626D01*
X0353Y027635D01*
D02*
G37*
G36*
X04715Y02775D02*
X046965D01*
X046974Y027706D01*
X047027Y027627D01*
X047106Y027574D01*
X04715Y027565D01*
Y02775D01*
D02*
G37*
G36*
X044359Y0277D02*
X044174D01*
Y027515D01*
X044218Y027524D01*
X044297Y027577D01*
X04435Y027656D01*
X044359Y0277D01*
D02*
G37*
G36*
X0505Y025335D02*
X050456Y025326D01*
X050377Y025273D01*
X050324Y025194D01*
X050315Y02515D01*
X0505D01*
Y025335D01*
D02*
G37*
G36*
X0363Y025185D02*
Y025D01*
X036485D01*
X036476Y025044D01*
X036423Y025123D01*
X036344Y025176D01*
X0363Y025185D01*
D02*
G37*
G36*
X03475Y025385D02*
X034706Y025376D01*
X034627Y025323D01*
X034574Y025244D01*
X034565Y0252D01*
X03475D01*
Y025385D01*
D02*
G37*
G36*
X0506Y025335D02*
Y02515D01*
X050785D01*
X050776Y025194D01*
X050723Y025273D01*
X050644Y025326D01*
X0506Y025335D01*
D02*
G37*
G36*
X03475Y0251D02*
X034565D01*
X034574Y025056D01*
X034627Y024977D01*
X034706Y024924D01*
X03475Y024915D01*
Y0251D01*
D02*
G37*
G36*
X050785Y02505D02*
X0506D01*
Y024865D01*
X050644Y024874D01*
X050723Y024927D01*
X050776Y025006D01*
X050785Y02505D01*
D02*
G37*
G36*
X0362Y025185D02*
X036156Y025176D01*
X036077Y025123D01*
X036024Y025044D01*
X036015Y025D01*
X0362D01*
Y025185D01*
D02*
G37*
G36*
X035035Y0251D02*
X03485D01*
Y024915D01*
X034894Y024924D01*
X034973Y024977D01*
X035026Y025056D01*
X035035Y0251D01*
D02*
G37*
G36*
X03485Y025385D02*
Y0252D01*
X035035D01*
X035026Y025244D01*
X034973Y025323D01*
X034894Y025376D01*
X03485Y025385D01*
D02*
G37*
G36*
X0483Y026993D02*
X048211Y026981D01*
X048129Y026947D01*
X048058Y026892D01*
X048003Y026821D01*
X047969Y026739D01*
X047957Y02665D01*
X047969Y026561D01*
X048003Y026479D01*
X048058Y026408D01*
X048129Y026353D01*
X048211Y026319D01*
X0483Y026307D01*
X048389Y026319D01*
X048471Y026353D01*
X048542Y026408D01*
X048597Y026479D01*
X048631Y026561D01*
X048643Y02665D01*
X048631Y026739D01*
X048597Y026821D01*
X048542Y026892D01*
X048471Y026947D01*
X048389Y026981D01*
X0483Y026993D01*
D02*
G37*
G36*
X039547Y0272D02*
X039153D01*
X03905Y027187D01*
X038953Y027147D01*
X03887Y027083D01*
X038807Y027D01*
X038767Y026904D01*
X038753Y0268D01*
X038767Y026696D01*
X038807Y0266D01*
X038845Y02655D01*
X038807Y0265D01*
X038767Y026404D01*
X038753Y0263D01*
X038767Y026196D01*
X038807Y0261D01*
X03887Y026017D01*
X038918Y025981D01*
X038894Y02595D01*
X038864Y025877D01*
X03886Y02585D01*
X03984D01*
X039836Y025877D01*
X039806Y02595D01*
X039782Y025981D01*
X03983Y026017D01*
X039894Y0261D01*
X039933Y026196D01*
X039947Y0263D01*
X039933Y026404D01*
X039894Y0265D01*
X039855Y02655D01*
X039894Y0266D01*
X039933Y026696D01*
X039947Y0268D01*
X039933Y026904D01*
X039894Y027D01*
X03983Y027083D01*
X039747Y027147D01*
X03965Y027187D01*
X039547Y0272D01*
D02*
G37*
G36*
X0403Y02695D02*
X040115D01*
X040124Y026906D01*
X040177Y026827D01*
X040256Y026774D01*
X0403Y026765D01*
Y02695D01*
D02*
G37*
G36*
X043135Y0272D02*
X042665D01*
X042667Y027191D01*
X042663Y02718D01*
X042629Y02714D01*
X042561Y027131D01*
X042479Y027097D01*
X042408Y027042D01*
X042353Y026971D01*
X042319Y026889D01*
X042307Y0268D01*
X042319Y026711D01*
X042353Y026629D01*
X042408Y026558D01*
X042479Y026503D01*
X042561Y026469D01*
X04265Y026457D01*
X042739Y026469D01*
X042821Y026503D01*
X042892Y026558D01*
X042947Y026629D01*
X042981Y026711D01*
X042993Y0268D01*
X042981Y026889D01*
X04295Y026964D01*
X042959Y027003D01*
X042965Y027018D01*
X042994Y027024D01*
X043073Y027077D01*
X043126Y027156D01*
X043135Y0272D01*
D02*
G37*
G36*
X03984Y02575D02*
X0394D01*
Y025501D01*
X039547D01*
X039624Y025511D01*
X039697Y025541D01*
X039759Y025588D01*
X039806Y02565D01*
X039836Y025723D01*
X03984Y02575D01*
D02*
G37*
G36*
X0393D02*
X03886D01*
X038864Y025723D01*
X038894Y02565D01*
X038941Y025588D01*
X039003Y025541D01*
X039076Y025511D01*
X039153Y025501D01*
X0393D01*
Y02575D01*
D02*
G37*
G36*
X04105Y026943D02*
X040961Y026931D01*
X040879Y026897D01*
X040808Y026842D01*
X040753Y026771D01*
X040719Y026689D01*
X040707Y0266D01*
X040719Y026511D01*
X040753Y026429D01*
X040808Y026358D01*
X040879Y026303D01*
X040961Y026269D01*
X04105Y026257D01*
X041126Y026267D01*
X041146Y026254D01*
X041154Y026246D01*
X041167Y026226D01*
X041157Y02615D01*
X041169Y026061D01*
X041203Y025979D01*
X041258Y025908D01*
X041329Y025853D01*
X041411Y025819D01*
X0415Y025807D01*
X041589Y025819D01*
X041671Y025853D01*
X041742Y025908D01*
X041797Y025979D01*
X041831Y026061D01*
X041843Y02615D01*
X041831Y026239D01*
X041797Y026321D01*
X041742Y026392D01*
X041671Y026447D01*
X041589Y026481D01*
X0415Y026493D01*
X041424Y026483D01*
X041404Y026496D01*
X041396Y026504D01*
X041383Y026524D01*
X041393Y0266D01*
X041381Y026689D01*
X041347Y026771D01*
X041292Y026842D01*
X041221Y026897D01*
X041139Y026931D01*
X04105Y026943D01*
D02*
G37*
G36*
X0449Y026443D02*
X044811Y026431D01*
X044729Y026397D01*
X044658Y026342D01*
X044603Y026271D01*
X044569Y026189D01*
X044557Y0261D01*
X044569Y026011D01*
X044603Y025929D01*
X044658Y025858D01*
X044729Y025803D01*
X044811Y025769D01*
X0449Y025757D01*
X044989Y025769D01*
X045071Y025803D01*
X045142Y025858D01*
X045197Y025929D01*
X045231Y026011D01*
X045243Y0261D01*
X045231Y026189D01*
X045197Y026271D01*
X045142Y026342D01*
X045071Y026397D01*
X044989Y026431D01*
X0449Y026443D01*
D02*
G37*
%LPD*%
D44*
X0497Y04005D02*
D03*
D45*
X0521Y0326D02*
D03*
Y0315D02*
D03*
X04085Y02015D02*
D03*
X03595Y04005D02*
D03*
D46*
X031498Y02805D02*
D03*
X031488Y02705D02*
D03*
X031498Y0301D02*
D03*
X031488Y0291D02*
D03*
X031498Y03215D02*
D03*
X031488Y03115D02*
D03*
D47*
X031468Y026D02*
D03*
X05209Y0293D02*
D03*
Y0304D02*
D03*
Y0282D02*
D03*
Y0271D02*
D03*
D48*
X04952Y022964D02*
D03*
D51*
X03195Y0361D02*
D03*
Y0381D02*
D03*
Y0371D02*
D03*
D53*
X03935Y0258D02*
D03*
D54*
X0429Y02725D02*
D03*
X044124Y02775D02*
D03*
X04075Y0332D02*
D03*
X04035Y027D02*
D03*
X0472Y0278D02*
D03*
X0405Y03615D02*
D03*
X03635Y02875D02*
D03*
X0469Y03525D02*
D03*
X03205Y0221D02*
D03*
X03255Y0231D02*
D03*
X03205Y0241D02*
D03*
X03305Y0201D02*
D03*
X03355Y0211D02*
D03*
X03305Y0221D02*
D03*
X03355Y0231D02*
D03*
X03405Y0201D02*
D03*
X03455Y0211D02*
D03*
X03405Y0221D02*
D03*
X03505Y0201D02*
D03*
X03555Y0211D02*
D03*
X03905Y0201D02*
D03*
X03955Y0211D02*
D03*
X04005Y0201D02*
D03*
X04055Y0211D02*
D03*
X04455D02*
D03*
X04505Y0201D02*
D03*
X04555Y0211D02*
D03*
X04605Y0201D02*
D03*
X04655Y0211D02*
D03*
X04705Y0201D02*
D03*
X04755Y0211D02*
D03*
X04805Y0201D02*
D03*
X04855Y0211D02*
D03*
X04905Y0201D02*
D03*
X04955Y0211D02*
D03*
X05005Y0201D02*
D03*
X05055Y0211D02*
D03*
X05005Y0241D02*
D03*
X05055Y0251D02*
D03*
X05005Y0381D02*
D03*
X05105Y0221D02*
D03*
X047Y0239D02*
D03*
X04705Y0229D02*
D03*
X04835Y02395D02*
D03*
Y02285D02*
D03*
X0477Y0248D02*
D03*
X0348Y02515D02*
D03*
X03525Y0241D02*
D03*
X03625Y02495D02*
D03*
X0394Y0227D02*
D03*
X04165Y02345D02*
D03*
X04265Y02255D02*
D03*
X03525Y0274D02*
D03*
M02*
