G04 Layer_Color=16711935*
%FSTAX24Y24*%
%MOIN*%
G70*
G01*
G75*
%ADD67R,0.0474X0.0513*%
%ADD73R,0.0454X0.0631*%
%ADD75R,0.0513X0.0698*%
%ADD76R,0.0698X0.0513*%
%ADD79R,0.0631X0.0454*%
%ADD88R,0.0671X0.0671*%
%ADD89C,0.0671*%
%ADD90O,0.0680X0.0940*%
%ADD91O,0.0730X0.0830*%
%ADD92C,0.0667*%
%ADD93C,0.0830*%
%ADD94C,0.1340*%
%ADD95O,0.0940X0.0680*%
%ADD96O,0.0867X0.0474*%
%ADD97O,0.0867X0.0474*%
%ADD98C,0.0360*%
%ADD99C,0.0460*%
%ADD100R,0.0513X0.0474*%
D67*
X0486Y035738D02*
D03*
Y03625D02*
D03*
X0503Y035838D02*
D03*
Y03635D02*
D03*
X0517Y035838D02*
D03*
Y03635D02*
D03*
D73*
X043924Y0368D02*
D03*
X043176D02*
D03*
X046724Y03685D02*
D03*
X045976D02*
D03*
Y03845D02*
D03*
X046724D02*
D03*
X049524Y03795D02*
D03*
X048776D02*
D03*
D75*
X04525Y0295D02*
D03*
X044612D02*
D03*
X046219Y0355D02*
D03*
X045581D02*
D03*
X039369Y0356D02*
D03*
X038731D02*
D03*
D76*
X04605Y025712D02*
D03*
Y02635D02*
D03*
D79*
X0475Y026176D02*
D03*
Y026924D02*
D03*
D88*
X0382Y02015D02*
D03*
X0499Y03895D02*
D03*
X0497Y04005D02*
D03*
X0491Y0326D02*
D03*
Y0315D02*
D03*
X04385Y02015D02*
D03*
X03395Y04005D02*
D03*
D89*
X0372Y02015D02*
D03*
X0362D02*
D03*
X0489Y03895D02*
D03*
X0427Y04005D02*
D03*
X0437D02*
D03*
X0447D02*
D03*
X0457D02*
D03*
X0467D02*
D03*
X0477D02*
D03*
X0487D02*
D03*
X0501Y0326D02*
D03*
X0511D02*
D03*
X0521D02*
D03*
X0501Y0315D02*
D03*
X0511D02*
D03*
X0521D02*
D03*
X04285Y02015D02*
D03*
X04185D02*
D03*
X04085D02*
D03*
X03495Y04005D02*
D03*
X03595D02*
D03*
X03695D02*
D03*
X03795D02*
D03*
X03895D02*
D03*
X03995D02*
D03*
X04095D02*
D03*
D90*
X033488Y02805D02*
D03*
X032488D02*
D03*
X031498D02*
D03*
X033488Y02705D02*
D03*
X031488D02*
D03*
X032488D02*
D03*
X033488Y0301D02*
D03*
X032488D02*
D03*
X031498D02*
D03*
X033488Y0291D02*
D03*
X031488D02*
D03*
X032488D02*
D03*
X033488Y032153D02*
D03*
X032488Y03215D02*
D03*
X031498D02*
D03*
X033488Y03115D02*
D03*
X031488D02*
D03*
X032488D02*
D03*
D91*
X033458Y026D02*
D03*
X032448D02*
D03*
X031468D02*
D03*
X0501Y0293D02*
D03*
X05111D02*
D03*
X05209D02*
D03*
X0501Y0304D02*
D03*
X05111D02*
D03*
X05209D02*
D03*
X0501Y0282D02*
D03*
X05111D02*
D03*
X05209D02*
D03*
X0501Y0271D02*
D03*
X05111D02*
D03*
X05209D02*
D03*
D92*
X05208Y024736D02*
D03*
Y022964D02*
D03*
X04952Y024736D02*
D03*
Y022964D02*
D03*
D93*
X03655Y0299D02*
D03*
Y0319D02*
D03*
D94*
X0516Y03975D02*
D03*
Y0208D02*
D03*
X032D02*
D03*
Y03975D02*
D03*
D95*
X03295Y0361D02*
D03*
Y0371D02*
D03*
Y03809D02*
D03*
X03195Y0361D02*
D03*
Y0381D02*
D03*
Y0371D02*
D03*
D96*
X03935Y0268D02*
D03*
D97*
Y0263D02*
D03*
Y0258D02*
D03*
D98*
X04575Y028969D02*
D03*
X0429Y02725D02*
D03*
X04105Y0266D02*
D03*
X04265Y0268D02*
D03*
X0457Y02475D02*
D03*
X044124Y02775D02*
D03*
X0415Y02615D02*
D03*
X0375Y0231D02*
D03*
X04115Y02795D02*
D03*
X04125Y031D02*
D03*
X03835Y02235D02*
D03*
X0421Y03015D02*
D03*
X04085Y03025D02*
D03*
X0419Y03115D02*
D03*
X04445Y0368D02*
D03*
X04075Y0332D02*
D03*
X0475Y037D02*
D03*
X05215Y0351D02*
D03*
X04355Y0376D02*
D03*
X0449Y03415D02*
D03*
X04465Y039D02*
D03*
X04485Y0382D02*
D03*
X04575Y036225D02*
D03*
X0501Y03695D02*
D03*
X05025Y03765D02*
D03*
X0444Y0332D02*
D03*
X04405Y0308D02*
D03*
X04235Y0342D02*
D03*
X0423Y03265D02*
D03*
X04295Y03235D02*
D03*
X04245Y0321D02*
D03*
X0437Y03145D02*
D03*
X04335Y03085D02*
D03*
X0438Y03025D02*
D03*
X0427Y0345D02*
D03*
X04125Y03625D02*
D03*
X04415Y0341D02*
D03*
X03985Y02835D02*
D03*
X0381Y0274D02*
D03*
X04445Y03045D02*
D03*
X04775Y0317D02*
D03*
X04685Y0325D02*
D03*
X0469Y03175D02*
D03*
X04715Y0313D02*
D03*
X0507Y0345D02*
D03*
X05225Y037D02*
D03*
X0421Y03615D02*
D03*
X0509Y0337D02*
D03*
X04035Y027D02*
D03*
X0472Y0278D02*
D03*
X0467Y0359D02*
D03*
X0383Y03765D02*
D03*
X0469Y02515D02*
D03*
X0483Y02665D02*
D03*
X03795Y02425D02*
D03*
X0405Y03615D02*
D03*
X03635Y02875D02*
D03*
X04235Y0336D02*
D03*
X0423Y0331D02*
D03*
X03705Y02895D02*
D03*
X0467Y03305D02*
D03*
X044Y03465D02*
D03*
X0469Y03525D02*
D03*
X03995Y0356D02*
D03*
X04305Y02465D02*
D03*
X0449Y0261D02*
D03*
X04265Y0284D02*
D03*
X04205Y0283D02*
D03*
X03205Y0221D02*
D03*
X03255Y0231D02*
D03*
X03205Y0241D02*
D03*
X03305Y0201D02*
D03*
X03355Y0211D02*
D03*
X03305Y0221D02*
D03*
X03355Y0231D02*
D03*
X03405Y0201D02*
D03*
X03455Y0211D02*
D03*
X03405Y0221D02*
D03*
X03505Y0201D02*
D03*
X03555Y0211D02*
D03*
X03905Y0201D02*
D03*
X03955Y0211D02*
D03*
X04005Y0201D02*
D03*
X04055Y0211D02*
D03*
X04455D02*
D03*
X04505Y0201D02*
D03*
X04555Y0211D02*
D03*
X04605Y0201D02*
D03*
X04655Y0211D02*
D03*
X04705Y0201D02*
D03*
X04755Y0211D02*
D03*
X04805Y0201D02*
D03*
X04855Y0211D02*
D03*
X04905Y0201D02*
D03*
X04955Y0211D02*
D03*
X05005Y0201D02*
D03*
X05055Y0211D02*
D03*
X05005Y0241D02*
D03*
X05055Y0251D02*
D03*
X05005Y0381D02*
D03*
X05105Y0221D02*
D03*
X047Y0239D02*
D03*
X04705Y0229D02*
D03*
X04835Y02395D02*
D03*
Y02285D02*
D03*
X0477Y0248D02*
D03*
X0348Y02515D02*
D03*
X03525Y0241D02*
D03*
X03625Y02495D02*
D03*
X0394Y0227D02*
D03*
X04165Y02345D02*
D03*
X04265Y02255D02*
D03*
X03525Y0274D02*
D03*
D99*
X03495Y03365D02*
D03*
D100*
X051344Y03455D02*
D03*
X051856D02*
D03*
M02*
